<svg xmlns="http://www.w3.org/2000/svg" width="401" height="293" fill="none"><path fill="#fff" d="M353.161 264.539c-2.8-7.116-3.208-14.903-1.137-22.252-.205.088-.438.175-.642.263.525.35 1.021.729 1.546 1.079.204.146.612 0 .641-.263a74.36 74.36 0 0 1 16.331-36.949c-.233-.058-.496-.116-.729-.204 4.783 20.035-1.137 40.595-8.37 59.259-.204.525.642.758.846.233 7.291-18.839 13.182-39.515 8.37-59.725-.058-.292-.525-.437-.729-.204-8.807 10.673-14.582 23.651-16.535 37.357.204-.087.437-.175.641-.262-.525-.35-1.021-.729-1.545-1.079-.234-.175-.584 0-.642.262-2.1 7.495-1.721 15.485 1.137 22.718.175.525 1.021.291.817-.233"/><path fill="#fff" d="M371.356 226.363c1.838-4.462 4.141-8.69 6.854-12.715-.205.058-.409.117-.613.146.35.262.729.525 1.079.758.204.146.496.029.613-.146a76.7 76.7 0 0 1 8.923-12.86l-.7-.088c4.491 7.728 1.079 17.264-1.662 24.993-2.974 8.486-6.678 16.71-11.286 24.409-2.624 4.374-5.541 8.573-8.749 12.51-.35.438.263 1.05.613.613 5.891-7.232 10.732-15.194 14.669-23.622 1.954-4.17 3.674-8.428 5.249-12.744 1.546-4.287 3.062-8.661 3.762-13.181.729-4.608.496-9.332-1.867-13.444-.145-.234-.495-.292-.699-.088a82 82 0 0 0-9.07 13.036c.204-.059.408-.117.612-.146-.35-.262-.729-.525-1.079-.758-.204-.146-.466-.029-.612.146-2.741 4.053-5.045 8.369-6.941 12.919-.146.554.7.787.904.262M368.707 206.707c-3.85 17.819-9.711 35.171-12.482 53.193-.087.554.758.787.846.233 2.77-18.051 8.632-35.403 12.481-53.192.117-.554-.729-.788-.845-.234"/><path fill="#fff" d="M387.746 201.664c-3.004 18.315-11.927 34.791-20.735 50.86-.262.496.496.933.759.438 8.836-16.157 17.789-32.692 20.822-51.064.087-.554-.758-.788-.846-.234M356.747 228.143a26.9 26.9 0 0 1 4.025 10.557c.087.554.933.32.846-.234a27.1 27.1 0 0 0-4.112-10.761c-.321-.466-1.079-.029-.759.438M362.871 233.445c2.945-4.52 5.891-9.069 8.836-13.589.321-.467-.437-.904-.758-.438-2.945 4.52-5.891 9.07-8.836 13.59-.321.467.437.904.758.437"/><path fill="#fff" d="M374.595 218.08a104 104 0 0 0 1.254 18.081c.087.554.933.321.845-.233a101.7 101.7 0 0 1-1.224-17.848c.029-.583-.846-.583-.875 0M383.052 221.869a142 142 0 0 0 6.94-7.553c.35-.438-.262-1.05-.612-.613a140 140 0 0 1-6.941 7.553c-.408.409.204 1.021.613.613M37.126 249.401a30.55 30.55 0 0 1-12.249-19.043c-.087.175-.204.35-.291.525.7-.204 1.341-.029 1.866.496.38.379.875-.088.7-.525a69.2 69.2 0 0 1-5.95-27.792c-.116.145-.203.291-.32.408.292.146.612.321.904.466.204.35.846.234.817-.233l-.613-7.611c-.175-2.246-.437-4.608 1.021-6.504a4.5 4.5 0 0 1-.613.146c2.042 1.458 3.238 3.821 4.433 5.949 1.167 2.1 2.275 4.258 3.325 6.416a110 110 0 0 1 5.599 14.057c3.062 9.39 4.9 19.13 5.512 28.987.029.554.904.554.875 0-.642-10.265-2.596-20.443-5.862-30.212a114 114 0 0 0-5.716-13.969 118 118 0 0 0-3.616-6.853c-1.108-1.954-2.246-3.821-4.112-5.162-.204-.146-.467-.029-.612.146-1.313 1.72-1.342 3.878-1.225 5.978.204 2.858.466 5.716.7 8.603.262-.087.554-.146.816-.233-.437-.758-1.05-.992-1.895-.875-.175.029-.321.233-.321.408a70.8 70.8 0 0 0 6.066 28.23l.7-.525c-.759-.788-1.692-1.021-2.713-.729-.233.058-.35.291-.291.524 1.545 7.904 6.095 14.903 12.627 19.569.467.437.904-.321.438-.642"/><path fill="#fff" d="M34.501 209.506c-.262-1.662-.466-3.324-.554-4.986-.087-1.546-.525-3.85.642-5.075.67-.67.991-.991 1.137-2.012.204-1.633.204-3.295.38-4.928.349-3.412.845-6.766 1.545-10.12.116-.554.175-1.604.466-2.1.7-1.137 1.78.059 2.333.613.992.991 1.78 2.158 2.45 3.383 2.8 5.132 3.558 11.461 4.316 17.177a120.6 120.6 0 0 1 1.02 19.189c-.174 7.29-1.166 14.552-3.674 21.434-.204.525.642.758.846.233 4.87-13.444 4.433-28.696 2.42-42.635-.845-5.92-1.75-12.657-5.336-17.673-.788-1.079-3.179-4.52-4.725-2.975-.816.788-.875 2.625-1.079 3.646-.379 1.925-.729 3.849-.991 5.803a126 126 0 0 0-.642 5.687c-.087 1.021 0 2.187-.233 3.179-.233.962-.933 1.254-1.4 2.012-.758 1.166-.466 3.004-.408 4.316.087 2.012.32 4.024.641 6.037.088.583.934.35.846-.205"/><path fill="#fff" d="M38.029 179.672a153.7 153.7 0 0 1 3.878 55.788c-.058.554.817.554.875 0a154.9 154.9 0 0 0-3.908-56.022c-.146-.524-.991-.291-.846.234M21.783 189.558c6.853 17.527 12.19 35.608 16.01 54.039.116.554.962.321.846-.233a332 332 0 0 0-16.01-54.039c-.234-.525-1.08-.291-.847.233"/><path fill="#fff" d="M21.93 216.389c4.783 1.342 8.749 4.491 11.17 8.836.262.496 1.02.059.758-.437a19.45 19.45 0 0 0-11.695-9.215c-.554-.175-.787.67-.233.816M31.615 205.074a70.3 70.3 0 0 0-.262 13.56c.029.554.904.554.874 0q-.525-6.78.263-13.56c.058-.554-.817-.554-.875 0M34.705 199.242a44.25 44.25 0 0 1 8.136 17.469c.117.554.962.321.846-.233-1.43-6.416-4.2-12.453-8.224-17.673-.321-.467-1.08-.029-.758.437M44.854 188.743a42.7 42.7 0 0 0-3.033 10.527c-.088.555.758.788.846.234a41.3 41.3 0 0 1 2.945-10.324c.233-.496-.525-.962-.758-.437M6.56 270.253c15.807-5.57 32.663-1.138 48.527 1.691a420 420 0 0 0 51.21 5.891c9.711.525 19.422.7 29.162.525.554 0 .554-.875 0-.875a421 421 0 0 1-52.522-2.42 405 405 0 0 1-26.48-3.762c-7.844-1.371-15.66-3.063-23.563-3.996-8.894-1.02-18.022-.904-26.567 2.1-.525.204-.291 1.05.233.846M98.163 269.524c26.159 6.416 53.251 4.725 79.789 2.275 13.648-1.254 27.267-2.741 40.944-3.47 13.648-.73 27.267-.496 40.886.845 15.835 1.575 31.496 4.462 47.068 7.728.554.117.788-.729.234-.845-27.063-5.687-54.389-9.857-82.093-8.866-27.121.963-54.009 5.424-81.16 5.92-15.252.292-30.562-.787-45.406-4.433-.583-.145-.816.7-.262.846M212.451 288.042c21.464-4.433 43.307-.234 64.683 2.595 21.259 2.8 42.665 3.266 63.953.554 11.782-1.487 23.418-3.878 34.821-7.086.554-.146.32-.992-.234-.846a238 238 0 0 1-63.603 8.953c-10.674.029-21.289-.7-31.875-2.041-10.819-1.371-21.58-3.15-32.429-4.171-11.869-1.108-23.855-1.225-35.578 1.225-.525.088-.292.933.262.817M308.718 265.705c10.907 4.053 22.63 1.662 33.566-.963 12.102-2.887 24.147-5.278 36.599-5.978 6.912-.379 13.852-.321 20.764.116.554.03.554-.845 0-.874a172.8 172.8 0 0 0-35.987 1.399c-5.949.875-11.84 2.1-17.672 3.529-5.804 1.4-11.636 2.887-17.585 3.616-6.562.817-13.211.613-19.452-1.72-.525-.146-.758.7-.233.875M299.879 172.325c-.846 2.624-1.721 5.22-2.567 7.844-.204.671-.408 1.313-.204 2.013.292.933 1.283 1.487 1.313 2.537.175-.146.379-.292.554-.409-3.441-1.02-3.325 4.462-3.208 6.387.204 3.82 1.429 7.495 3.47 10.703.292.466 1.05.029.758-.438a21.5 21.5 0 0 1-3.003-7.436c-.292-1.429-1.313-9.303 1.749-8.399.263.088.555-.146.555-.408 0-.7-.263-1.167-.671-1.721-.758-1.079-.7-1.866-.292-3.12.788-2.45 1.604-4.87 2.392-7.32.174-.554-.671-.787-.846-.233"/><path fill="#fff" d="M300.169 172.442c3.296 3.354 4.112 8.807 4.375 13.298.291 4.841-.408 9.682-1.954 14.261-.175.525.671.758.846.233 1.691-4.987 2.391-10.294 1.924-15.544-.379-4.461-1.312-9.565-4.549-12.889-.437-.379-1.05.233-.642.641"/><path fill="#fff" d="M305.394 185.418a57 57 0 0 1 2.945-11.403c-.204.088-.437.175-.641.263.612.408 1.225.846 1.837 1.254.292.204.642-.058.671-.379.262-6.503 5.337-11.49 6.707-17.673h-.845c2.333 14.057-.613 28.696-8.195 40.77-.292.466.466.904.758.437 7.699-12.277 10.644-27.15 8.282-41.44-.058-.438-.758-.408-.845 0-1.4 6.299-6.475 11.286-6.737 17.906.233-.117.437-.263.671-.379-.613-.409-1.225-.846-1.838-1.254-.262-.175-.554.029-.641.262a57 57 0 0 0-2.946 11.403c-.116.554.729.787.817.233"/><path fill="#fff" d="M315.978 159.288a87.3 87.3 0 0 1-8.603 30.941c-.233.496.496.934.759.438 4.812-9.857 7.786-20.472 8.719-31.379.029-.583-.845-.554-.875 0M299.763 173.14c1.195 8.69 2.333 17.556.495 26.217-.116.554.729.788.846.233 1.896-8.836.729-17.847-.496-26.683-.058-.554-.904-.321-.845.233M257.392 202.363c4.491-.349 9.011-.029 13.386 1.05 3.703.904 7.378 2.771 11.256 2.188 3.996-.613 7.349-3.267 11.461-3.412 3.966-.146 7.874 1.224 11.782.087.554-.146.321-.992-.233-.846-4.083 1.167-8.195-.437-12.307-.058-3.733.35-6.853 2.595-10.469 3.324-4.171.817-8.312-1.458-12.336-2.333a42.4 42.4 0 0 0-12.569-.816c-.525-.029-.525.846.029.816M.147 243.246c8.049 7.524 19.714-.613 28.958 2.391.525.175.758-.671.233-.846-4.928-1.604-9.973-.35-14.93.409-4.638.7-9.974.816-13.649-2.596-.408-.35-1.05.263-.612.642"/><path fill="#fff" stroke="#161616" stroke-width="3" d="M347.154 253.894a2586 2586 0 0 1-150.275 5.104 2612 2612 0 0 1-151.354-3.646q7.044-12.379 14.173-24.671a2184 2184 0 0 1 11.578-19.772c41.119 2.333 85.563 3.266 132.894 2.099a1625 1625 0 0 0 125.458-7.961 95.8 95.8 0 0 1 11.111 20.472 97 97 0 0 1 6.415 28.375Z"/><path fill="#161616" d="M67.543 249.403a339.6 339.6 0 0 0 49.926 1.662c.554-.029.554-.904 0-.875a340 340 0 0 1-49.926-1.662c-.555-.058-.555.817 0 .875M97.027 245.206c8.078.32 16.185.116 24.263.116 8.195-.029 16.36-.029 24.555-.058.554 0 .554-.875 0-.875-8.195.029-16.36.029-24.555.058-8.078.03-16.185.205-24.263-.116-.554-.029-.554.846 0 .875M204.841 243.075a3149 3149 0 0 0 74.044-5.6c.554-.058.554-.933 0-.875a3138 3138 0 0 1-74.044 5.6c-.554.029-.554.904 0 .875M269.232 228.085c19.131-.7 38.232-1.895 57.305-3.674.554-.058.554-.933 0-.875a1044 1044 0 0 1-57.305 3.674c-.554 0-.554.875 0 .875M285.97 246.809c16.069-.7 32.137-1.4 48.206-2.129.554-.029.554-.904 0-.875-16.069.7-32.137 1.4-48.206 2.129-.554.029-.554.904 0 .875"/><path fill="#fff" stroke="#161616" stroke-width="3" d="M73.959 209.86c.73 1.37 1.458 2.741 2.216 4.141.671.437 2.946 1.779 5.804 1.254a7.7 7.7 0 0 0 2.741-1.05l2.45-4.287c-1.604-.496-3.966-1.079-6.883-1.05a22.2 22.2 0 0 0-6.328.992Z"/><path fill="#161616" d="M74.455 210.355c2.625 1.633 6.387 1.254 9.332 1.079.554-.029.554-.904 0-.875-2.77.146-6.415.583-8.894-.962-.467-.292-.904.466-.438.758"/><path fill="#161616" d="M67.659 190.7a5152 5152 0 0 1 7.407 19.247c.204.525 1.05.292.846-.233a5221 5221 0 0 1-7.408-19.248c-.204-.525-1.05-.32-.846.234"/><path fill="#161616" d="M71.394 190.847a302 302 0 0 0 4.52 19.568c.146.554.992.321.846-.233a268 268 0 0 1-4.52-19.568c-.117-.554-.963-.321-.846.233"/><path fill="#fff" d="M67.836 187.433c-.438-1.4.729-2.712.408-4.17-.38-1.546-1.896-2.187-1.72-3.966.116-1.225.728-2.392.524-3.646-.145-.787-.641-1.254-.991-1.953-.409-.875-.234-1.692 0-2.596.233-1.021.612-2.129.204-3.179-.204-.554-.612-.816-.962-1.254-.817-.962-.7-1.954-.496-3.12.641-3.616.67-7.087-.263-10.674-.146-.554-.991-.32-.845.234.524 2.041.816 4.112.758 6.211-.059 1.779-.525 3.442-.671 5.191-.117 1.429.35 2.042 1.225 3.062 1.137 1.371.175 2.946-.03 4.491-.058.496-.058 1.021.088 1.517.234.816.963 1.371 1.108 2.245.234 1.4-.641 2.771-.554 4.171.117 1.516 1.692 2.304 1.808 3.762.117 1.37-.875 2.478-.437 3.907.175.525 1.02.292.846-.233M72.064 186.762c-.904-.846.233-1.721-.087-2.713-.175-.554-.759-.962-.788-1.574-.03-.554.35-1.167.438-1.721.145-1.05-.409-1.546-.671-2.508-.35-1.312.437-2.77.67-4.054.175-.991.088-1.837-.262-2.77-.292-.758-.583-1.4-.525-2.216.058-.671.35-1.284.496-1.925.583-2.333-1.487-4.812-.496-6.97.233-.496-.525-.962-.758-.437-1.167 2.478.991 4.841.35 7.407-.32 1.283-.7 2.216-.263 3.529.263.729.642 1.429.671 2.245.058.817-.233 1.604-.437 2.362-.263.992-.554 2.042-.292 3.062.233.846.787 1.488.583 2.421-.116.466-.32.904-.35 1.4-.029.466.03.816.263 1.224.117.205.466.525.496.671.058.234-.146.7-.205.904-.204.904-.145 1.575.554 2.246.409.408 1.021-.204.613-.583M32.747 54.858c5.775 1.808 11.899 1.691 17.877 1.574 5.716-.116 11.402-.495 17.06-1.079 11.286-1.195 22.455-3.324 33.42-6.27 22.193-5.949 43.453-15.164 63.313-26.654 11.256-6.504 22.046-13.736 32.399-21.58.438-.35 0-1.109-.437-.759-18.11 13.736-37.649 25.634-58.413 34.908-20.822 9.303-42.927 16.01-65.587 18.926a192 192 0 0 1-18.751 1.546c-6.824.233-14.028.612-20.618-1.458-.554-.146-.788.67-.263.846"/><path fill="#fff" d="M183.781 10.179c7.786 6.737 16.972 11.548 26.421 15.544a223.5 223.5 0 0 0 31.321 10.586 230.1 230.1 0 0 0 64.799 7.261c12.423-.379 25.401-1.225 37.27-5.19.525-.176.291-1.022-.234-.847-10.556 3.558-21.959 4.462-33.012 5.017a226.5 226.5 0 0 1-32.079-.7c-21.551-1.983-42.81-7.029-62.933-14.99-10.994-4.345-21.871-9.507-30.883-17.293-.495-.38-1.108.233-.67.612"/><path fill="#fff" d="M66.838 25.083c10.703 6.183 23.447 7.7 35.52 8.982 12.424 1.313 24.963 1.663 37.474 1.108 24.672-1.108 49.227-5.774 72.557-13.852a255 255 0 0 0 38.115-16.797c.496-.263.059-1.021-.437-.759-21.493 11.695-44.706 20.18-68.649 25.255-24.001 5.074-48.76 6.708-73.227 4.725-6.941-.555-13.91-1.342-20.764-2.596-7.028-1.283-13.94-3.208-20.151-6.795-.467-.291-.904.467-.438.73"/><path fill="#161616" d="M102.766 44.01v10.877c0 .554.875.554.875 0V44.01c0-.584-.875-.584-.875 0M103.031 62.06v12.743c0 .555.875.555.875 0V62.06c0-.554-.875-.583-.875 0M117.9 74.018V89.94c0 .554.875.554.875 0V74.018c0-.584-.875-.584-.875 0M117.379 102.685v7.699c0 .554.875.554.875 0v-7.699c0-.554-.875-.554-.875 0M147.646 24.353V38.44c0 .554.875.554.875 0V24.353c0-.554-.875-.554-.875 0M147.646 43.455V54.07c0 .554.875.554.875 0V43.455c0-.554-.875-.554-.875 0M272.961 29.66v18.314c0 .554.875.554.875 0V29.66c0-.554-.875-.554-.875 0M272.695 55.148v9.565c0 .554.875.554.875 0v-9.565c0-.554-.875-.554-.875 0M220.643 19.046V30.74c0 .554.874.554.874 0V19.046c0-.554-.874-.584-.874 0M220.934 41.879v10.615c0 .554.874.554.874 0V41.879c0-.555-.874-.555-.874 0M302.18 60.98v10.353c0 .554.875.554.875 0V60.98c0-.554-.875-.554-.875 0M302.445 78.507v8.224c0 .554.875.554.875 0v-8.224c0-.554-.875-.554-.875 0"/><circle cx="103.439" cy="58.909" r="4.841" fill="#5222D0"/><circle cx="118.049" cy="112.715" r="3.325" fill="#5222D0"/><circle cx="148.465" cy="58.708" r="1.575" fill="#5222D0"/><circle cx="222.185" cy="62.5" r="2.216" fill="#5222D0"/><circle cx="222.039" cy="35.172" r="2.041" fill="#5222D0"/><circle cx="117.755" cy="98.224" r="2.275" fill="#EC615B"/><circle cx="147.794" cy="23.07" r="2.246" fill="#EC615B"/><circle cx="147.794" cy="42.927" r="2.246" fill="#EC615B"/><circle cx="221.077" cy="55.21" r="1.108" fill="#EC615B"/><circle cx="273.426" cy="69.352" r="4.637" fill="#EC615B"/><circle cx="303.377" cy="93.527" r="2.216" fill="#EC615B"/><circle cx="273.399" cy="35.172" r="2.041" fill="#EC615B"/><circle cx="273.426" cy="44.008" r="1.575" fill="#5222D0"/><circle cx="302.879" cy="74.192" r="1.575" fill="#5222D0"/><path fill="#fff" d="M81.712 96.854c-1.371 2.157-2.742 4.286-4.112 6.444-1.08 1.692-2.158 3.471-2.537 5.483-.613 3.47 1.72 5.803 3.703 8.311 1.137 1.429 2.187 3.062 1.691 4.929-.437 1.691-1.837 3.149-1.633 5.016.088.787.496 1.4.846 2.07.583 1.167.992 2.421 1.138 3.704a10.78 10.78 0 0 1-1.546 6.824c-.292.496.466.933.758.437 1.925-3.178 2.304-7.174.817-10.615-.525-1.225-1.4-2.216-1.021-3.674.262-.963.816-1.808 1.196-2.712.554-1.371.612-2.742.029-4.112-1.312-3.091-4.958-5.104-5.191-8.691-.146-2.42 1.283-4.637 2.508-6.59a1204 1204 0 0 1 4.112-6.445c.291-.409-.467-.846-.758-.38M135.575 129.892a10.22 10.22 0 0 0-2.887 8.312c.175 1.604.817 2.945 1.575 4.374 1.137 2.158 1.4 3.791.525 6.066-.525 1.342-1.196 2.712-1.021 4.17.175 1.663 1.458 2.537 2.246 3.908 1.662 2.975-1.692 6.095-.905 9.274.146.554.992.321.846-.234-.729-2.857 2.012-5.395 1.313-8.282-.35-1.4-1.488-2.274-2.188-3.47-.991-1.691-.058-3.47.554-5.133.496-1.312.846-2.624.554-4.024-.379-1.721-1.545-3.121-2.158-4.754-1.224-3.295-.291-7.115 2.158-9.594.409-.408-.204-1.021-.612-.613M324.898 136.248c-2.916 3.412-5.745 7.815-5.453 12.51.145 2.246 1.137 4.054 2.362 5.891 1.429 2.129 2.654 4.141 1.954 6.795-.934 3.47-4.375 6.941-3.179 10.761.729 2.333 3.062 3.616 3.616 6.066.642 2.916-.7 5.978-1.895 8.574-.234.495.524.962.758.437.991-2.158 1.954-4.403 2.129-6.795.175-2.274-.584-4.083-1.983-5.832-1.663-2.012-2.421-3.733-1.546-6.27.671-1.954 1.866-3.704 2.595-5.629.7-1.808.875-3.674.117-5.511-.787-1.925-2.245-3.412-3.179-5.25-2.624-5.249.904-11.14 4.316-15.106.38-.437-.233-1.05-.612-.641M333.093 167.307a8.86 8.86 0 0 0-2.742 5.366c-.32 2.479.613 4.199 1.604 6.357 1.225 2.654-1.166 5.046-.525 7.729.35 1.458 1.138 2.566 1.109 4.112a6.29 6.29 0 0 1-1.808 4.199c-.38.408.233 1.021.612.612 1.487-1.516 2.275-3.587 2.012-5.716-.146-1.224-.816-2.274-1.079-3.47-.379-1.604.496-3.062.817-4.578.554-2.567-1.196-4.083-1.75-6.416-.671-2.771.292-5.687 2.362-7.612.438-.35-.175-.962-.612-.583M251.992 85.975c-1.662 2.566-3.499 5.6-2.537 8.778.467 1.545 1.75 2.187 2.45 3.528.671 1.342.029 2.917-.438 4.2-.67 1.837-1.604 4.083.088 5.657.671.613 1.487.963 1.779 1.925.233.788.029 1.721-.117 2.479-.291 1.4-.7 2.8-.525 4.229.059.554.933.554.875 0-.262-2.392 1.487-5.075.467-7.379-.584-1.341-2.392-1.72-2.567-3.237-.145-1.137.467-2.391.846-3.441.729-2.012 1.254-4.024-.321-5.774-1.458-1.604-2.216-3.15-1.749-5.366.379-1.895 1.487-3.587 2.537-5.19.291-.468-.467-.905-.788-.41"/><path fill="#5222D0" d="M132.104 55.18c-1.721 1.195-2.012 3.324-.817 4.986 1.079 1.458-.583 2.129-.262 3.5.116.495.525.787.758 1.224.583 1.08-.087 2.217-.642 3.18-.291.495.467.932.759.437.525-.904 1.108-1.954 1.02-3.033-.029-.496-.233-.817-.437-1.254-.146-.263-.321-.35-.438-.671-.145-.554.059-.67.321-1.196.379-.729.525-1.341.117-2.1-.379-.7-.992-1.108-1.05-1.983a2.68 2.68 0 0 1 1.137-2.362c.438-.291 0-1.05-.466-.729M90.373 77.049c-.554.612-.904 1.283-.962 2.1-.059.933.7 1.895.291 2.741-.291.612-.612.846-.554 1.604.059.787 1.37 2.945.175 3.412-.525.204-.291 1.05.234.846 1.458-.554 1.166-2.1.758-3.296-.321-.933-.059-1.4.35-2.274.087-.204.233-.35.262-.584.058-.466-.204-.729-.379-1.108-.466-1.02-.35-2.012.408-2.829.409-.408-.233-1.05-.583-.612M313.525 86.121c-1.167-.087-2.012.788-2.187 1.925-.263 1.662 1.108 2.829 1.808 4.17.466.934.291 1.663 0 2.567-.146.466-.321.32-.35.845-.029.438.146.758.437 1.08.788.903 1.429 1.312 1.342 2.653-.088 1.196-.642 2.333-1.167 3.354-.262.496.496.933.758.437.613-1.166 1.225-2.449 1.284-3.79.087-1.313-.438-1.896-1.138-2.888-.233-.146-.321-.38-.291-.7-.234-.35-.175-.642.116-.904.059-.262.204-.467.263-.758.116-.613 0-1.225-.234-1.837-.233-.642-.641-1.167-1.02-1.721-.321-.467-.7-.992-.846-1.546-.233-.845 0-2.129 1.254-2.041.525.088.525-.787-.029-.846"/><path fill="#161616" stroke="#161616" stroke-width="3" d="M223.268 244.733a93 93 0 0 1-13.94 1.079c-1.837 26.742-1.575 40.302.817 40.682 2.012.32 5.541-8.72 10.557-27.122 6.911-1.72 13.852-3.441 20.763-5.161.7-6.766-.874-9.391-2.449-10.586-2.916-2.188-6.999-.263-15.748 1.108Z"/><path fill="#EC615B" d="M195.067 197.343c-4.841 4.404-3.179 16.36 4.024 28.871a38 38 0 0 1 7.524-.117c1.313.117 5.425.525 15.923 4.346 2.187.816 5.22 1.953 8.836 3.499-2.828.758-5.657 1.517-8.515 2.275a75 75 0 0 0 1.954 11.432 76.3 76.3 0 0 0 7.407 18.634c6.562-1.924 11.928-3.82 15.806-5.22 9.303-3.412 14.232-5.861 18.956-9.157 5.045-3.528 7.699-6.503 8.516-10.236.466-2.158.204-4.024.116-4.695-.583-3.616-2.595-6.066-4.695-8.399-4.608-5.162-6.912-7.728-10.674-10.586-8.602-6.503-16.447-9.915-25.167-13.619-6.736-2.858-11.227-4.753-17.76-6.328-10.44-2.421-18.285-4.316-22.251-.7"/><path fill="#EC615B" d="M215.217 197.898a172 172 0 0 1 25.605 9.769c7.261 3.441 14.552 7.262 20.851 12.307 2.917 2.333 5.629 4.928 7.991 7.844 2.566 3.179 5.891 7.466 5.832 11.753-.058 3.995-3.849 7.641-6.62 10.149-2.945 2.653-6.299 4.753-9.857 6.474-8.69 4.199-18.314 5.92-27.121 9.857-.525.233-.058.991.438.758 8.457-3.791 17.672-5.512 26.1-9.39 3.558-1.634 6.97-3.646 10.003-6.183 2.829-2.362 6.037-5.483 7.407-8.982 1.488-3.791-.525-7.699-2.537-10.849-2.187-3.441-4.841-6.561-7.845-9.332-5.949-5.511-13.035-9.594-20.238-13.21-9.537-4.812-19.51-8.778-29.775-11.782-.555-.175-.788.642-.234.817"/><path fill="#EC615B" d="M246.043 229.538c-3.879 1.108-7.786 2.217-11.665 3.325-3.82 1.079-7.728 2.041-11.461 3.383-.525.204-.292 1.05.233.845 3.733-1.37 7.641-2.303 11.461-3.382 3.879-1.109 7.787-2.217 11.665-3.325.525-.146.292-.992-.233-.846"/><path fill="#EC615B" d="M222.567 236.303c.962 10.586 3.908 20.938 8.982 30.3.263.495 1.021.058.758-.438-4.986-9.215-7.903-19.422-8.865-29.833-.029-.583-.904-.583-.875-.029M231.489 233.942c-10.12-5.803-21.61-8.836-33.304-8.37-.554.029-.554.904 0 .875 11.519-.496 22.864 2.508 32.837 8.253.525.263.963-.496.467-.758"/><path fill="#3D3D3D" d="M197.604 207.814c2.712.613 6.678 1.634 11.373 3.179 3.47 1.138 10.032 3.441 25.109 11.053a498 498 0 0 1 19.481 10.382c-9.828 4.345-19.656 8.69-29.484 13.006-.525-3.004-1.079-5.978-1.604-8.982 2.537-.816 5.075-1.604 7.612-2.42-3.879-2.129-9.362-4.637-16.244-6.212a63 63 0 0 0-14.64-1.604 4142 4142 0 0 1-1.603-18.402" opacity=".11"/><path fill="#3D3D3D" d="M199.178 226.098c4.637-.817 12.161-1.575 21.084.233 7.699 1.546 13.59 4.433 17.41 6.678-4.811 2.742-9.594 5.454-14.406 8.195-.321-1.604-.612-3.237-.933-4.841 2.566-.816 5.132-1.604 7.728-2.42a66 66 0 0 0-13.007-5.308c-7.028-2.012-13.239-2.537-17.876-2.537" opacity=".11"/><path fill="#161616" stroke="#161616" stroke-width="3" d="M161.299 254.154c4.345 1.516 8.69 3.033 13.006 4.549.904 18.752 2.217 28.171 3.908 28.229 2.071.088 4.724-13.443 7.991-40.623-6.912-1.662-13.794-3.354-20.706-5.016q-2.055 6.43-4.199 12.861Z"/><path fill="#EC615B" d="M199.151 226.13a136.5 136.5 0 0 0-2.158-20.385c-1.954-10.703-3.646-12.394-5.133-13.094-3.237-1.487-6.533 1.371-14.756 5.133-6.737 3.091-5.862 1.779-17.41 6.124-8.458 3.179-18.665 7.553-29.513 13.91-2.333 1.371-7.816 4.666-13.094 10.616-4.958 5.57-5.308 8.515-5.308 9.944 0 1.458.35 4.724 5.133 9.624 5.628 5.745 11.986 8.224 30.329 14.085 5.045 1.604 9.653 3.062 13.765 4.316a153 153 0 0 0 5.132-10.761c3.442-8.049 4.171-11.84 4.462-13.764.321-2.129.467-3.908.496-5.133-2.975-.787-5.978-1.546-8.953-2.333a64.5 64.5 0 0 1 12.598-5.483 65.9 65.9 0 0 1 24.41-2.799"/><path fill="#EC615B" d="M163.02 234.644c1.283.291 2.595.583 3.879.875 1.283.291 2.741.437 3.82 1.254.437.35.875-.409.437-.759-1.02-.787-2.274-.962-3.499-1.224-1.458-.321-2.946-.671-4.404-.992-.554-.117-.787.729-.233.846"/><path fill="#EC615B" d="M179.437 197.142c-12.773 3.354-25.196 7.903-37.153 13.531-6.299 2.975-12.394 6.591-17.906 10.849-6.124 4.724-17.089 14.494-11.198 23.067 2.712 3.937 6.824 6.854 10.906 9.216 3.325 1.954 6.854 3.587 10.441 4.957 2.099.788 4.286 1.371 6.445 2.042a1175 1175 0 0 1 19.655 6.153c.525.175.758-.671.233-.846-5.395-1.749-10.79-3.47-16.214-5.103-2.829-.875-5.716-1.604-8.515-2.596-6.883-2.362-13.969-5.92-19.248-10.935-1.72-1.634-3.499-3.558-4.141-5.862-.816-2.858.204-5.716 1.633-8.166 2.304-3.966 5.716-7.261 9.245-10.148 5.657-4.608 12.044-8.428 18.635-11.578a209 209 0 0 1 37.474-13.677c.495-.204.262-1.05-.292-.904"/><path fill="#EC615B" d="M144.852 230.476c4.345 1.108 8.72 2.216 13.065 3.295 4.287 1.079 8.661 2.012 12.861 3.412.524.175.758-.67.233-.845-4.2-1.371-8.574-2.304-12.861-3.412a2063 2063 0 0 0-13.065-3.296c-.554-.116-.787.729-.233.846"/><path fill="#EC615B" d="M170.514 236.423c-1.079 10.556-4.433 20.793-9.945 29.833-.291.496.467.933.759.437 5.599-9.215 8.982-19.597 10.061-30.3.058-.554-.817-.524-.875.03M161.882 234.793c11.403-5.833 24.088-8.72 36.891-8.253.554.029.554-.846 0-.875-12.948-.496-25.809 2.45-37.328 8.37-.496.262-.059 1.02.437.758"/><path fill="#3D3D3D" d="M193.057 210.209c-12.54 6.095-20.793 10.382-24.497 12.16a743 743 0 0 1-28.492 12.745c7.058-.788 13.94 2.478 17.527 8.369 4.054 6.649 3.208 15.456-2.187 21.522 1.866.671 3.733 1.342 5.57 1.983a68.6 68.6 0 0 0 4.578-8.573c3.792-8.428 5.337-16.244 5.979-22.31-2.654-.875-5.308-1.72-7.962-2.595a85 85 0 0 1 7.758-2.975c10.498-3.441 20.151-4.258 27.85-4.141-.087-2.1-.204-4.229-.35-6.416-.292-4.17-.729-8.165-1.225-11.957-1.05.496-2.624 1.284-4.549 2.188" opacity=".13"/><path fill="#3D3D3D" d="M198.157 225.634c-.029-.379-7.524-1.05-16.593.233a74.3 74.3 0 0 0-23.505 7.495c2.653 1.983 5.307 3.995 7.961 5.979-1.429 8.719-2.829 17.439-4.258 26.158 2.946-4.841 6.27-11.606 8.195-20.151a64 64 0 0 0 1.371-9.449c-.788-.233-1.604-.466-2.421-.7a91 91 0 0 0-5.541-1.37 91 91 0 0 1 5.891-2.421c15.835-5.891 28.9-5.307 28.9-5.774" opacity=".15"/><path fill="#fff" d="M220.439 129.393c1.487-.496 3.732 1.808 5.074 3.15a18.8 18.8 0 0 1 3.558 5.074c3.966 8.224 3.266 4.957 6.62 12.598 4.112 9.42 6.911 18.314 6.911 18.314 1.371 4.345 2.217 7.582 4.87 11.578 3.004 4.491 5.483 5.686 6.504 6.095 3.383 1.4 6.59.787 8.019.408a68 68 0 0 0 3.558-3.762c1.662-1.896 2.362-2.916 3.675-3.062.291-.029 1.633-.175 2.333.612.321.35.379.729.7.817.408.117.816-.35 1.312-.817.204-.204 1.546-1.458 2.945-2.041.729-.321 2.129-.729 2.538-.204s-.496 1.633-.088 2.041c.408.409 1.4-.525 2.45-.087.583.262 1.079.904 1.108 1.516.058.758-.583.933-.7 1.925-.117.816.262.962.204 1.633-.117 1.021-1.05 1.167-2.333 2.654-.729.846-.525.904-1.837 2.858-.496.729-1.137 1.691-1.633 2.245-1.925 2.158-5.191 2.333-6.912 2.45-3.324.175-5.949-.817-7.436-1.516-.992.699-2.508 1.574-4.462 2.245-5.045 1.662-9.478.496-11.286 0-7.203-2.012-11.432-7.466-14.231-11.198-4.171-5.541-5.687-10.353-8.428-19.102-.846-2.654-3.383-11.082-4.375-22.368-.408-5.132-1.079-13.24 1.342-14.056"/><path fill="#161616" d="M221.255 130.444c2.566.845 4.345 2.916 5.832 5.103 1.546 2.246 2.917 4.608 4.229 7.028 2.654 4.958 4.87 10.12 6.941 15.34 2.099 5.249 4.024 10.557 5.978 15.835 1.575 4.2 3.47 8.661 7.116 11.461 3.383 2.596 8.194 3.675 11.986 1.312.466-.291.029-1.049-.438-.758-4.024 2.508-9.215.758-12.336-2.42-3.558-3.675-5.074-8.778-6.795-13.444-3.645-9.974-7.378-20.123-12.598-29.425-2.275-4.054-4.957-9.303-9.682-10.878-.525-.175-.758.671-.233.846"/><path fill="#161616" d="M220.962 158.703c2.596 8.982 4.783 18.372 10.12 26.188 4.403 6.474 10.936 11.635 18.955 12.277 4.345.35 8.749-.7 12.249-3.325.437-.32 0-1.108-.438-.758-4.083 3.092-9.361 3.879-14.319 2.858-4.899-1.02-9.128-3.849-12.481-7.465-7.612-8.253-10.149-19.51-13.182-29.98-.204-.554-1.05-.32-.904.205M263.423 186.638c1.225-1.721 2.362-3.704 3.849-5.191.875-.875 2.304-1.75 3.558-1.05 1.079.613 1.167 2.012.525 2.946-.321.466.438.904.758.437 1.371-1.954-.058-4.578-2.449-4.462-1.429.088-2.596.992-3.471 2.071-1.254 1.516-2.333 3.208-3.499 4.812-.35.437.408.874.729.437"/><path fill="#161616" d="M267.476 182.819c-.642 1.283.146 2.77 1.575 3.004 1.72.262 2.974-1.196 3.266-2.742.117-.554-.729-.787-.846-.233-.175.933-.671 1.896-1.691 2.1-.963.204-2.042-.642-1.546-1.662.233-.525-.525-.963-.758-.467M261.705 194.103c3.354.67 6.533 2.216 10.003 1.487 2.8-.583 5.191-2.304 6.737-4.666.321-.467-.438-.904-.758-.437-1.517 2.303-3.908 3.907-6.65 4.345-3.149.496-6.095-.963-9.127-1.575-.525-.087-.759.758-.205.846"/><path fill="#161616" d="M269.957 184.946c-.933.554-.816 1.838-.029 2.508.671.554 1.575.467 2.391.467 1.4-.029 2.567.204 3.791.904.496.262.934-.467.438-.758-.904-.525-1.867-.875-2.916-.992-.496-.058-.992-.029-1.517-.029-.321 0-.641.029-.933-.029-.35-.088-1.487-.875-.787-1.283.466-.321.029-1.079-.438-.788"/><path fill="#161616" d="M270.538 185.326c2.188-1.254 4.87-.992 6.737.729.408.379 1.021-.233.612-.613-2.158-1.983-5.249-2.333-7.786-.874-.496.291-.058 1.049.437.758M272.436 181.77c.962-.7 1.895-1.37 2.858-2.07.408-.292.787-.584 1.225-.846.291-.175.583-.35.904-.467 1.37-.466 1.691.205.933 2.013-.525.175-.292 1.02.233.845 1.575-.554 2.129-2.683.496-3.587-.904-.525-1.983-.145-2.8.321-1.487.846-2.858 2.041-4.257 3.033-.496.35-.059 1.108.408.758"/><path fill="#161616" d="M274.3 184.103c1.167-.729 2.333-1.487 3.5-2.216.524-.321 1.049-.7 1.633-.963.437-.233.904-.32 1.399-.32 1.021 0 1.4.612 1.138 1.808-.35.437.262 1.05.612.612 1.108-1.4.117-3.12-1.575-3.266-1.108-.117-2.099.437-3.003.991-1.4.846-2.771 1.75-4.141 2.625-.496.263-.059 1.021.437.729"/><path fill="#161616" d="M277.713 185.472a45 45 0 0 1 2.362-1.225c.262-.146 1.137-.67 1.4-.612.729.146.233.875.058 1.166-.292.467.467.934.758.438.467-.758.875-2.246-.379-2.479-.671-.146-1.4.321-1.983.612-.904.438-1.808.875-2.683 1.371-.467.262 0 1.021.467.729"/><path fill="#161616" d="M276.49 185.268c2.099 1.166 2.508 3.762.845 5.511-.379.409.234 1.021.613.613 2.041-2.129 1.575-5.454-1.021-6.883-.466-.262-.933.496-.437.759"/><path fill="#161616" d="M281.853 184.945a16.3 16.3 0 0 1-3.207 3.121c-.438.321-.03 1.079.437.758a17.2 17.2 0 0 0 3.412-3.266c.321-.438-.292-1.05-.642-.613M267.681 188.36c1.837.146 3.558.729 5.104 1.75.466.321.904-.438.437-.759-1.691-1.079-3.529-1.691-5.541-1.866-.554-.029-.554.846 0 .875"/><path fill="#3D3D3D" d="M217.492 136.449c.525 3.733 1.371 8.982 2.625 15.281.816 4.083 1.4 7.087 2.479 11.082 1.633 6.066 2.974 11.17 6.124 17.09 2.07 3.878 3.47 6.532 6.386 9.39 2.071 2.012 7.495 7.32 15.661 7.436 4.987.059 8.924-1.837 11.227-3.266a14.65 14.65 0 0 0 6.795 1.837c1.429.03 4.112.059 6.649-1.691.875-.612 3.208-2.187 3.383-4.841.029-.408.146-2.625-1.429-3.791-1.75-1.283-4.607-.525-4.841.379-.204.846 1.896 1.546 1.837 2.741-.087 1.517-3.528 2.45-4.17 2.625-20.53 5.541-31.583-3.645-31.583-3.645-3.354-2.8-5.133-5.833-9.274-16.186-3.412-8.515-7.699-20.151-11.869-34.441" opacity=".09"/><path fill="#fff" d="M134.179 192.386c1.341.991 4.899 3.295 9.769 3.266 4.55-.029 7.757-2.1 9.566-3.266 3.003-1.925 4.724-4.054 6.299-6.095 4.899-6.212 6.853-12.686 8.253-17.381 1.254-4.2.758-3.966 1.954-7.612 2.245-6.824 4.17-8.369 6.095-13.24 3.178-8.049 3.382-17.643.874-18.693-1.166-.466-2.887.904-6.299 3.704-1.02.845-2.828 2.333-4.724 4.637-1.516 1.866-4.17 5.541-7.116 14.318-2.391 7.174-1.866 8.341-4.695 16.273-1.75 4.929-2.858 6.941-4.199 8.778-1.517 2.042-4.025 5.366-8.574 7.116-3.47 1.341-6.591 1.166-8.311.933-.234-1.166-1.021-4.374-3.733-5.949-.671-.408-2.304-1.342-3.471-.642-.67.409-.904 1.167-.991 1.575-1.283-1.808-2.683-2.595-3.471-2.945-.758-.321-2.303-1.021-2.945-.379-.583.583-.058 1.924 0 2.099-.816-.437-1.75-.379-2.42.117-.496.379-1.05 1.137-.846 1.954.146.554.583.904.729.991-.175.496-.321 1.254-.058 2.042.145.408.32.67 1.37 1.837 1.342 1.516 1.371 1.458 1.633 1.837.729 1.079.584 1.662 1.05 2.625.817 1.779 2.567 2.624 3.15 2.887 1.866.904 3.587.671 6.416.262a23 23 0 0 0 4.695-1.049"/><path fill="#161616" d="M176.899 128.578c-4.462 2.245-8.486 5.337-11.607 9.273s-5.278 8.487-6.911 13.211c-1.633 4.783-2.8 9.711-4.054 14.581-1.195 4.725-3.208 9.624-6.357 13.386-3.675 4.404-9.391 6.095-14.961 5.454-.554-.059-.554.816 0 .874 4.404.496 8.982-.35 12.628-2.945 3.849-2.741 6.27-7.32 7.99-11.636 1.838-4.578 2.654-9.565 3.996-14.29 1.429-5.103 3.178-10.177 5.978-14.698 3.324-5.395 8.078-9.594 13.736-12.423.524-.291.058-1.05-.438-.787"/><path fill="#161616" d="M170.631 157.215c-2.654 10.091-4.812 20.968-11.461 29.338-2.887 3.616-6.649 6.707-11.198 7.932-4.725 1.283-9.828.554-13.649-2.595-.437-.35-1.049.262-.612.612 5.803 4.783 14.086 4.287 20.151.204 6.649-4.462 10.586-11.986 13.153-19.364 1.808-5.191 3.062-10.586 4.462-15.893.145-.555-.7-.788-.846-.234M133.474 184.921c-1.02-1.575-1.983-3.237-3.12-4.724-.787-1.05-1.837-2.042-3.237-2.158-2.421-.146-3.47 2.624-2.304 4.462.292.466 1.05.029.758-.438-.554-.875-.525-2.333.467-2.945 1.4-.875 2.829.554 3.587 1.545 1.137 1.488 2.07 3.121 3.091 4.696.292.466 1.05.029.758-.438"/><path fill="#161616" d="M128.343 182.004c.466.992-.496 1.983-1.517 1.633-.846-.291-1.225-1.254-1.37-2.07-.088-.554-.934-.321-.846.233.262 1.458 1.312 2.975 2.974 2.771 1.429-.175 2.071-1.779 1.517-3.004-.233-.525-.992-.088-.758.437M134.088 192.006c-2.683.583-5.308 2.012-8.107 1.575-2.654-.408-4.87-2.1-6.212-4.345-.291-.496-1.05-.029-.758.437 1.371 2.304 3.529 4.054 6.182 4.666 3.208.729 6.066-.816 9.128-1.487.554-.117.321-.962-.233-.846"/><path fill="#161616" d="M126.39 184.427c.205.146.234.438.146.642-.175.583-.816.641-1.341.7-.554.029-1.108-.059-1.692 0-.991.116-1.895.466-2.741.991-.467.292-.029 1.05.437.759 1.079-.671 2.158-.934 3.442-.904.758.029 1.545.087 2.158-.438.787-.641.875-1.954 0-2.508-.438-.292-.875.467-.409.758"/><path fill="#161616" d="M126.711 183.318c-2.303-1.488-5.22-1.08-7.144.874-.409.409.233 1.021.612.613 1.662-1.662 4.083-2.012 6.095-.729.467.291.904-.467.437-.758M125.077 179.816c-1.196-.963-2.362-1.983-3.616-2.858-.758-.525-1.721-1.05-2.654-.7-1.837.671-1.458 3.12.146 3.733.525.204.758-.642.233-.846q-1.618-1.924.263-1.75.699-.35 1.224.088c.496.233.963.729 1.4 1.05.788.641 1.604 1.283 2.392 1.924.408.321 1.049-.291.612-.641"/><path fill="#161616" d="M123.269 182.091c-1.254-.875-2.508-1.779-3.762-2.625-.816-.554-1.72-1.079-2.712-.992-1.574.146-2.537 1.867-1.574 3.208.32.438 1.079 0 .758-.437-.642-1.167-.117-1.779 1.516-1.837a4.3 4.3 0 0 1 1.05.466c.408.234.787.525 1.167.788l3.149 2.187c.438.321.875-.438.408-.758"/><path fill="#161616" d="M120.149 183.463a25 25 0 0 0-2.45-1.37c-.554-.292-1.312-.817-1.983-.584-1.05.379-.641 1.779-.233 2.479.262.496 1.021.058.758-.437-.087-.175-.408-.7-.321-.904.117-.292.584-.117.788-.059.233.059.466.234.7.35.787.409 1.545.846 2.303 1.313.467.262.934-.496.438-.788"/><path fill="#161616" d="M120.439 183.259c-2.45 1.516-2.771 4.753-.934 6.882.38.438.992-.204.613-.612-1.458-1.692-1.196-4.316.758-5.512.467-.291.029-1.05-.437-.758"/><path fill="#161616" d="M115.309 184.219a16.5 16.5 0 0 0 3.091 3.295c.438.35 1.05-.262.613-.612a15 15 0 0 1-2.946-3.12c-.35-.467-1.108-.03-.758.437M128.869 186.233c-1.837.175-3.557.788-5.074 1.867-.466.32-.029 1.079.438.758 1.399-.992 2.916-1.604 4.636-1.75.584-.058.584-.933 0-.875"/><path fill="#3D3D3D" d="M175.443 140.184c-3.646 8.865-6.445 16.01-8.224 20.676-4.17 10.848-5.337 14.64-9.274 19.626-3.354 4.229-7.32 9.507-14.027 10.528-4.2.642-7.757-.642-9.828-1.575-.525.409-4.52 3.266-8.399 1.75-2.158-.846-4.287-3.033-3.849-4.374.437-1.371 3.353-1.284 3.324-1.925-.029-.525-2.041-1.254-3.849-.7-.263.087-2.042.671-2.625 2.275-.758 2.129 1.225 4.316 1.75 4.899 2.683 2.975 6.795 2.829 7.524 2.8 2.945-.088 5.103-1.4 6.124-2.1 1.312 1.108 3.616 2.741 6.824 3.324 5.92 1.109 10.703-2.216 13.327-3.849 7.495-4.754 10.324-12.336 12.628-18.052 1.108-2.77 1.604-4.578 4.316-15.631 1.691-6.999 3.149-13.006 4.258-17.672" opacity=".17"/><path fill="#3D3D3D" d="M116.563 179.086c.992-.175 2.275 2.45 3.15 4.55-.438 2.245-.992 2.741-1.4 2.799-1.166.205-3.149-2.653-2.8-5.249.03-.204.263-1.954 1.05-2.1" opacity=".17"/><path fill="#fff" stroke="#161616" stroke-width="3" d="M176.58 128.786c-5.512 6.328-5.629 14.144-5.658 27.85-.029 16.594 2.946 30.563 6.124 40.974a70.5 70.5 0 0 0 20.152 2.945 69.2 69.2 0 0 0 19.918-2.945 195 195 0 0 0 3.616-19.014c3.82-27.092 6.328-44.911-3.616-53.659-10.032-8.807-31.117-6.97-40.536 3.849Z"/><path fill="#3D3D3D" d="M203.905 119.891a49.3 49.3 0 0 1 3.966 11.577c.963 4.608 2.45 14.844-5.978 40.332A233 233 0 0 1 190.49 200a66 66 0 0 0 7.408.35 71.5 71.5 0 0 0 19.159-2.712 563 563 0 0 0 4.871-27.121c1.341-8.632 2.274-15.923 1.983-25.138-.35-11.665-2.333-15.048-3.442-16.623-4.753-6.941-13.327-8.457-16.564-8.865" opacity=".1"/><path fill="#3D3D3D" d="M223.444 137.24a232 232 0 0 0-5.074 17.731c-2.333 9.536-2.683 13.532-3.966 18.635-1.721 6.649-5.308 16.039-13.736 26.771 2.77.088 6.474-.116 10.673-1.254a36 36 0 0 0 5.775-2.158 1315 1315 0 0 0 3.966-22.776c2.07-12.365 2.799-17.468 2.887-24.234a112 112 0 0 0-.525-12.715" opacity=".13"/><path fill="#fff" stroke="#161616" stroke-width="3" d="M190.956 113.006c-.962 1.312-.495 2.508-.699 7.407a77 77 0 0 1-.7 7.407c.991.7 3.791 2.479 7.757 2.479 4.666 0 7.786-2.45 8.632-3.179-.379-1.05-.846-2.624-1.225-4.578-1.079-5.57.029-7.291-1.225-9.186-2.245-3.354-10.236-3.5-12.54-.35Z"/><path fill="#fff" stroke="#161616" stroke-width="3" d="M179.147 97.29c-.117 4.141.816 7.233 1.574 9.712 1.138 3.645 2.392 7.728 6.008 11.46 3.15 3.267 6.824 4.958 9.711 5.833 2.216-.904 5.862-2.741 9.186-6.357 3.616-3.937 4.987-7.933 6.008-10.936.875-2.596 2.362-7.291 1.75-13.415-.438-4.287-.904-8.924-4.579-12.511-5.424-5.278-13.356-3.908-14.465-3.704-7.699 1.43-11.577 7.524-12.51 9.186-2.508 4.258-2.625 8.429-2.683 10.732Z"/><path fill="#161616" d="M194.458 100.469a38 38 0 0 0 1.079 11.052c.087.292.525.438.729.204.67-.787 1.108-1.633 1.312-2.653.117-.554-.729-.788-.846-.234a4.7 4.7 0 0 1-1.079 2.275c.234.058.496.117.729.204-.874-3.558-1.195-7.174-1.049-10.819 0-.584-.875-.584-.875-.029M200.58 101.75c2.07 2.188 6.24 2.8 7.349-.729.175-.525-.671-.758-.846-.233-.904 2.887-4.287 1.983-5.862.321-.437-.379-1.05.233-.641.641M185.97 107.405c0-.087-.029.029-.058.029-.029.029-.088.029-.146.029-.087-.175-.204-.35-.291-.525.029-.029.029-.058.058-.087-.233.058-.379.292-.292.525.059.233.321.379.525.292.263-.088.438-.263.554-.525.088-.205-.087-.496-.291-.525-.38-.088-.817.116-.904.525-.03.233.058.495.291.525.233.116.525 0 .554-.263M190.286 106.269q-.088.655-.35.087c-.321-.262-.263-.379.175-.321a.47.47 0 0 0-.613.146c-.116.204-.058.496.146.612.496.292 1.108-.349.729-.816s-1.137-.058-.991.496c.058.233.32.379.525.291.32 0 .437-.262.379-.495M188.711 109.303q0 .088-.088.175c.058-.058-.058.029-.029 0-.088.029.029-.029 0 0h-.11699999999999999c-.029 0-.029-.029-.058-.029.029.029.029 0-.029-.029a.31.31 0 0 1-.029-.408c.116-.117.32-.059.379.058-.117-.204-.379-.263-.613-.146-.204.117-.291.408-.146.613a.616.616 0 0 0 .846.204.584.584 0 0 0 .233-.817c-.349-.554-1.283-.233-1.283.379 0 .234.204.438.438.438.291 0 .496-.175.496-.438M203.555 105.599c.204.029.321.145.35.291.029.175-.088.292-.35.379-.088-.029-.146-.029-.233-.058q-.219-.13-.088-.35c.146-.233.583-.146.496.175.058-.233-.058-.496-.292-.525-.233-.058-.466.059-.525.292-.116.408.234.846.671.787a.626.626 0 0 0 .496-.816.535.535 0 0 0-.496-.379.54.54 0 0 0-.437.262c-.175.321.058.846.466.817.234-.03.438-.175.438-.438-.059-.204-.234-.466-.496-.437M206.851 105.92c.029-.029.029 0 0 0l-.146.146a3.6 3.6 0 0 1-.496-.204v-.234c0-.029.029-.029.029-.058l.146-.146c.175.059.321.117.496.204v.234-.029c.058-.234-.059-.496-.292-.525-.233-.059-.467.058-.525.291-.146.583.729.933.992.35.116-.233 0-.525-.234-.641a.51.51 0 0 0-.7.175c-.145.204-.029.495.146.612.204.117.467 0 .584-.175M205.246 108.806c-.029-.088 0 0-.029.029 0 .029-.087.087 0 .029l-.7-.087c-.175-.263.146-.496.379-.38a.467.467 0 0 0-.612.146c-.117.204-.058.496.146.613.233.116.525.087.7-.117a.61.61 0 0 0 .087-.729c-.146-.233-.495-.292-.7-.088-.204.205-.291.525-.204.788.088.233.292.379.525.291.321 0 .496-.262.408-.495M192.529 113.94c2.071 2.158 5.366 2.099 7.32-.204.35-.438-.262-1.05-.612-.613-1.633 1.925-4.316 2.042-6.095.204-.379-.408-.992.204-.613.613M187.165 96.27c.875-.963 2.1-1.371 3.383-1.109.554.117.788-.729.233-.846-1.574-.32-3.149.146-4.228 1.342-.379.408.233 1.02.612.612M200.875 94.489c1.341-.146 2.566.175 3.645.962.466.321.904-.437.437-.758a5.7 5.7 0 0 0-4.082-1.08c-.555.06-.555.934 0 .876M185.59 102.012c2.07 2.187 6.241 2.8 7.349-.729.175-.525-.671-.758-.846-.233-.904 2.887-4.287 1.983-5.862.321-.408-.409-1.05.233-.641.641"/><path fill="#5222D0" d="M195.213 83.698a71 71 0 0 0 6.911 7.203 74.5 74.5 0 0 0 10.557 7.991 33.1 33.1 0 0 1-2.712 11.169c-1.954 4.491-4.549 7.612-6.328 9.507-.175 1.4-.234 3.791.904 6.183 2.654 5.57 10.294 8.078 16.156 6.182.7-.233 5.628-1.895 7.232-6.328.438-1.225.671-2.712 0-6.649-.962-5.687-2.654-9.857-3.149-11.14-1.4-3.558-3.208-8.69-4.841-15.398-.525-2.333-2.683-10.703-10.266-15.544-1.983-1.283-6.24-3.995-11.606-3.179-2.333.35-4.141 1.254-5.279 1.954-2.449.204-6.824.904-11.023 3.937-9.507 6.824-9.245 19.131-9.216 20.385a57 57 0 0 1-1.662 6.649c-2.158 6.766-3.966 7.611-4.374 11.782-.117 1.05-.642 6.357 2.858 10.702.729.904 2.974 3.617 6.794 4.375 5.075 1.021 10.528-1.837 12.774-6.328 1.254-2.508 1.225-4.929 1.108-6.212-.846-.758-8.632-7.816-7.699-18.81 1.05-12.51 12.336-18.168 12.861-18.43"/><path fill="#3D3D3D" d="M206.004 94.283c.525 1.983 1.108 4.987.788 8.603-.409 4.608-2.042 7.845-3.733 11.169a47.7 47.7 0 0 1-6.766 9.974 9.4 9.4 0 0 0 1.75-.496 10.9 10.9 0 0 0 3.237-1.866 757 757 0 0 0-.671 8.224c1.662-.729 3.325-1.429 4.987-2.158-.35-2.917-.729-5.804-1.079-8.72a42 42 0 0 0 2.741-3.82c1.458-2.304 3.529-5.629 4.608-10.265.35-1.488.7-3.675.671-6.358-2.158-1.4-4.346-2.858-6.533-4.287" opacity=".11"/><path fill="#3D3D3D" d="M212.567 99.097c-.233-.059-.874 2.945-2.828 7.436 0 0-1.459 3.325-3.121 6.153-1.545 2.625-4.607 7.029-10.382 11.636.642.292 1.313.583 1.954.875 1.896-.204 3.791-.379 5.687-.583-.088-1.604-.204-3.208-.292-4.783 2.275-2.333 5.395-6.153 7.349-11.636 1.575-4.578 1.925-9.04 1.633-9.098" opacity=".16"/><path fill="#3D3D3D" d="M168.91 112.013c-.059.963 0 2.625.787 4.404 1.137 2.537 3.791 5.307 6.649 5.278 3.47-.029 7.32-4.228 7.145-10.177.554 1.399 1.4 3.091 2.654 4.899a25.8 25.8 0 0 0 4.199 4.695 12.6 12.6 0 0 1-.583 4.112 12.4 12.4 0 0 1-2.654 4.608c-.7.758-2.974 3.208-6.649 3.82-5.337.875-9.361-2.829-10.09-3.529-4.783-4.578-3.966-11.052-3.82-12.044a14.56 14.56 0 0 1 2.362-6.066" opacity=".29"/><path fill="#3D3D3D" d="M212.769 98.979c.234 1.428.554 3.703.788 6.561.495 6.124 0 7.757.991 10.878.146.496 2.392 7.378 5.687 7.436 2.566.059 5.424-3.966 6.561-9.886a37 37 0 0 1 1.459 7.232c.291 2.888.029 3.85-.088 4.317-.816 2.653-2.974 4.111-4.112 4.899-4.024 2.741-8.369 2.333-9.011 2.245-1.021-.116-5.745-.729-8.895-4.695a12.25 12.25 0 0 1-2.537-5.774c-.146-1.021-.146-1.925-.087-2.537a31.1 31.1 0 0 0 6.066-8.428c2.391-4.958 3.003-9.478 3.178-12.249" opacity=".12"/></svg>