<svg xmlns="http://www.w3.org/2000/svg" width="365" height="286" fill="none"><path fill="#fff" d="M255.538 43.11c.053.828.08 1.655.133 2.456 0 .16.107.374.294.374 22.476 3.096 45.139.48 67.695.534 6.38 0 12.733.24 19.086.854.16.027.347-.134.373-.294.214-1.094.454-2.189.668-3.283.106-.507-.668-.72-.774-.214-.214 1.095-.454 2.19-.668 3.284.134-.107.267-.187.374-.294-22.343-2.189-44.765.56-67.161.08-6.487-.133-12.973-.56-19.406-1.441.106.133.187.267.293.373-.053-.827-.08-1.654-.133-2.455 0-.48-.801-.48-.774.026"/><path fill="#fff" d="M256.205 43.512h86.994c.507 0 .507-.801 0-.801h-86.994c-.508 0-.508.8 0 .8"/><path fill="#fff" d="M261.062 42.869c.667-9.583 1.228-19.193 2.055-28.75.107-1.254.24-2.482.454-3.71.08-.453.107-1.388.374-1.761.347-.48 1.094-.48 1.628-.56 1.228-.214 3.283-.962 4.138.293.24.373.293 1.148.373 1.601.16.801.267 1.602.347 2.403.427 4.698-.187 9.476-.534 14.174l-1.201 16.336c-.027.508.774.508.801 0 .587-7.794 1.228-15.562 1.708-23.356.214-3.577.321-7.234-.56-10.758-.24-.988-.614-1.815-1.735-1.922-1.709-.133-3.684.454-5.339.801-.133.027-.24.16-.267.267-1.415 5.526-1.361 11.478-1.762 17.137-.427 5.926-.827 11.879-1.254 17.805-.054.507.747.507.774 0"/><path fill="#fff" d="M270.992 18.766c3.256 8.195 6.7 16.31 10.303 24.344.214.48.908.054.695-.4a617 617 0 0 1-10.224-24.158c-.187-.48-.961-.267-.774.214M271.686 14.468c.668-1.896 2.723-2.937 4.645-2.403.507.134.721-.64.214-.774-2.349-.667-4.832.668-5.633 2.963-.16.507.614.694.774.214"/><path fill="#fff" d="M276.331 12.227c5.285 10.25 10.544 20.527 15.829 30.777.241.454.935.054.694-.4-5.285-10.25-10.544-20.527-15.829-30.778-.24-.48-.934-.08-.694.4"/><path fill="#fff" d="M290.239 5.34c.854 12.412 1.708 24.824 2.536 37.237.027.507.827.507.801 0-.855-12.413-1.709-24.825-2.536-37.238-.027-.507-.828-.507-.801 0"/><path fill="#fff" d="M290.934 5.766c1.361-1.228 3.203-1.228 4.911-.934.694.107 1.442.24 2.109.48 1.228.454 1.041 1.576 1.095 2.67.16 3.817.293 7.634.453 11.452.294 7.714.614 15.455.908 23.17.027.507.827.507.801 0-.374-9.236-.721-18.472-1.095-27.682-.08-2.295-.187-4.618-.267-6.913-.053-1.175.107-2.616-1.121-3.257-1.281-.667-3.256-.908-4.698-.88-1.388.026-2.616.4-3.63 1.334-.401.32.16.907.534.56M276.97 11.772c2.536.16 5.019.908 7.448 1.602 2.242.64 4.431 1.441 6.326 2.83.427.293.828-.401.4-.695-1.975-1.415-4.217-2.242-6.539-2.91-2.51-.72-5.046-1.44-7.661-1.628-.508-.053-.508.748.026.801"/><path fill="#fff" d="M299.98 10.358c1.175-.294 2.483-.587 3.711-.347 1.815.373 2.189 1.975 2.269 3.603.133 3.284.187 6.54.267 9.824.16 6.46.24 12.92.267 19.38 0 .506.8.506.8 0a944 944 0 0 0-.347-23.09l-.16-5.58c-.053-1.228-.027-2.589-.774-3.63-1.388-1.949-4.244-1.468-6.22-.961-.533.16-.32.934.187.8"/><path fill="#fff" d="M305.828 6.14v7.18c0 .508.801.508.801 0V6.14c0-.507-.801-.507-.801 0"/><path fill="#fff" d="M307.002 6.432c.214.08.454.16.667.24.027.188.054.374.08.588.054.427.054.88.107 1.335.054.694.107 1.414.16 2.108.107 1.495.187 3.017.267 4.512.187 3.096.321 6.192.427 9.289.241 6.113.321 12.226.321 18.338 0 .508.801.508.801 0 0-7.607-.161-15.242-.508-22.85-.186-3.71-.4-7.42-.667-11.13-.053-.908.107-2.563-.721-3.204-.56-.427-1.334-.267-1.628.374-.187.48.481.88.694.4M267.656 47.035c.827 1.388 1.628 3.47 2.963 4.458 1.308.987 2.909.106 4.351.613.48.16.694-.613.213-.774-1.281-.453-2.776.267-3.924-.453-1.308-.801-2.135-2.963-2.909-4.271-.267-.427-.961-.027-.694.427"/><path fill="#fff" d="M276.038 47.382c-.107 1.388-.534 2.643-1.228 3.818-.267.453.427.854.694.4a9.2 9.2 0 0 0 1.335-4.218c.053-.507-.748-.507-.801 0"/><path fill="#fff" d="M273.77 48.049c.24 1.227.48 2.455.747 3.683.107.507.881.294.774-.213a178 178 0 0 0-.747-3.684c-.107-.507-.881-.294-.774.213"/><path fill="#fff" d="M274.73 48.022c.054 0 .107.026.161.053.08.16.08.32.053.48-.027.188-.107.374-.16.561-.107.374-.134.72-.027 1.095.16.507.854.293.774-.214a3.6 3.6 0 0 1 .267-2.109c-.267-.026-.534-.08-.774-.106-.08.827-.133 1.681-.214 2.509-.053.507.748.507.801 0 .08-.828.134-1.682.214-2.51.053-.48-.641-.48-.774-.106-.347.827-.401 1.681-.267 2.536.267-.08.507-.134.774-.214-.24-.8.694-1.788-.107-2.51-.48-.426-1.255-.266-1.441.348-.214.48.56.694.72.187M316.558 42.177c-.24-.988-.347-1.95-.267-2.963l-.401.4c4.725-.24 9.45-.534 14.175-.64q3.563-.081 7.127 0c.534 0 1.068.026 1.575.026.534.027 1.628-.16 2.109.08 1.067.507.614 2.563.614 3.497 0 .507.8.507.8 0 0-1.255.641-3.924-1.067-4.271-1.175-.24-2.563-.107-3.764-.133-1.495-.027-2.99-.054-4.485-.027-5.685.026-11.371.373-17.084.667a.41.41 0 0 0-.4.4c-.053 1.095.027 2.136.32 3.177.08.507.855.294.748-.213"/><path fill="#fff" d="M319.524 34.143c.32 1.468.56 2.936.667 4.43.027.508.828.508.801 0a30 30 0 0 0-.694-4.644c-.107-.48-.881-.267-.774.214"/><path fill="#fff" d="M320.056 34.65c3.23-.267 6.46-.56 9.69-.427 3.043.133 6.113 1.12 9.156.8l-.401-.4c-.106 1.415.054 2.75.508 4.111.16.48.934.267.774-.214a9.6 9.6 0 0 1-.481-3.897c.027-.213-.187-.427-.4-.4-3.043.293-6.113-.694-9.156-.801-3.23-.133-6.487.16-9.69.427-.507.027-.507.828 0 .8M292.881 117.48v3.337c0 .507.801.507.801 0v-3.337c0-.507-.801-.507-.801 0"/><path fill="#fff" d="M293.281 117.213h62.303c.507 0 .507-.801 0-.801h-62.303c-.534 0-.534.801 0 .801M293.923 120.895h61.315c.508 0 .508-.801 0-.801h-61.315c-.507 0-.507.801 0 .801"/><path fill="#fff" d="M355.184 117.48v2.322c0 .508.8.508.8 0v-2.322c0-.507-.8-.507-.8 0M299.049 108.484a149 149 0 0 1 1.868 8.302c.107.507.881.293.774-.214a129 129 0 0 0-1.868-8.302c-.134-.507-.908-.293-.774.214M312.93 108.245a99 99 0 0 0-1.575 8.275c-.08.507.694.721.775.214.4-2.776.934-5.553 1.574-8.275.107-.508-.667-.721-.774-.214"/><path fill="#fff" d="M296.857 106.988c.054 1.388 2.136 1.281 3.15 1.335 2.296.106 4.618-.241 6.914-.374 1.148-.08 2.296-.107 3.443 0 .935.08 1.949.4 2.857.213 1.014-.213 1.655-1.174 1.067-2.108-.267-.427-.961-.027-.694.4.748 1.255-1.788.854-2.028.828a19 19 0 0 0-1.709-.161c-1.308-.08-2.642 0-3.95.107-.855.054-8.222.934-8.249-.24 0-.534-.801-.534-.801 0"/><path fill="#fff" d="M297.791 106.883c-.48-1.495 3.657-1.335 4.351-1.362 1.228-.053 2.483-.106 3.711-.16.667-.027 7.607-.213 7.421.294-.161.48.614.694.774.213.801-2.375-7.875-1.334-8.996-1.281-2.082.08-4.404-.107-6.433.294-1.068.213-1.975 1.014-1.602 2.189.16.507.935.293.774-.187"/><path fill="#fff" d="M301.345 104.666c-1.228-.56-2.322-1.361-3.176-2.376-.347-.427-2.803-3.977-1.362-4.19.241-.027.374-.4.241-.588-.775-1.12-1.095-2.562-1.495-3.844-.454-1.388-.881-2.776-1.335-4.137-.08-.294-.213-.56-.267-.854-.133-.56-.213-.56.454-.614.721-.054 1.094.507 1.575.987a21 21 0 0 1 2.429 2.937c2.696 3.897 4.191 8.488 5.312 13.053.133.507.908.293.774-.214-1.441-5.819-3.55-11.798-7.821-16.203-.587-.614-1.708-2.028-2.696-1.868-.748.133-.961.934-.908 1.601.107 1.495.908 3.124 1.388 4.565.534 1.655.881 3.577 1.896 5.018.08-.186.16-.4.24-.587-1.762.267-.748 2.723-.267 3.684 1.014 1.948 2.643 3.443 4.618 4.378.454.16.854-.534.4-.748"/><path fill="#fff" d="M302.251 97.353c-.08-3.39-.16-6.913.988-10.143.561-1.575 1.415-2.99 2.402-4.325.241-.347.508-.907.881-1.12.267-.428.668-.481 1.175-.134q.96-.24.961.48c.32.721.213 1.949.213 2.696 0 1.789-.427 3.444-.854 5.152-.16.587-.293 1.201-.24 1.789.053.694.427 1.228.614 1.868.534 1.815-.401 3.684-1.041 5.339-.641 1.735-1.308 3.47-1.949 5.232-.187.48.587.694.774.213.855-2.295 1.762-4.564 2.563-6.887.56-1.628.827-3.043.187-4.644-.854-2.162.507-4.591.694-6.807.107-1.441.347-3.897-.587-5.179-2.029-2.802-5.259 3.177-5.9 4.512-1.815 3.737-1.788 7.928-1.681 11.985.026.507.827.507.8-.027M295.524 90.786c2.643 3.71 4.218 8.168 6.06 12.306.213.48.907.053.694-.401-1.816-4.164-3.417-8.595-6.06-12.305-.294-.427-.988-.027-.694.4"/><path fill="#fff" d="M302.891 88.89c.107 1.415.588 2.67 1.468 3.764.321.4.881-.16.561-.56a5.86 5.86 0 0 1-1.228-3.204c-.027-.507-.827-.507-.801 0M306.522 88.702c.64-.96 1.308-1.922 1.948-2.883.294-.427-.4-.827-.694-.4-.64.96-1.308 1.922-1.948 2.883-.267.427.427.827.694.4M314.476 88.169c-.667 1.068-1.628 1.895-2.509 2.75-.961.907-1.922 1.841-2.883 2.749-.374.347.187.934.561.56 1.842-1.761 4.164-3.47 5.525-5.659.267-.427-.427-.827-.694-.4"/><path fill="#fff" d="M314.131 89.237c.053 1.415 2.402 4.031.587 4.885-.24.134-.24.454-.08.64.614.748.213 1.87.133 2.75-.08.988 0 1.976-.267 2.937-.48 1.841-2.189 2.936-3.71 3.897-.427.267-.027.961.4.694 1.842-1.175 3.737-2.509 4.165-4.805.213-1.228.213-2.51.32-3.737.107-.881.08-1.575-.507-2.27l-.08.642c2.535-1.202-.134-3.924-.187-5.58 0-.56-.801-.56-.774-.053"/><path fill="#fff" d="M312.849 93.16a60 60 0 0 0-4.724 9.317c-.187.48.587.694.774.213a58.7 58.7 0 0 1 4.644-9.129c.267-.454-.427-.854-.694-.4M300.462 113.957c1.067 1.441 2.535 2.429 4.297 2.803.507.106.721-.668.214-.774-1.548-.321-2.883-1.148-3.817-2.43-.294-.4-.988 0-.694.401M300.01 110.671c2.749 2.109 5.659 5.125 9.182 5.846.507.107.721-.667.214-.774-3.417-.694-6.3-3.711-8.996-5.766-.4-.32-.801.374-.4.694M302.116 108.644c1.655 1.362 3.257 2.75 4.938 4.058.721.56 1.468 1.094 2.349 1.441.828.347 1.709.508 2.456 1.041.427.294.828-.4.4-.694-.587-.4-1.174-.587-1.815-.827-1.094-.374-1.975-.881-2.883-1.602-1.655-1.281-3.256-2.642-4.858-3.977-.427-.32-.988.24-.587.56M306.495 108.27a13.4 13.4 0 0 0 5.552 3.471c.481.16.694-.614.214-.775a12.7 12.7 0 0 1-5.205-3.283c-.347-.347-.935.214-.561.587M326.141 116.037c-.16-.427-.4-.988-.374-1.441.107-1.175.908-1.282 1.682-1.415 1.121-.214 2.296-.24 3.443-.24 1.949-.027 3.924.133 5.873.213 1.949.054 3.871-.053 5.819-.213.801-.08 2.216-.401 2.99-.134.801.294 1.014.694 1.041 1.442.027.587.027 1.174.053 1.788.027.507.828.507.801 0-.027-.907.24-2.509-.213-3.363-.428-.748-1.415-.668-2.163-.668-3.043 0-6.006.454-9.075.321-2.83-.107-5.686-.347-8.489.08-2.296.347-2.883 1.762-2.109 3.897.107.427.881.214.721-.267"/><path fill="#fff" d="M331.801 111.74c.214-.48.401-.961.614-1.441.24-.027.481-.054.721-.107.32-.027.614 0 .934-.027.694 0 1.362-.027 2.056-.027 1.468-.026 2.909-.026 4.377-.053 1.362-.027 2.75-.027 4.111-.053.347 0 .694 0 1.041-.027.427 0 .561-.107.694.214.16.4-.133 1.521-.187 1.948-.053.507.748.507.801 0 .054-.64.454-1.975.134-2.562-.267-.481-.668-.401-1.202-.401-2.562 0-5.151.08-7.714.107-1.201.027-2.402.027-3.604.053-.907 0-2.028-.106-2.856.321-.961.507-1.415 1.815-.48 2.589.4.347.961-.214.56-.534"/><path fill="#fff" d="M337.298 108.483c-.694-.934 2.216-.827 2.402-.854.641-.053 2.83-.454 2.403.988-.16.507.614.694.774.213.187-.64-.027-1.228-.534-1.655-.881-.721-1.975-.374-3.016-.32-.828.027-1.815-.24-2.483.4-.48.427-.614 1.095-.24 1.629.32.4 1.014 0 .694-.401M296.459 121.483a14.6 14.6 0 0 0 3.631 3.497c.427.293.827-.401.4-.694-1.281-.881-2.429-1.949-3.337-3.23-.32-.401-1.014 0-.694.427"/><path fill="#fff" d="M299.982 124.711h2.643c.507 0 1.334.134 1.788-.106.347-.187.454-.614.614-.935.427-.854.934-1.655 1.522-2.429.32-.4-.241-.961-.561-.56-.294.347-.561.72-.828 1.094-.32.507-.533 1.228-.907 1.682-.748.881-3.177.48-4.271.454-.507 0-.507.8 0 .8"/><path fill="#fff" d="M302.945 121.429c.214.801.427 1.629.667 2.429.134.508.908.294.775-.213-.214-.801-.428-1.628-.668-2.429-.133-.507-.907-.294-.774.213M335.485 121.296c.427.881.881 1.735 1.442 2.536.293.427.667 1.094 1.174 1.334.534.267 1.282.054 1.815 0 .961-.106 1.922-.186 2.883-.293.508-.054.508-.854 0-.801-.64.053-1.281.133-1.922.187-.56.053-1.388.293-1.921.187-1.389-.267-2.243-2.456-2.777-3.577-.24-.454-.934-.054-.694.427"/><path fill="#fff" d="M342.824 120.628a12 12 0 0 0-.454 3.497c.027.507.828.507.801 0a11.3 11.3 0 0 1 .4-3.283c.16-.481-.614-.694-.747-.214"/><path fill="#fff" d="M343.172 124.526a58 58 0 0 0 3.07-3.177c.347-.374-.214-.961-.561-.56a58 58 0 0 1-3.069 3.176c-.374.347.186.908.56.561M171.746 43.11v22.557c0 .507.801.507.801 0V43.11c0-.507-.801-.507-.801 0"/><path fill="#fff" d="M172.387 66.281h28.615c.507 0 .507-.8 0-.8h-28.615c-.534 0-.534.8 0 .8M172.387 43.512h27.761c.507 0 .507-.801 0-.801h-27.761c-.534 0-.534.8 0 .8"/><path fill="#fff" d="M200.146 43.11v22.557c0 .507.801.507.801 0V43.11c0-.507-.801-.507-.801 0M186.64 42.443a1.83 1.83 0 0 1 .187-.987c.08-.187.4-.668.587-.534.214.133.294.747.321.96.08.401.08.801.026 1.202-.053.507.748.507.801 0 .054-.694 0-1.388-.24-2.056-.16-.427-.374-.934-.881-.987-1.094-.134-1.655 1.548-1.602 2.375.027.561.828.561.801.027M173.266 45.7v17.992c0 .507.8.507.8 0V45.701c0-.508-.8-.508-.8 0"/><path fill="#fff" d="M173.667 64.092h25.146c.507 0 .507-.801 0-.801h-25.146c-.507 0-.507.8 0 .8"/><path fill="#fff" d="M199.453 63.477V45.486c0-.507-.801-.507-.801 0v17.991c0 .534.801.534.801 0"/><path fill="#fff" d="M173.882 46.315h24.291c.508 0 .508-.801 0-.801h-24.291c-.507 0-.507.8 0 .8M174.016 59.846c3.123-.934 6.299-1.761 9.396-.32 2.215 1.041 4.137 2.616 6.62 3.07.507.08.721-.667.213-.774-2.829-.534-4.965-2.59-7.661-3.497-2.909-.961-5.952-.107-8.782.747-.48.16-.267.935.214.774"/><path fill="#fff" d="M184.426 59.393a27.3 27.3 0 0 1 11.798-1.415c.508.054.508-.747 0-.8-4.084-.4-8.141.08-12.012 1.441-.48.187-.267.96.214.774M185.254 53.2c-.294-.507-.214-1.254.293-1.601.454-.32 1.175-.187 1.495.24.321.454.134 1.175-.373 1.442-.588.293-1.255-.267-1.255-.855 0-.507-.801-.507-.801 0-.027 1.068 1.068 1.976 2.136 1.682.987-.267 1.521-1.521 1.094-2.429-.427-.961-1.708-1.308-2.616-.828-.988.534-1.228 1.842-.694 2.777.294.427.961.026.721-.428M315.278 46.983c.961 1.281 1.148 3.016 2.322 4.137 1.095 1.068 2.403.908 3.737.428.481-.16.267-.935-.213-.775-.721.24-1.549.508-2.296.214-.641-.267-1.068-.854-1.388-1.468-.507-.988-.801-2.056-1.468-2.963-.321-.4-1.015 0-.694.427"/><path fill="#fff" d="M321.23 51.224a19.5 19.5 0 0 0 3.363-3.737c.294-.427-.4-.827-.694-.4a18 18 0 0 1-3.23 3.577c-.4.32.16.907.561.56M319.282 46.688a6.4 6.4 0 0 1 .507 2.722c-.027.508.774.508.801 0a7.35 7.35 0 0 0-.614-3.123c-.187-.48-.881-.08-.694.4M297.898 151.111v10.677c0 .507.801.507.801 0v-10.677c0-.507-.801-.507-.801 0M288.158 163.26h28.295c.507 0 .507-.801 0-.801h-28.295c-.507 0-.507.801 0 .801M303.506 163.927v6.674c0 .507.801.507.801 0v-6.674c0-.507-.801-.507-.801 0"/><path fill="#fff" d="M287.89 171.801h25.092c.507 0 .507-.801 0-.801H287.89c-.507 0-.507.801 0 .801M294.162 172.468v5.072c0 .507.801.507.801 0v-5.072c0-.507-.801-.507-.801 0M296.834 43.218c0-1.122-.213-2.536 0-3.63.294-1.549 2.456-1.255 3.71-1.335.508-.027.508-.828 0-.801-1.014.053-2.082.053-3.096.213-.454.08-.854.214-1.121.614-.32.48-.267 1.148-.267 1.709v3.23c-.027.533.774.533.774 0M292.134 13.4c2.43-.667 4.859-.507 7.181.427.48.187.694-.587.214-.774-2.456-.988-5.046-1.121-7.608-.427-.507.16-.294.934.213.774M291.145 11c2.136-1.47 4.699-1.736 7.101-.775.48.187.694-.587.214-.774a8.12 8.12 0 0 0-7.715.854c-.427.294-.027.988.4.694M282.472 24.985c-.855.587-2.483 1.361-2.723 2.483-.107.587.16 1.12.374 1.654.373.935.747 1.87 1.147 2.803a113 113 0 0 0 5.206 10.705c.24.453.934.053.694-.4a116 116 0 0 1-4.084-8.17 93 93 0 0 1-1.896-4.457c-.347-.88-.827-1.655-.186-2.563.373-.534 1.334-.987 1.895-1.361.4-.294 0-.988-.427-.694"/><path fill="#fff" stroke="#161616" stroke-width="3" d="M170.225 155.812c-2.188 1.629-4.831 4.245-5.792 7.982-.694 2.776-.027 4.404-.267 7.981-.16 2.483-.801 5.98-2.856 10.144-4.672-.961-12.52-1.895-21.782.24a50.5 50.5 0 0 0-13.214 5.099c.508.32 1.202.694 2.083.934 4.991 1.361 10.25-2.83 10.41-2.536.16.267-5.873 3.096-5.552 5.552.213 1.655 3.176 2.536 6.246 3.47 2.589.774 5.045 1.522 8.328 1.148 4.512-.507 7.635-2.776 9.023-3.95a39 39 0 0 0 5.792 2.322c4.565 1.388 10.865 3.31 15.056.694 2.722-1.708 3.55-5.713 5.098-13.667 1.869-9.69 2.749-14.548.24-18.526-3.283-5.312-10.036-6.539-12.813-6.887Z"/><path fill="#161616" d="M160.456 182.213c3.23 1.201 5.899 3.39 7.741 6.3.267.427.961.027.694-.401-1.948-3.096-4.804-5.392-8.221-6.673-.507-.187-.694.587-.214.774M143.265 187.473c-3.176.533-5.739 2.669-6.887 5.659-.186.48.588.694.775.213 1.041-2.723 3.443-4.618 6.326-5.098.507-.08.294-.854-.214-.774M147.001 190.141c-1.148.694-2.216 1.495-3.23 2.349-.668.588-1.415 1.282-1.255 2.243.4 2.536 3.444 1.975 5.099 1.334.48-.186.266-.961-.214-.774-.721.267-1.522.614-2.296.588-1.254-.054-2.375-1.255-1.308-2.35 1.015-1.067 2.349-1.921 3.604-2.722.427-.267.027-.961-.4-.668"/><path fill="#EC615B" d="M195.132 122.953c-1.361.454-3.096 1.148-5.045 2.109-.561.267-1.975.988-3.497 1.975-2.349 1.495-4.057 3.07-6.006 5.045-2.483 2.536-4.992 5.072-7.981 9.13-2.51 3.416-6.407 8.782-9.21 16.656a53 53 0 0 0-2.135 7.741 13.7 13.7 0 0 1 3.844-1.521c6.006-1.361 11.772 1.682 17.244 4.538 2.055 1.068 3.683 2.109 4.805 2.829.587-2.883 1.174-5.792 1.761-8.675.508-2.429.988-4.885 1.495-7.314a33 33 0 0 0 2.963-2.936c2.162-2.456 6.46-7.341 7.047-14.121.721-7.822-3.924-13.801-5.285-15.456"/><path fill="#161616" d="M193.556 123.271c-2.857.428-5.312 1.949-7.528 3.711-2.562 2.002-4.965 4.217-7.207 6.566a77.2 77.2 0 0 0-11.345 15.082c-.267.454.427.855.694.401 3.043-5.286 6.673-10.197 10.891-14.602a82 82 0 0 1 6.487-6.059c2.429-2.002 5.018-3.871 8.221-4.351.507-.054.294-.828-.213-.748M192.435 152.42a178 178 0 0 1-6.06 5.846c-.374.347.187.908.561.561a179 179 0 0 0 6.059-5.846c.347-.374-.213-.935-.56-.561"/><path fill="#161616" d="M189.659 156.081c-.935 5.125-1.842 10.277-2.776 15.402.186-.08.4-.16.587-.24a45.7 45.7 0 0 0-13.988-6.567c-3.924-1.068-8.915-2.109-12.279.854-.373.347.187.908.561.561 3.417-3.043 8.942-1.442 12.813-.267 4.458 1.361 8.649 3.443 12.466 6.086.213.134.534 0 .587-.24.934-5.125 1.842-10.277 2.776-15.402.107-.481-.667-.694-.747-.187"/><path fill="#161616" d="M167.663 148.258c-2.776 5.419-6.246 10.998-6.487 17.271-.026.507.775.507.801 0 .24-6.113 3.657-11.558 6.38-16.87.214-.454-.48-.855-.694-.401"/><path fill="#3D3D3D" d="M191.394 138.168c-4.778 9.503-7.367 17.511-8.889 23.117-2.216 8.221-2.99 14.708-8.729 20.1-.934.881-3.684 3.417-8.008 4.992-9.076 3.283-15.802-1.148-21.515 3.55-.641.534-2.536 1.868-2.322 3.39.213 1.441 2.189 2.189 2.482 2.322 2.349.908 4.778-.026 7.821-1.254 3.444-1.388 3.07-1.869 4.618-2.136 3.257-.56 4.752 1.495 9.076 2.856 1.842.561 7.288 2.269 11.212 0 2.882-1.681 3.763-4.831 5.151-10.143.961-3.604 1.949-8.862 1.789-15.482l3.203 2.482a14413 14413 0 0 0 4.111-33.794" opacity=".4"/><path fill="#3D3D3D" d="M189.794 149.727c-3.657 6.913-5.446 12.759-6.407 16.71-1.922 7.928-1.308 11.665-3.924 17.244-2.803 6.059-7.341 9.903-10.49 12.092 1.761.4 6.006 1.148 9.075-1.255 2.163-1.681 2.723-4.084 3.551-8.008a452 452 0 0 0 3.203-16.363l2.482 1.602c.855-7.314 1.682-14.682 2.51-22.022" opacity=".38"/><path fill="#EC615B" d="M194.565 122.417a1908 1908 0 0 0-2.803 18.952 2100 2100 0 0 0-9.129 72.66 7.3 7.3 0 0 0 1.068 3.364c.8 1.308 1.868 1.975 2.375 2.322 4.859 3.47 7.288 5.232 9.743 6.406 11.772 5.686 24.799 5.019 24.799 5.019 2.749-.134 8.221-.481 14.094-2.83.32-.133 2.563-1.174 7.047-3.283 4.058-1.895 4.778-2.269 5.766-3.177 2.349-2.162 3.257-4.831 3.87-6.726 1.308-4.031 1.175-7.448 1.122-8.275 0 0-.267-6.647-.454-45.46-.027-7.901.747-19.513 4.911-33.847-4.324-2.109-8.381-4.057-13.266-6.406-3.364-1.629-6.487-3.124-10.971-3.657-1.282-.161-2.429-.214-4.138-.187-6.94.053-12.653 1.121-15.108 1.548-4.779.774-11.238 1.949-18.926 3.577"/><path fill="#161616" d="M194.349 123.353a295 295 0 0 1 25.012-4.218c.374-.053.588-.534.214-.747-.107-.054-.214-.134-.347-.187-.454-.267-.854.427-.401.694.107.053.214.133.347.187.081-.241.134-.508.214-.748a288 288 0 0 0-25.225 4.244c-.534.107-.321.881.186.775M191.867 137.341a2487 2487 0 0 0-8.008 62.89c-.293 2.642-.587 5.258-.881 7.901-.24 2.296-.907 4.885-.614 7.181.267 2.028 1.869 3.31 3.337 4.538a54 54 0 0 0 5.045 3.737c7.234 4.671 15.696 7.474 24.291 7.981 10.224.587 20.501-2.029 29.23-7.367.427-.267.026-.961-.401-.694-15.268 9.316-34.701 9.689-50.264.854a51 51 0 0 1-5.178-3.364c-1.682-1.254-4.405-2.963-5.099-5.018-.32-.988-.16-2.082-.053-3.123.133-1.308.294-2.643.427-3.951.267-2.456.534-4.911.828-7.367 1.147-10.01 2.322-19.994 3.603-29.977 1.442-11.345 2.936-22.69 4.538-34.008.053-.507-.721-.72-.801-.213M231.186 117.239c4.699.935 9.103 3.097 13.481 4.939 4.297 1.815 9.076 3.283 12.866 6.059.427.294.828-.4.4-.694-3.71-2.723-8.381-4.164-12.572-5.926-4.538-1.895-9.103-4.164-13.961-5.152-.507-.107-.721.667-.214.774"/><path fill="#161616" d="M252.115 162.512c-.427 11.238-.854 22.476-.454 33.687.187 5.446 1.041 11.105.027 16.523-.854 4.458-3.364 8.916-7.821 10.571-.481.187-.267.961.213.774 7.101-2.643 8.942-10.731 8.836-17.511-.054-4.591-.454-9.182-.561-13.8-.107-4.699-.053-9.37.027-14.068.107-5.392.32-10.784.507-16.176.053-.534-.747-.534-.774 0"/><path fill="#3D3D3D" d="M248.271 156.185a58.6 58.6 0 0 1-7.047 15.455c-15.295 23.517-43.297 28.216-50.451 29.203q14.415 1.522 29.15 3.284a2441 2441 0 0 1 32.085 4.03c-.667-11.932-.667-21.755-.507-28.775.294-14.522 1.335-26.267-.56-26.641-.454-.106-1.255.401-2.67 3.444" opacity=".38"/><path fill="#3D3D3D" d="M251.556 164.914c-.961 2.83-2.43 6.834-4.592 11.452-3.043 6.54-5.952 12.839-9.716 16.71-10.517 10.811-31.071 6.139-31.125 6.887-.027.427 7.501 1.628 45.513 5.125 0-13.4-.027-26.774-.08-40.174" opacity=".42"/><path fill="#fff" stroke="#161616" stroke-width="3" d="M299.446 274.97c-97.965-13.08-195.957-26.159-293.923-39.213 28.91-16.763 57.845-33.527 86.755-50.29 88.382 8.702 176.791 17.431 265.174 26.133-19.353 21.114-38.679 42.256-58.006 63.37Z"/><path stroke="#161616" stroke-width="16" d="M4.563 238.027c98.205 13.027 196.411 26.053 294.59 39.08"/><path stroke="#161616" stroke-width="16" d="M297.283 277.695c20.581-21.755 41.162-43.537 61.716-65.293"/><path fill="#161616" d="M264.505 220.515c-10.01 7.821-19.807 15.882-29.443 24.157-.4.348.187.908.561.561a847 847 0 0 1 29.443-24.158c.4-.293-.161-.881-.561-.56"/><path fill="#161616" d="M235.436 245.101c3.15.667 6.353.667 9.583.694 3.631.053 7.047.427 10.518 1.441 6.513 1.895 12.893 3.15 19.699 2.99.508 0 .508-.801 0-.801a57.3 57.3 0 0 1-10.464-.694c-3.256-.534-6.353-1.495-9.529-2.376-3.043-.854-6.086-1.254-9.263-1.308-3.47-.08-6.94.027-10.357-.694-.48-.133-.694.641-.187.748M265.093 221.104a201 201 0 0 1 31.365 5.045c.507.134.721-.64.214-.774-10.357-2.536-20.928-4.217-31.579-5.072-.507-.053-.507.748 0 .801"/><path fill="#161616" d="M275.85 249.746c7.447-7.367 14.601-15.055 21.381-23.063.321-.401-.24-.961-.56-.561-6.78 7.982-13.934 15.669-21.382 23.063-.373.374.187.935.561.561M244.751 241.922a55.84 55.84 0 0 1 27.094 3.39c.481.187.694-.587.214-.774a56.7 56.7 0 0 0-27.308-3.417c-.507.054-.507.854 0 .801M258.658 238.989a108 108 0 0 1 16.764 2.616c.507.133.72-.641.213-.774a107 107 0 0 0-16.977-2.643c-.534-.027-.507.774 0 .801M254.416 233.088c8.515.187 16.95 1.415 25.172 3.684.507.133.72-.641.213-.774a104.6 104.6 0 0 0-25.385-3.711c-.508 0-.508.801 0 .801M264.983 230.631c4.592.641 9.13 1.442 13.667 2.403.508.107.721-.667.214-.774a198 198 0 0 0-13.667-2.403c-.507-.08-.721.694-.214.774M259.14 248.542a728 728 0 0 1-4.911 7.501c-.161.24.053.641.347.614a112.4 112.4 0 0 1 39.373 2.509c.507.133.72-.641.213-.774a113.6 113.6 0 0 0-39.586-2.563c.106.214.24.401.347.614 1.628-2.509 3.256-5.018 4.911-7.501.294-.427-.4-.827-.694-.4"/><path fill="#161616" d="m291.412 233.381 15.429-.32a6 6 0 0 1-.374-.508c-3.55 8.462-7.127 16.897-10.677 25.359-.187.481.587.694.774.214 3.55-8.462 7.127-16.897 10.678-25.359.106-.24-.161-.507-.374-.507l-15.429.32c-.534.027-.534.828-.027.801M271.898 253.269c1.361-.267 2.723-.32 4.111-.213.507.026.507-.775 0-.801a16.8 16.8 0 0 0-4.324.24c-.508.08-.294.854.213.774M279.48 253.35c4.191.16 8.382.561 12.546 1.201.507.081.721-.694.214-.774a108 108 0 0 0-12.76-1.228c-.507-.026-.507.775 0 .801M279.718 248.33h2.99c.507 0 .507-.801 0-.801h-2.99c-.507 0-.507.801 0 .801"/><path fill="#161616" d="M285.939 248.25c3.283.08 6.54.4 9.797.934.507.08.72-.694.213-.774a78.5 78.5 0 0 0-10.01-.961c-.507 0-.507.801 0 .801M285.433 243.684c3.737.054 7.448.267 11.158.694.507.054.507-.747 0-.801-3.71-.427-7.421-.667-11.158-.694-.507-.026-.507.775 0 .801M260.367 252.549c1.788.053 3.55-.161 5.312-.588.507-.133.293-.907-.214-.774a18.3 18.3 0 0 1-5.098.561c-.507 0-.507.801 0 .801M273.049 210.719c-.694.854-1.495 2.59-.668 3.631.507.64 1.468.507 2.189.533 1.308.054 2.616.134 3.924.187 5.312.241 10.597.507 15.909.748.508.026.508-.774 0-.801l-11.745-.561c-1.922-.08-3.817-.187-5.739-.267-.934-.053-1.922 0-2.856-.133-.694-.107-1.201-.134-1.175-.988.027-.667.321-1.281.721-1.788.321-.401-.24-.988-.56-.561"/><path fill="#161616" d="M273.767 211.736c4.485.16 8.969.293 13.454.453 2.189.081 4.404.134 6.593.214 1.975.08 4.057.214 5.472 1.735.347.374.908-.187.561-.56-1.068-1.175-2.509-1.629-4.058-1.842-2.295-.294-4.671-.241-6.993-.321-5.019-.16-10.037-.347-15.029-.507-.507.027-.507.828 0 .828"/><path fill="#161616" d="M294.135 215.845a9.2 9.2 0 0 0 5.659-1.842c.4-.293 0-.987-.401-.694-1.548 1.148-3.31 1.762-5.258 1.735-.534 0-.534.801 0 .801"/><path fill="#161616" d="M294.775 211.733a3.08 3.08 0 0 0-1.255 3.417c.133.48.908.294.774-.214-.267-.934.054-1.975.881-2.535.427-.267.027-.961-.4-.668"/><path fill="#EC615B" d="M99.988 115.771c-.667-1.388-2.562-1.494-3.577-.453-1.094 1.121-1.602 3.283-1.495 4.804.24 3.07 3.23 4.512 4.031 7.261.374 1.255 2.296 1.655 2.936.374 1.068-2.109 2.563-3.924 3.898-5.846 1.174-1.708 2.963-4.351 2.322-6.54-.267-.934-1.095-1.735-2.109-1.842-1.228-.133-2.082.614-2.803 1.522-.72.934-1.361 1.895-1.895 2.936-.48.908-.854 1.975-1.788 2.482.774.321 1.575.641 2.349.961a242 242 0 0 1-1.015-3.416c-.88.507-1.788 1.041-2.67 1.548a3.413 3.413 0 0 0 4.699.4c.667-.534 1.041-1.254 1.495-1.948.213-.321.4-.614.721-.828.213-.16.48-.267.747-.347.534-.027.507-.08-.053-.16-.267-.454-.534-.934-.801-1.388v.187c.4-.507.774-1.041 1.174-1.548-.053.026-.106.026-.16.053-1.949.614-1.121 3.71.854 3.096.054-.026.107-.026.16-.053.721-.214 1.122-.827 1.175-1.548v-.187c.027-.561-.347-1.094-.801-1.388-1.334-.854-3.31-.027-4.404.854-.614.507-1.041 1.095-1.468 1.762-.267.427-.561 1.335-1.068.747-1.068-1.201-3.123.08-2.67 1.548.347 1.148.694 2.296 1.015 3.417a1.616 1.616 0 0 0 2.349.961c1.361-.72 2.109-1.975 2.776-3.31.4-.774.801-1.521 1.308-2.215.08-.134.801-.881.774-1.015-.694-.587-1.041-.56-1.094.08a4 4 0 0 1-.214.588c-1.335 3.23-4.004 5.685-5.579 8.782.988.133 1.949.267 2.936.374-.507-1.736-1.655-2.99-2.749-4.378-.454-.587-.96-1.228-1.121-1.949-.107-.507-.053-.961.08-1.441.08-.321.187-.614.32-.908.454-.641 0-.801-1.334-.454.88 1.896 3.63.267 2.75-1.575"/><path fill="#EC615B" d="M101.725 124.528c2.349-2.83 4.405-5.846 6.113-9.076.961-1.815-1.815-3.444-2.776-1.628-1.575 3.016-3.417 5.846-5.606 8.435-1.308 1.575.934 3.844 2.269 2.269"/><path fill="#5222D0" d="M108.053 79.227c-.428 2.803-.321 5.553.427 8.302.4 1.495 2.722.854 2.322-.64-.614-2.296-.801-4.672-.427-7.02.213-1.522-2.109-2.163-2.322-.642"/><path fill="#5222D0" d="M108.961 80.456c2.936 1.255 5.285-1.201 5.392-4.084 0-.267-.161-.988-.054-1.228h-.133c.24.08.427.213.534.454.427.534.64 1.228 1.094 1.762.934 1.094 2.216 1.254 3.577 1.334.667.027 1.468-.053 1.869.587.4.614.186 1.655.133 2.35a102 102 0 0 1-.214 2.91c-.026.24-.266 1.147.081.8-.214.24-1.095.294-1.389.374-1.761.4-3.576.56-5.365.453-.934-.053-2.349.054-2.883-.774-.48-.774-.507-1.948-.374-2.83-.72.108-1.468.188-2.188.294.64 1.415 1.254 2.83 1.895 4.271.427.935 1.975.668 2.189-.293.64-2.883-.241-5.9.667-8.729-.667.187-1.335.347-2.002.534.774.934.587 2.936.774 4.084.214 1.335.587 2.563 1.201 3.737.561 1.014 2.323.587 2.243-.614-.214-3.203-.427-6.433-.614-9.636-.774.106-1.575.213-2.349.32 1.121 3.016 1.281 6.166.4 9.263l1.762-.721c-1.495-1.148-2.616-2.643-3.39-4.351-.507-1.094-2.296-.534-2.243.614.054 1.068.081 2.135.134 3.203h2.402c-.053-1.335 0-2.643.267-3.95.107-.454.214-.935.347-1.389.08-.293.187-.613.294-.907q.52-.64-.16-.48c1.281 1.815 1.441 4.537 1.228 6.646.747-.213 1.495-.4 2.242-.614a12.2 12.2 0 0 1-1.175-3.977c-.08-.721-.106-1.442-.053-2.162 0-.107.134-.855.08-.908-.187.027-.374.027-.56.053.106.214.213.4.32.614 1.228 2.51 1.601 5.339 1.308 8.115.747-.213 1.495-.4 2.242-.614a14.2 14.2 0 0 1-1.068-3.256c-.08-.48-.133-.961-.08-1.442q.04-.4.16-.8c.294-.321.321-.454.081-.374-.321-.054-.614-.08-.935-.134.427.214.694 2.323.774 2.803.161 1.148.134 2.349-.026 3.497h2.322a15 15 0 0 1-.641-2.616c-.133-.854-.053-1.735-.32-2.563.587 1.842.481 3.79-.053 5.606.72-.107 1.468-.187 2.189-.294-.321-.694-.588-1.441-.721-2.215-.08-.374-.107-.748-.134-1.121 0-.16-.026-.32 0-.48.08-.375-.106-.401-.534-.108l-.72-.56c1.521 2.616-1.522 5.525-4.111 5.152.294.373.587.774.881 1.148-.027-.481-.187-1.175-.027-1.629l-.56.72c-.454.294 1.975-.052.961-.16-1.389-.133-1.602 2.003-.321 2.35s2.456 1.04 3.817.88c1.175-.133 2.056-.827 2.536-1.868.507-1.094.614-2.376.454-3.577a6.2 6.2 0 0 0-.507-1.868c-.107-.267-.24-.534-.374-.801-.08-.16-.187-.32-.293-.48-.107-.24-.161-.187-.107.16.747.213 1.495.4 2.242.613.027-.507.08-.987.107-1.494-.774.106-1.575.213-2.349.32.454 1.335.373 2.563-.16 3.87-.588 1.442 1.735 2.056 2.322.641a7.44 7.44 0 0 0 .16-5.152c-.427-1.308-2.269-1.04-2.349.32-.027.508-.08.988-.107 1.495-.08 1.175 1.735 1.682 2.243.614.587-1.28.427-2.936-.935-3.657-1.174-.614-2.749-.08-3.31 1.121-.774 1.656.961 3.124 1.121 4.725.081.748.081 2.243-.747 2.616-.801.347-2.322-.587-3.07-.8-.107.774-.213 1.574-.32 2.349 2.429.213 2.482-2.99.801-4.031-.828-.507-1.949-.908-2.83-.374-1.094.667-.774 2.002-.747 3.07.026.48.347 1.094.881 1.148 4.271.614 8.168-2.803 7.34-7.261-.16-.88-.507-1.869-1.494-2.055-.828-.16-1.655.32-2.002 1.067-.881 1.896.16 4.698.961 6.434.453.987 1.921.64 2.188-.294.534-1.789.694-3.63.374-5.472-.24-1.388-.667-3.204-2.402-3.257-3.871-.08-2.269 6.273-1.602 8.275.347 1.014 2.109 1.255 2.322 0 .321-2.055.294-4.11-.24-6.14-.32-1.2-.961-3.55-2.696-2.936-1.388.507-1.815 2.51-1.815 3.817 0 1.922.694 3.818 1.495 5.5.56 1.2 2.135.453 2.242-.615.24-2.242.053-4.51-.587-6.673-.454-1.522-1.281-4.591-3.31-4.511-1.976.053-2.082 2.589-2.082 4.03 0 2.323.587 4.565 1.601 6.674.561 1.174 2.136.454 2.243-.614a13.4 13.4 0 0 0-.561-5.632c-.427-1.335-1.121-3.257-2.723-3.444-1.762-.187-2.375 1.842-2.776 3.15-.587 1.922-.774 3.95-.694 5.98.08 1.547 2.456 1.547 2.403 0-.054-1.069-.081-2.136-.134-3.204-.747.214-1.495.4-2.242.614.961 2.109 2.429 3.817 4.244 5.205.641.48 1.575-.053 1.762-.72a16.6 16.6 0 0 0-.401-10.544c-.453-1.175-2.455-1.122-2.349.32.214 3.203.428 6.433.614 9.636.748-.213 1.495-.4 2.243-.614-1.388-2.589-.454-6.032-2.349-8.328-.614-.747-1.762-.267-2.002.534-.935 2.856-.027 5.846-.668 8.729.721-.107 1.468-.187 2.189-.294-.641-1.415-1.254-2.83-1.895-4.271-.401-.908-2.029-.694-2.189.294-.294 1.868-.16 4.484 1.468 5.765.748.588 1.735.641 2.669.748 1.255.133 2.536.187 3.818.107a24 24 0 0 0 3.63-.534c.801-.187 1.869-.32 2.429-.961.721-.774.587-2.029.667-3.017.081-1.174.214-2.322.241-3.496.026-1.922-.748-3.604-2.723-4.085-.801-.186-1.628-.08-2.456-.213-1.281-.187-1.415-1.281-2.109-2.189-.881-1.174-2.776-1.922-3.977-.774-.774.747-.614 1.708-.587 2.67.026.853-.401 3.016-1.762 2.428-1.628-.373-2.856 1.709-1.441 2.296M38.221 93.748c1.869 1.709 3.63 3.55 5.152 5.58 1.015 1.334 2.056 4.003 3.87 4.377 1.068.214 1.923-.347 2.723-.988 1.095-.88 2.163-1.788 3.257-2.696 1.095-.907 2.162-1.788 3.257-2.696.774-.64 1.655-1.228 1.708-2.322.053-1.041-.614-1.815-1.228-2.59-.854-1.094-1.735-2.188-2.59-3.283-.853-1.094-1.734-2.188-2.588-3.283-.641-.8-1.228-1.868-2.296-2.109-.961-.213-1.842.347-2.643.774a33 33 0 0 0-3.096 1.869 35.3 35.3 0 0 0-5.419 4.565c-.507.534-.454 1.521.24 1.895 1.735.88 3.39 1.922 4.885 3.203.667.56 1.308 1.175 1.922 1.815.294.32.587.64.881.988.187.213.374.454.56.667.24.641.588.614 1.015-.133.107.72.187 1.468.294 2.189a34 34 0 0 0 7.5-6.167c.908-1.014-.24-2.562-1.468-1.895a33.5 33.5 0 0 1-5.792 2.483l1.361 1.761c1.121-1.788 2.51-3.336 4.138-4.698a91 91 0 0 1-1.896-1.468 23.3 23.3 0 0 1-5.418 5.686l1.761 1.361c.694-2.509 2.11-4.724 4.218-6.3l-1.655-1.654c-1.201 2.375-2.883 4.404-5.045 5.952h1.201c.08.08.134.187.214.267.053-.213.106-.427.16-.614.08-.267.16-.534.267-.827.24-.72.56-1.388.907-2.056.668-1.254 1.495-2.349 2.483-3.363-.64-.48-1.255-.961-1.895-1.468a23.7 23.7 0 0 1-5.82 7.58c.694.294 1.362.561 2.056.855.293-3.15 1.655-6.033 3.87-8.302-.64-.48-1.254-.96-1.895-1.468a12.03 12.03 0 0 1-4.778 5.019c.614.347 1.201.694 1.815 1.04-.026-.96.107-1.895.56-2.749.188-.374.428-.72.695-1.014.427-.507 1.228-.64.48-1.121-.347-.427-.534-.4-.56.133-.134.267-.24.534-.374.801-.214.4-.427.774-.64 1.148-.24.373-.481.747-.748 1.094-.214.267-.4.534-.64.801-.374.214-.401.374-.08.454l.56.72c-.267-.854.614-2.455 1.014-3.176.24-.4 1.628-2.696 2.242-2.563.294.054.694 1.549.801 1.816.214.587.4 1.2.534 1.815.133.614.294 1.254.294 1.868 0 .721 0 .748-.588.24-1.681-1.44-1.868-5.098.614-5.925 1.255-.427 1.629 1.174 1.922 2.082.427 1.308.828 2.642 1.255 3.977.667-.4 1.335-.774 2.002-1.174-1.495-1.469-2.296-3.337-2.35-5.446-.506.374-1.013.774-1.52 1.148 2.802 1.068 3.256 4.591 3.63 7.154.213 1.521 2.535.88 2.322-.64-.534-3.631-1.521-7.422-5.312-8.836-.72-.267-1.548.427-1.522 1.147.054 2.723 1.122 5.206 3.043 7.127.828.828 2.376 0 2.002-1.174-.48-1.522-.907-3.043-1.44-4.538-.375-1.068-.855-2.189-1.843-2.83-2.135-1.414-4.645.187-5.739 2.136a6.13 6.13 0 0 0 .774 7.02c1.415 1.575 4.164 2.43 4.938-.213.695-2.35-.507-5.82-1.681-7.848-1.602-2.723-4.244-.667-5.606 1.094a11.3 11.3 0 0 0-1.681 3.043c-.374 1.015-.988 2.67-.24 3.657 1.761 2.296 4.297-1.601 5.071-2.882.667-1.068 1.628-2.536 1.468-3.871-.16-1.255-1.334-1.842-2.456-1.361-2.455 1.067-3.71 4.35-3.603 6.833a1.22 1.22 0 0 0 1.815 1.041 14.55 14.55 0 0 0 5.632-5.872c.614-1.175-.907-2.456-1.895-1.468-2.67 2.722-4.218 6.193-4.565 9.983-.106 1.121 1.335 1.468 2.056.854a25.4 25.4 0 0 0 6.193-8.061c.56-1.175-.881-2.483-1.895-1.469a17.6 17.6 0 0 0-3.63 5.5c-.561 1.36-1.736 3.95.08 4.884.373.187.853.24 1.2 0 2.51-1.788 4.538-4.057 5.926-6.806.48-.962-.587-2.43-1.655-1.656-2.616 1.976-4.457 4.592-5.312 7.742-.267.934.881 2.002 1.762 1.361a26.2 26.2 0 0 0 6.3-6.54c.8-1.201-.908-2.269-1.895-1.468a21 21 0 0 0-4.512 5.179c-.56.88.374 2.082 1.362 1.761a34.5 34.5 0 0 0 6.38-2.722c-.481-.641-.962-1.255-1.469-1.896a31.1 31.1 0 0 1-7.02 5.793c-.961.587-.64 1.815.294 2.189 1.12.453 2.322-.454 2.375-1.602.08-1.388-1.361-2.696-2.215-3.604a26.3 26.3 0 0 0-7.581-5.685c.08.64.16 1.254.24 1.895a36 36 0 0 1 4.004-3.524c1.281-.96 2.883-2.242 4.404-2.75.454-.16.428-.24.801.134s.668.828.961 1.228c.587.748 1.202 1.522 1.789 2.27.64.827 1.308 1.654 1.948 2.482.347.454 1.762 1.815 1.655 2.322-.106.587-1.575 1.441-2.055 1.842l-2.242 1.842-2.243 1.842c-.32.267-1.014 1.041-1.575.747-.213-.107-.587-.908-.72-1.094-1.949-2.937-4.271-5.58-6.86-7.955-1.068-.934-2.777.747-1.629 1.788"/><path fill="#5222D0" d="M39.503 91.613c.96 1.868 6.994 12.279 9.556 8.728.908-1.254-1.174-2.455-2.082-1.2-.053.053-.08.133-.133.186.347-.187.694-.4 1.04-.587-.453.053-1.547-1.468-1.841-1.815-.587-.668-1.175-1.335-1.709-2.056a33.4 33.4 0 0 1-2.749-4.457c-.694-1.389-2.776-.16-2.082 1.2"/><path fill="#EC615B" d="M87.258 58.645c-2.857-2.082-3.951-6.353-2.163-9.476.881-1.549 2.483-2.803 4.352-2.59 1.921.214 2.856 1.602 2.99 3.417.08 1.014-.028 2.055-.054 3.07-.054.96.053 2.082-.214 3.016s-1.228 1.442-1.601 2.376c-.32.8.026 1.495-.908 1.762-.267.08-.64.053-.88.133-.428-.053-.428.027 0 .214-.108-.347-.188-.668-.294-1.015-.348-1.174-.695-2.375-1.041-3.55-.588-1.975-1.816-4.885-.267-6.727-.641.08-1.282.16-1.95.24.935.695.588 3.524.642 4.485l.24 6.006c.08 2.109 2.99 2.029 3.203 0 .214-2.109-.08-4.19-.16-6.326-.053-.908-.053-1.842.08-2.75.053-.453.16-.88.294-1.308.08-.293.213-.587.347-.854.293-.454.293-.507.026-.16l-1.228.16c-.08-.026.294.961.347 1.175.107.4.16.827.214 1.228.107 1.12.107 2.269.053 3.39-.026.507-.08 1.014-.16 1.548l-.16.96c-.267.642.187.802 1.361.401.107-.213-.186-1.067-.213-1.308-.054-.56-.08-1.148-.054-1.708a14.5 14.5 0 0 1 .694-4.138c.4-.694-.026-.934-1.28-.694-.108.187.32 1.202.373 1.388.24 1.122.294 2.27.187 3.417-.054.534-.107 2.27-.721 2.403-2.002.48-1.148 3.577.854 3.096 2.109-.507 2.696-2.643 2.963-4.538.294-2.242.187-4.778-.667-6.887-.828-2.029-3.257-2.055-4.324-.187-1.068 1.869-1.308 4.512-1.282 6.62.027 1.709.054 4.645 2.109 5.259 2.269.667 3.07-1.788 3.31-3.497.32-2.242.4-4.538.027-6.78-.267-1.655-1.335-4.831-3.604-4.218-2.189.561-2.616 4.378-2.723 6.193-.133 2.723.454 5.42.187 8.142h3.203a822 822 0 0 0-.347-8.088c-.08-2.056-.4-3.87-2.135-5.152-.507-.4-1.522-.24-1.949.24-1.761 2.082-1.895 4.645-1.281 7.207.32 1.388.774 2.776 1.175 4.138.373 1.281.587 2.83 1.28 3.95 1.095 1.816 4.138 1.389 5.713.454.828-.48 1.388-1.281 1.602-2.215.133-.587.08-.828.454-1.308.427-.534.854-.961 1.12-1.602.454-1.014.481-2.135.535-3.203.053-1.335.186-2.696.16-4.057-.054-2.376-.828-4.618-2.883-5.98-3.95-2.616-8.916-.187-10.784 3.764-2.19 4.671-.427 10.197 3.657 13.187 1.628 1.254 3.23-1.522 1.575-2.723"/><path fill="#EC615B" d="M87.097 65.72c.534.854 1.495 1.174 2.456.88.427-.133.8-.373 1.12-.666.08-.08.188-.16.268-.267.08-.08.053-.08-.054.026.507-.267.107-.347-1.174-.293.64.533 1.655.667 2.269 0 .56-.588.667-1.682 0-2.27-.775-.667-1.762-.773-2.67-.24-.293.16-.587.4-.8.668-.187.24.24-.16-.054.053.053-.026.107-.053.16-.053q-.84.2 1.202.56c-.454-.72-1.442-1.067-2.19-.587-.667.454-1.014 1.442-.533 2.189"/><path fill="#EC615B" d="M87.844 67.828v.24c0 .4.187.855.48 1.121.267.268.721.481 1.121.481.428-.027.855-.16 1.122-.48.293-.32.48-.694.48-1.122v-.24c0-.4-.187-.854-.48-1.121-.267-.267-.721-.48-1.122-.48-.427.026-.854.16-1.12.48-.294.294-.481.667-.481 1.121M71.989 38.306A485 485 0 0 0 92.196 12.52c-.614.24-1.202.48-1.815.748.613.186 1.067.507 1.521.96-.08-.64-.16-1.28-.24-1.948-6.166 8.809-12.306 17.591-18.472 26.4.72-.187 1.468-.374 2.189-.587-.534-.32-1.068-.641-1.602-.988.187.72.374 1.468.587 2.189a110 110 0 0 0 7.688-11.425c1.041-1.788-1.735-3.39-2.776-1.628a113 113 0 0 1-7.688 11.425c-.534.694-.08 1.788.588 2.188.533.32 1.067.641 1.601.988.774.48 1.709.134 2.189-.587 6.166-8.81 12.306-17.591 18.472-26.4.4-.587.213-1.468-.24-1.949a6.84 6.84 0 0 0-2.937-1.788c-.72-.24-1.388.16-1.815.747a458 458 0 0 1-19.7 25.119c-1.334 1.628.935 3.924 2.243 2.322M54.024 129.065v-.24c0-2.056-3.204-2.056-3.204 0v.24c0 2.082 3.203 2.082 3.203 0v-.24c0-2.056-3.203-2.056-3.203 0v.24c0 2.082 3.203 2.082 3.203 0M28.452 106.721c2.055 0 2.055-3.203 0-3.203s-2.056 3.203 0 3.203"/><path fill="#5222D0" d="M35.685 108.137c1.548 0 1.548-2.403 0-2.403s-1.549 2.403 0 2.403M133.786 47.115c1.548 0 1.548-2.402 0-2.402s-1.548 2.402 0 2.402M148.84 83.419v.454c0 .32.133.64.347.854s.56.374.854.347c.32-.027.641-.107.854-.347.214-.24.347-.534.347-.854v-.454c0-.32-.133-.64-.347-.854s-.56-.374-.854-.347c-.32.026-.641.106-.854.347-.214.24-.347.534-.347.854"/><path fill="#161616" d="M139.15 64.36c4.538.72 10.891 2.829 9.209 8.755-.774 2.722-2.909 4.671-5.018 6.406-2.082 1.682-4.137 3.337-6.033 5.232-1.815 1.815-3.47 3.79-4.991 5.873-1.202 1.655-2.857 3.71-2.67 5.926.16 1.975 1.896 2.455 3.47 3.07 2.269.88 4.672 2.429 5.553 4.804 1.174 3.203-1.282 6.033-3.604 7.928-2.082 1.709-4.351 3.177-5.766 5.526-.267.454.427.854.694.4 2.536-4.271 8.996-5.979 9.717-11.371.293-2.109-.668-4.084-2.189-5.499-.748-.721-1.628-1.308-2.536-1.815-1.094-.588-2.376-.828-3.443-1.442-2.99-1.735.747-6.166 2.028-7.848a47.4 47.4 0 0 1 6.166-6.7c3.631-3.31 9.317-6.246 9.717-11.772.4-5.605-5.606-7.5-10.037-8.194-.56-.134-.774.64-.267.72M60.298 63.505c-4.751 5.846-10.117 11.158-16.042 15.803-5.82 4.564-12.146 8.195-18.58 11.798-5.925 3.337-11.904 6.754-16.976 11.372-2.27 2.055-4.778 4.458-6.06 7.314-.987 2.216-1.067 5.098 1.468 6.246 1.389.614 3.017.401 4.458.16 2.35-.4 4.672-.907 6.994-1.361 2.376-.454 4.751-.934 7.127-1.388 2.27-.427 6.513-.828 6.62 2.563.027.507.828.507.801 0-.107-3.15-3.47-3.951-6.06-3.631-3.95.507-7.847 1.495-11.771 2.243-2.75.533-10.09 2.749-9.557-2.51.347-3.39 3.55-6.326 5.873-8.542 4.912-4.644 10.81-8.088 16.683-11.398 6.167-3.47 12.306-6.887 17.965-11.158A102.7 102.7 0 0 0 60.806 64.04c.373-.373-.187-.934-.508-.534M17.829 118.333c-2.35 2.83-5.099 6.167-4.671 10.091.32 3.016 2.482 5.846 5.739 5.632 2.082-.134 3.924-1.281 5.739-2.162 2.269-1.095 4.591-2.082 6.994-2.803 2.375-.694 4.858-1.148 7.34-1.201 1.976-.027 4.218.107 5.873 1.334 2.509 1.816.96 4.538-.374 6.567A49 49 0 0 0 41 141.85a47.5 47.5 0 0 0-2.35 5.953c-.48 1.522-1.04 3.31.134 4.645 2.51 2.909 6.327.427 8.435-1.548 3.23-3.017 6.727-5.526 10.758-7.395a39.5 39.5 0 0 1 14.361-3.576c2.51-.134 5.045-.054 7.528.347 2.215.347 4.698 1.041 5.739 3.256.213.454.907.054.694-.4-1.442-3.123-5.392-3.604-8.435-3.897-3.978-.374-8.035-.081-11.932.774-3.898.854-7.715 2.295-11.185 4.271a39.6 39.6 0 0 0-4.858 3.256c-1.735 1.362-3.203 3.043-4.965 4.298-1.575 1.121-4.939 1.949-5.873-.507-.453-1.202.134-2.59.507-3.764q.6-1.842 1.362-3.604a45.6 45.6 0 0 1 3.096-6.006c1.041-1.681 2.59-3.39 2.963-5.392.614-3.256-2.589-4.938-5.339-5.339-4.084-.56-8.408.374-12.252 1.762-2.349.854-4.564 1.949-6.807 3.043-2.322 1.148-5.205 2.029-7.18-.24-3.684-4.218.187-9.53 2.99-12.92.346-.373-.214-.934-.561-.534"/><path fill="#161616" d="M33.178 131.842c2.509-.801 4.724 1.655 4.778 4.031.053 2.509-1.602 4.671-3.257 6.379-.374.374.214.935.56.561 2.03-2.082 4.138-5.045 3.337-8.142-.64-2.429-3.096-4.404-5.632-3.603-.48.16-.294.934.214.774M126.419 62.973c1.228 1.014 2.669 1.228 4.191 1.548 1.655.347 3.096.987 4.244 2.269 2.162 2.429 2.83 6.086 1.228 8.969-.24.454.427.854.694.4 1.548-2.776 1.228-6.193-.48-8.809-.801-1.227-1.922-2.295-3.284-2.936-1.922-.907-4.324-.614-6.032-2.002-.401-.32-.961.24-.561.56M28.53 119.829c1.522 4.084 6.354 3.043 9.317 1.442a23.6 23.6 0 0 0 5.205-3.817c1.655-1.629 2.99-3.551 4.618-5.206 1.789-1.815 4.298-3.47 6.994-3.016 2.429.4 3.897 2.563 5.445 4.218 2.029 2.135 6.113 4.324 8.169.934.266-.454-.428-.854-.695-.401-1.308 2.136-4.084 1.389-5.685.107-1.442-1.174-2.483-2.776-3.898-3.977-2.669-2.296-6.005-2.082-8.835-.16-3.123 2.109-5.018 5.605-7.875 8.035-1.681 1.414-3.63 2.722-5.712 3.496-2.216.828-5.312.774-6.273-1.841-.187-.508-.961-.294-.774.186M35.207 94.95a39.1 39.1 0 0 1 8.488 10.437c.24.454.934.054.694-.4a38.9 38.9 0 0 0-8.622-10.598c-.374-.347-.96.24-.56.561"/><path fill="#161616" d="M35.9 94.097c2.883-3.818 6.967-7.715 11.505-9.45.72-.267 1.548-.507 2.322-.32.961.213 1.522 1.04 2.082 1.788.801 1.041 1.575 2.109 2.35 3.177a108 108 0 0 1 4.324 6.593c.267.427.96.027.694-.4a113 113 0 0 0-5.5-8.195c-1.467-2.002-2.802-4.351-5.658-3.684-2.483.587-4.858 2.402-6.807 3.924-2.27 1.788-4.271 3.87-6.033 6.166-.267.4.427.801.72.4"/><path fill="#161616" d="M44.176 105.734c5.445-2.296 10.304-5.659 14.334-9.984.347-.374-.213-.934-.56-.56-3.924 4.217-8.676 7.554-13.988 9.769-.48.214-.267.988.214.775M38.998 94.63a40.7 40.7 0 0 1 10.17-6.753c.454-.214.053-.908-.4-.694-3.791 1.762-7.235 4.084-10.331 6.887-.4.32.187.907.56.56M41.214 95.967c1.655-1.201 3.31-2.376 4.965-3.577.427-.294.027-.988-.4-.694-1.656 1.201-3.31 2.376-4.966 3.577-.427.32-.026 1.014.4.694M42.333 97.806c2.776-1.95 5.552-3.924 8.328-5.873.428-.294.027-.988-.4-.694-2.776 1.948-5.552 3.924-8.328 5.873-.428.293-.027.987.4.694M44.683 99.996c1.708-1.388 3.496-2.616 5.365-3.763.454-.267.027-.961-.4-.694a44.5 44.5 0 0 0-5.526 3.87c-.4.347.16.908.56.587M45.911 102.184c2.51-2.055 5.232-3.763 8.142-5.178.454-.214.053-.908-.4-.694-2.99 1.441-5.74 3.23-8.302 5.312-.4.32.16.881.56.56M100.794 118.948c1.308-1.655-.24-3.683-1.975-4.164-2.082-.587-4.458.401-5.5 2.269-1.174 2.082-.693 4.805.828 6.567 1.949 2.295 7.021 3.684 6.113 7.474-.133.507.641.721.774.214 1.041-4.325-4.164-5.659-6.326-8.249-1.522-1.842-1.789-4.938.133-6.62.774-.667 1.869-1.067 2.883-1.014 1.201.053 3.791 1.361 2.536 2.99-.347.373.214.934.534.533"/><path fill="#161616" d="M101.22 118.789a6.23 6.23 0 0 1 1.949-3.71 6.3 6.3 0 0 1 1.735-1.148c.32-.133.667-.267 1.014-.347.748-.16.908-.16 1.522.374.614.56.64.72.614 1.495 0 .293-.054.587-.08.854-.081.534-.241 1.041-.428 1.548-.4 1.094-1.014 2.109-1.655 3.07-2.295 3.416-5.578 6.54-5.765 10.891-.027.507.774.507.8 0 .241-5.846 6.3-9.21 7.688-14.655.267-1.041.481-2.376.027-3.39-.561-1.175-1.789-1.228-2.91-.961-2.722.641-4.805 3.016-5.232 5.766-.133.507.641.747.721.213M105.757 78.482c-.481 2.589-.587 5.312 0 7.901.56 2.483 2.349 1.949 4.404 2.082 4.672.32 10.865 3.283 13.934-2.002.267-.454-.427-.854-.694-.4-2.616 4.51-8.115 2.295-12.119 1.735-.934-.134-1.815-.134-2.749-.107-1.441 0-1.869-.694-2.082-1.975-.401-2.323-.347-4.672.107-6.994.053-.534-.721-.747-.801-.24"/><path fill="#161616" d="M105.864 79.762c1.442-.881 2.696-1.042 4.325-1.308.694-.107 1.147-.374 1.254-1.095.294-1.815-.48-3.684.961-5.232 1.602-1.735 3.764-.187 4.431 1.575.321.828.507 1.788 1.148 2.456.828.88 1.922.64 2.963.934 4.031 1.095 2.83 6.3 1.975 9.103-.16.48.614.694.775.213.907-2.91 1.815-6.54-.614-8.969-.401-.4-.855-.72-1.362-.934-.774-.32-1.628-.16-2.429-.454-1.548-.56-1.521-2.856-2.456-4.03-1.681-2.083-4.564-1.79-5.712.64-.32.667-.427 1.361-.481 2.082-.053.854.347 2.563-.56 2.91-.641.267-1.628.16-2.323.373-.827.24-1.574.614-2.295 1.041-.427.294-.027.988.4.695"/><path fill="#161616" d="M109.04 78.935c-.401 3.15.133 6.273 1.521 9.13.214.453.908.053.694-.401a15.15 15.15 0 0 1-1.415-8.729c.081-.507-.72-.507-.8 0M83.363 61.185c-3.444-1.602-5.5-5.312-5.312-9.103.213-3.87 2.83-7.394 6.166-9.236 2.082-1.148 4.297-1.495 6.406-.267 1.922 1.095 3.284 2.99 4.058 5.019 1.388 3.683.88 7.874-1.308 11.158-.294.427.4.827.694.4 3.63-5.419 2.803-14.842-3.844-17.644-3.337-1.415-6.887.48-9.29 2.83-2.349 2.295-3.87 5.578-3.683 8.888.213 3.657 2.349 7.1 5.686 8.675.48.187.88-.507.427-.72"/><path fill="#161616" d="M82.987 62.146c-.694.747-.507 1.895.347 2.456 1.388.907 3.79.08 5.258-.267 1.575-.374 3.951-.721 5.019-2.11.64-.853.64-2.028-.187-2.748-.4-.32-.961.24-.56.56 1.227 1.041-.374 2.242-1.335 2.616-.801.294-1.629.534-2.456.748-.774.186-1.548.373-2.322.507-.481.08-1.015.213-1.495.24-.694.027-2.696-.347-1.682-1.415.347-.4-.214-.96-.587-.587"/><path fill="#161616" d="M84.536 65.002c.107 1.575 1.441 2.59 2.99 2.696 2.135.134 3.737-1.655 4.991-3.123.32-.4-.24-.96-.56-.56-.881 1.04-1.869 2.242-3.177 2.696-1.335.48-3.31-.054-3.417-1.709-.053-.507-.854-.507-.827 0"/><path fill="#161616" d="M86.698 67.991c-.214 1.095.454 2.242 1.601 2.43 1.175.186 2.19-.855 2.216-1.976 0-.507-.8-.507-.8 0 0 .667-.642 1.335-1.362 1.175-.614-.134-1.015-.828-.881-1.415.107-.507-.667-.721-.774-.214M81.227 51.092a13.8 13.8 0 0 1 5.179 6.006c.213.48.907.053.694-.4-1.175-2.616-3.043-4.752-5.473-6.3-.453-.267-.854.427-.4.694"/><path fill="#161616" d="M85.337 49.146c.507 3.844 1.04 7.688 1.548 11.505.08.507.827.294.774-.214-.507-3.843-1.041-7.687-1.548-11.504-.08-.508-.828-.294-.774.213"/><path fill="#161616" d="M86.725 55.684c.694-2.51 2.296-4.538 4.565-5.82.453-.24.053-.933-.4-.693a10.35 10.35 0 0 0-4.94 6.3c-.133.507.642.72.775.213M57.63 124.313c1.068 2.322 2.216 4.618 3.497 6.833.64 1.095 1.495 3.177 3.07 2.509.48-.213.053-.881-.4-.694-1.015.427-2.83-3.71-3.177-4.377-.828-1.522-1.575-3.097-2.296-4.672-.213-.48-.907-.08-.694.401"/><path fill="#161616" d="M58.349 124.794c2.269-1.761 4.484-3.576 6.78-5.285 2.002-1.521 4.164-2.99 6.62-3.684 2.643-.774 4.938-.16 6.7 1.976 1.495 1.815 2.403 4.057 3.417 6.139.213.454.907.054.694-.4-1.949-4.004-4.244-9.663-9.716-8.782-2.723.427-5.18 1.922-7.395 3.523-2.616 1.922-5.125 3.978-7.687 5.98-.374.293.186.854.587.533"/><path fill="#161616" d="M63.101 133.737c6.967-1.521 13.427-4.778 18.846-9.423.4-.347-.187-.907-.56-.56-5.313 4.564-11.666 7.714-18.5 9.236-.507.106-.293.881.214.747M69.59 126.211c-1.415-.347-2.59-1.735-2.242-3.256.32-1.469 2.108-2.536 3.523-1.842 2.856 1.441.908 5.552-2.029 4.511-.48-.16-.694.614-.213.774 1.655.587 3.657-.213 4.298-1.895.64-1.655-.4-3.657-2.03-4.244-1.76-.641-3.763.56-4.27 2.322-.587 1.975.854 3.924 2.75 4.404.507.134.72-.64.213-.774M83.814 105.949c-.32-2.856-.347-6.113 3.043-6.887 1.709-.4 3.123-.908 4.11-2.483 1.015-1.601.882-3.096.481-4.858-.293-1.388-.266-2.59.855-3.63.907-.828 2.108-1.148 3.283-.774.48.16.694-.614.213-.774-1.708-.534-3.496.133-4.59 1.548-1.683 2.215.293 4.458-.374 6.833-.4 1.415-1.495 2.616-2.91 3.097-1.148.374-2.376.347-3.337 1.148-2.028 1.655-1.842 4.458-1.575 6.78.054.507.854.507.801 0M77.302 91c-.827-.667-.16-2.162.908-1.601.427.213.694.72.454 1.174s-.854.694-1.308.454-.854.454-.4.694c.827.4 1.841.107 2.349-.64.533-.801.186-1.816-.588-2.296s-1.815-.347-2.322.454c-.454.747-.347 1.788.347 2.349.4.293.96-.267.56-.588M113.818 49.625c-.48-.775-.774-1.762-.48-2.643.24-.748.988-1.201 1.762-1.121.854.08 1.308.88.854 1.628-.401.694-1.228 1.041-2.002.934-.507-.053-.507.748 0 .801 1.148.134 2.402-.56 2.829-1.655a1.79 1.79 0 0 0-1.121-2.402c-.961-.32-2.135.053-2.723.88-.88 1.202-.533 2.83.187 4.031.267.374.961-.026.694-.453M70.763 82.351a7.23 7.23 0 0 0 7.34 3.657c3.631-.533 5.58-3.31 7.021-6.406 1.682-3.577 4.004-6.513 7.715-8.088 3.363-1.415 7.714-.694 10.49-3.337 1.068-1.014 1.789-2.429 1.548-3.924-.187-1.148-.881-2.109-.614-3.31a3.39 3.39 0 0 1 2.616-2.536c.508-.106.294-.88-.213-.774-1.548.347-2.803 1.522-3.177 3.097-.213.854-.053 1.628.214 2.455.427 1.335.587 2.43-.294 3.657-1.548 2.163-4.27 2.456-6.7 2.803-2.162.32-4.19.908-6.06 2.029a14.8 14.8 0 0 0-4.27 3.87c-1.255 1.709-1.949 3.71-2.963 5.553-1.282 2.269-3.39 4.004-6.086 4.164-2.456.133-4.752-1.174-5.953-3.337-.16-.427-.854-.026-.614.427M65.182 38.573c-.454 3.337-.907 6.674-1.334 10.01-.08.508.694.721.774.214.454-3.337.907-6.674 1.334-10.01.08-.507-.694-.721-.774-.214"/><path fill="#161616" d="m65.05 49.039 9.45-6.807c.426-.294.026-.988-.401-.694l-9.45 6.807c-.427.293-.026.987.4.694M65.69 39.029a1607 1607 0 0 0 23.304-32.06c.294-.426-.4-.827-.694-.4a1533 1533 0 0 1-23.303 32.06c-.294.4.4.8.694.4M75.487 41.03A816 816 0 0 0 96.63 11.72c.293-.427-.4-.828-.694-.4a840 840 0 0 1-21.142 29.309c-.32.4.374.8.694.4"/><path fill="#161616" d="M88.754 6.969c1.254-2.35 2.722-5.205 5.498-5.98 2.75-.774 5.446 1.309 5.5 4.165 0 .507.8.507.8 0-.027-2.75-2.349-5.232-5.178-5.152-3.71.107-5.793 3.657-7.314 6.567-.24.453.453.854.694.4"/><path fill="#161616" d="M96.787 11.64a57 57 0 0 0 3.684-6.3c.24-.454-.454-.854-.694-.4a57 57 0 0 1-3.684 6.3c-.267.4.427.827.694.4"/><path fill="#161616" d="M88.167 8.276c3.07-2.082 7.047-.96 8.569 2.403.213.48.907.053.694-.4-1.709-3.764-6.273-5.019-9.663-2.697-.427.294-.027.988.4.694"/><path fill="#161616" d="M86.751 10.679c2.67-1.708 6.593-.587 7.821 2.402.187.48.961.267.774-.213-1.441-3.417-5.846-4.885-8.995-2.883-.427.293-.027.988.4.694M65.211 39.401c1.468.881 2.936-1.04 4.458-1.014 1.148.027 2.216.56 2.883 1.522.48.694.72 1.361 1.495 1.761.454.24.854-.453.4-.694-.907-.48-1.174-1.655-1.948-2.322a4.4 4.4 0 0 0-1.869-.934 4.6 4.6 0 0 0-2.082 0c-.854.213-2.109 1.468-2.91.987-.454-.267-.854.428-.427.694"/><path fill="#161616" d="M69.59 37.959c5.391-7.1 10.81-14.228 16.202-21.328.32-.4-.374-.801-.694-.4-5.392 7.1-10.81 14.227-16.203 21.328-.293.4.4.8.694.4M78.049 32.622a312 312 0 0 1 15.963-21.408c.32-.4-.24-.961-.56-.56C87.791 17.62 82.4 24.8 77.354 32.221c-.267.427.427.827.694.4M64.89 46.503a.685.685 0 0 1 1.121.668c-.107.507.667.72.774.213.134-.64-.107-1.308-.694-1.655s-1.281-.213-1.788.214c-.374.32.187.88.587.56"/><path fill="#161616" d="M65.13 46.395a4 4 0 0 1-.72 1.522c.213.133.453.267.666.4.16-.587.48-1.094.935-1.521l-.641-.08a.6.6 0 0 1-.24.774c.187.08.4.16.587.24a1.07 1.07 0 0 1 .214-1.014 3 3 0 0 1-.48.053c.213.107.186.4-.028.507.16.027.32.053.48.053a1.3 1.3 0 0 1-.373-.48c-.026-.08-.053-.16-.08-.267 0-.053-.053-.614-.133-.454-.24.454.454.855.694.4.373-.693-.588-1.307-1.121-.747-.561.614-.054 1.629.48 2.082.133.134.32.16.48.054.748-.374.748-1.495.027-1.895-.133-.08-.373-.08-.48.053-.427.507-.588 1.148-.427 1.788.053.24.373.374.587.24.667-.4.854-1.2.534-1.868-.107-.24-.454-.24-.64-.08a3.76 3.76 0 0 0-1.122 1.868c-.107.347.4.721.667.4.427-.56.748-1.174.935-1.868.106-.453-.668-.667-.801-.16M63.634 50.585c-.534 2.883-1.735 5.525-3.63 7.767-.32.4.24.962.56.561 1.976-2.376 3.284-5.098 3.844-8.141.08-.48-.694-.694-.774-.187M58.055 53.922a71 71 0 0 1-8.756 5.526c-.454.24-.053.934.4.694a71 71 0 0 0 8.756-5.526c.427-.32.027-1.014-.4-.694M123.216 114.946c-.72-1.121-1.922-.534-2.562.32-.694.881-1.255 1.922-1.842 2.883-.454.748-.988 1.575-1.068 2.509-.16 1.869 1.255 2.082 2.67 2.536 1.681.561 1.574 2.536.507 3.63-.855.881-2.109 1.255-3.23 1.629-.481.16-.267.934.213.774 2.243-.721 5.579-2.349 4.431-5.339a2.33 2.33 0 0 0-.934-1.148 4 4 0 0 0-.774-.32c-.774-.24-.988-.16-1.602-.827-.507-.294-.667-.694-.427-1.228.107-.374.241-.721.427-1.041.214-.427.481-.828.748-1.228.267-.401 2.135-3.764 2.749-2.776.267.453.961.053.694-.374M77.38 146.364c2.19-.561 4.058 1.602 3.097 3.684-.213.453.48.88.694.4 1.255-2.696-1.068-5.606-3.977-4.858-.534.133-.32.907.187.774M118.276 102.398c-1.014-.747-1.014-2.696.534-2.75.561-.026 1.148.294 1.121.909 0 .507-.454 1.121-1.014 1.041-.507-.081-.721.694-.214.774.988.16 1.842-.561 2.002-1.522.187-.987-.534-1.842-1.494-1.975-.988-.16-2.002.4-2.35 1.361-.347 1.068.134 2.216 1.015 2.856.4.294.801-.4.4-.694M6.698 99.09c.373-1.495 1.655-2.349 2.856-3.176 1.255-.881 2.536-1.789 3.817-2.67 2.536-1.788 5.072-3.55 7.608-5.338.427-.294.027-.988-.4-.694-2.964 2.082-5.927 4.137-8.89 6.22-2.002 1.387-5.125 2.855-5.765 5.445-.134.507.64.72.774.213"/><path fill="#fff" stroke="#161616" stroke-width="3" d="m185.784 239.414-97.298-16.657c19.7-7.954 39.4-15.882 59.1-23.837 30.804 6.86 61.609 13.72 92.386 20.581-18.044 6.646-36.116 13.266-54.188 19.913Z"/><path fill="#161616" d="M184.451 239.816c.107.321.187.668.294.988.133.427.774.347.774-.107v-.774c0-.507-.801-.507-.801 0 0 .32-.053.614-.187.908h.774a1.97 1.97 0 0 1-.053-1.041c-.24.026-.48.053-.721.106.08.08.08.134.027.214.24.027.481.053.721.107a.57.57 0 0 1 .08-.507c-.24-.081-.507-.134-.748-.214-.053.427-.106.827-.16 1.255-.026.213.214.4.401.4.24 0 .373-.187.4-.4.053-.428.107-.828.16-1.255.054-.4-.56-.507-.747-.214a1.44 1.44 0 0 0-.16 1.148c.08.347.56.374.72.107.214-.32.214-.721-.026-1.014-.187-.241-.668-.267-.721.106-.107.481-.08.988.053 1.469.134.4.641.347.774 0 .134-.374.214-.748.214-1.122h-.801v.775c.267-.027.534-.081.774-.107-.106-.321-.187-.668-.293-.988-.107-.56-.881-.347-.748.16"/><path fill="#161616" d="M185.064 241.738c4.298-2.216 8.996-3.39 13.614-4.698 2.269-.641 4.511-1.335 6.673-2.242 2.082-.855 4.084-1.922 6.14-2.883 4.564-2.136 9.503-3.524 14.281-5.099 4.965-1.655 9.903-3.31 14.868-4.938.481-.16.267-.934-.213-.774-4.965 1.655-9.904 3.31-14.869 4.938-4.698 1.548-9.529 2.936-14.041 4.992-2.349 1.067-4.644 2.322-7.047 3.256-2.189.855-4.431 1.522-6.7 2.163-4.458 1.281-8.969 2.455-13.133 4.591-.427.24-.027.934.427.694"/><path fill="#161616" d="M185.439 241.578a5907 5907 0 0 0 55.229-19.406c1.442-.508.828-2.83-.64-2.323a5638 5638 0 0 1-55.229 19.407c-1.442.507-.828 2.829.64 2.322M183.355 215.792c3.47.347 6.433 2.456 9.85 3.123.507.107.721-.667.213-.774-3.47-.694-6.486-2.803-10.063-3.15-.507-.027-.507.774 0 .801"/><path fill="#161616" d="M193.446 218.542c2.109-1.148 4.084-2.509 5.872-4.111.374-.347-.187-.907-.56-.56a30 30 0 0 1-5.713 3.977c-.453.267-.053.961.401.694M184.183 214.27a76 76 0 0 1 5.205-3.416c.454-.267.027-.961-.401-.694a67 67 0 0 0-5.205 3.416c-.427.321-.026 1.015.401.694"/><path fill="#161616" d="M189.521 210.985c3.043 1.148 6.086 2.269 9.156 3.417.48.187.694-.587.213-.774-3.043-1.148-6.086-2.269-9.156-3.417-.48-.16-.694.614-.213.774M180.954 218.835a267 267 0 0 1 23.731 8.569c.48.186.694-.588.213-.775a267 267 0 0 0-23.73-8.568c-.508-.16-.721.614-.214.774M181.729 225.055c4.992 2.402 10.037 4.671 15.135 6.887.481.213.881-.481.401-.694a387 387 0 0 1-15.136-6.887c-.453-.214-.854.48-.4.694M182.448 231.914c2.722 1.388 5.445 2.803 8.168 4.191.454.24.854-.454.4-.694-2.722-1.388-5.445-2.803-8.168-4.191-.454-.241-.854.454-.4.694"/><path fill="#161616" d="M183.995 232.153c3.764-3.204 7.715-6.14 11.825-8.863.428-.293.027-.987-.4-.694a127 127 0 0 0-11.985 8.996c-.401.347.16.908.56.561M183.008 226.682a894 894 0 0 0 6.406-4.511c.427-.293.027-.987-.4-.694a963 963 0 0 0-6.407 4.511c-.4.294 0 .988.401.694"/><path fill="#fff" stroke="#161616" stroke-width="3" d="M184.343 241.257 83.681 224.12c-3.15-23.837-6.326-47.648-9.476-71.485 36.116 4.858 72.206 9.716 108.323 14.601.614 24.665 1.228 49.33 1.815 74.021Z"/><path fill="#161616" d="M124.548 200.016c-2.91-.908-4.485-3.364-4.725-6.327-.24-3.016.347-5.926 3.15-7.501 2.482-1.388 5.445-.987 7.661.694s4.191 5.125 2.402 7.768c-.293.427.401.828.694.401 1.922-2.83.107-6.567-2.242-8.516-2.429-2.002-5.712-2.616-8.569-1.201-3.31 1.628-4.164 4.938-3.897 8.382.267 3.337 2.029 6.086 5.312 7.1.481.134.694-.64.214-.8"/><path fill="#161616" d="M125.298 200.31c-1.228-2.029-.828-4.858 1.148-6.273s4.804-.828 6.299.988c.321.4.881-.161.561-.561-1.762-2.109-5.072-2.696-7.368-1.068-2.295 1.655-2.776 4.965-1.334 7.314.267.427.961.027.694-.4"/><path fill="#161616" d="M128.045 201.43c-1.254-1.334-1.067-3.817.614-4.778 1.655-.961 3.898.134 4.431 1.895.161.481.935.294.775-.213-.694-2.242-3.497-3.577-5.606-2.349s-2.376 4.324-.774 6.033c.347.347.907-.214.56-.588"/><path fill="#161616" d="M130.102 203.3c1.041.374 2.242-.24 2.642-1.228.427-.987-.133-2.055-1.067-2.482-.935-.427-2.056-.187-2.563.72-.48.881-.32 2.083.481 2.723.4.321.96-.24.56-.56-1.068-.828-.32-2.776 1.095-2.189.613.24 1.041.881.747 1.548-.294.641-1.041.961-1.682.721-.48-.187-.694.587-.213.747"/><path stroke="#161616" stroke-width="3" d="m182.527 167.209 2.349 73.541M182.688 167.156l2.162 72.553"/><path fill="#3D3D3D" d="M136.481 162.244c1.735.908 16.63 9.023 17.671 23.437.587 7.955-3.31 13.988-5.766 17.671-13.24 19.914-39.426 23.437-46.527 24.185 10.331 6.86 46.421 29.469 85.874 28.135 8.782-.294 22.396-.908 37.157-9.023 11.078-6.086 18.258-13.907 22.369-19.112-2.536-1.575-5.045-3.124-7.581-4.698a47320 47320 0 0 1-55.923 19.112l-2.883-73.968a7970 7970 0 0 1-44.391-5.739" opacity=".37"/><path fill="#3D3D3D" d="M115.26 229.273a114 114 0 0 0 15.776 8.729c8.648 3.95 34.248 15.642 61.982 9.156 20.154-4.725 35.743-17.672 34.728-19.807-.64-1.335-8.461.053-43.296 13.907-.561-11.291-1.122-22.609-1.655-33.901-.961 9.503-1.949 19.006-2.91 28.482-21.542-2.162-43.084-4.377-64.625-6.566" opacity=".5"/><path fill="#5222D0" d="M122.44 198.843c-1.949-2.136-2.589-5.126-1.628-7.742.987-2.642 3.603-4.911 6.727-4.804 2.749.106 4.965 2.028 5.765 3.843.588 1.389.454 2.67.454 2.67a4.5 4.5 0 0 1-.507 1.628c-1.361-1.575-3.443-2.296-5.392-1.842-2.403.561-3.444 2.616-3.55 2.803-1.095 2.242-.134 4.324 0 4.565a49 49 0 0 0-1.869-1.121"/><path fill="#fff" stroke="#161616" stroke-width="3" d="M257.509 165.046a21.4 21.4 0 0 0-4.404 4.405c-5.259 7.073-4.538 15.375-4.164 18.071-4.672-.961-12.52-1.895-21.782.24a50.6 50.6 0 0 0-13.214 5.099c.507.32 1.202.694 2.082.934 4.992 1.362 10.251-2.829 10.411-2.536.16.267-5.873 3.097-5.552 5.553.213 1.655 3.176 2.535 6.246 3.47 2.589.774 5.045 1.521 8.328 1.148 4.512-.508 7.635-2.777 9.023-3.951a39 39 0 0 0 5.792 2.322c4.565 1.388 10.865 3.31 15.055.694 2.723-1.708 3.551-5.712 5.099-13.667 1.975-10.197 2.963-15.295.24-18.525-3.603-4.298-10.837-3.577-13.16-3.257Z"/><path fill="#161616" d="M248.033 187.792c3.229 1.201 5.899 3.39 7.741 6.3.267.427.961.026.694-.401-1.949-3.096-4.805-5.392-8.222-6.673-.48-.16-.694.614-.213.774M230.869 193.076c-3.177.534-5.739 2.669-6.887 5.659-.187.481.587.694.774.214 1.041-2.723 3.444-4.618 6.326-5.099.508-.08.294-.854-.213-.774"/><path fill="#161616" d="M224.358 199.24c1.655 1.575 3.95 2.109 6.112 1.415.481-.16.267-.934-.213-.774-1.895.614-3.897.187-5.339-1.201-.374-.374-.934.187-.56.56"/><path fill="#161616" d="M234.579 195.718c-1.148.694-2.216 1.495-3.23 2.349-.668.588-1.415 1.282-1.255 2.243.401 2.536 3.444 1.975 5.099 1.334.48-.187.267-.961-.214-.774-.721.267-1.521.614-2.296.587-1.254-.053-2.375-1.254-1.308-2.349 1.015-1.067 2.35-1.922 3.604-2.722.454-.241.054-.935-.4-.668"/><path fill="#EC615B" d="M256.176 126.955a40 40 0 0 1 4.004 3.55 35 35 0 0 1 2.616 2.937c1.709 2.135 2.803 4.164 4.004 6.646 1.548 3.177 3.097 6.353 4.645 11.105 1.308 4.004 3.31 10.304 3.55 18.685a57 57 0 0 1-.32 8.035c-1.095-1.254-2.189-2.082-3.097-2.616-5.098-3.123-11.291-2.002-17.137-.934a60 60 0 0 0-5.259 1.228c.321-2.937.614-5.873.935-8.809.267-2.456.507-4.938.774-7.421a30 30 0 0 1-1.842-3.71c-1.255-3.017-3.764-8.943-2.322-15.589 1.708-7.635 7.714-11.959 9.449-13.107"/><path fill="#161616" d="M257.109 128.425c2.669 1.388 4.458 3.791 6.006 6.273a76 76 0 0 1 4.324 7.928c2.616 5.552 4.538 11.425 5.793 17.431.107.507.881.294.774-.214a77.5 77.5 0 0 0-6.086-18.071c-1.361-2.83-2.856-5.579-4.565-8.222-1.521-2.349-3.31-4.538-5.819-5.846-.48-.213-.881.481-.427.721M248.78 155.572a194 194 0 0 0 3.844 7.421c.24.454.934.054.694-.4a197 197 0 0 1-3.844-7.421c-.24-.481-.934-.08-.694.4"/><path fill="#161616" d="M250.674 160.163c-.667 5.179-1.335 10.357-1.975 15.536-.027.267.293.454.507.373 4.538-1.441 9.263-2.135 14.014-1.975 3.764.134 8.756.481 10.864 4.164.267.454.935.054.694-.4-2.002-3.524-6.379-4.244-10.063-4.485-5.312-.373-10.651.321-15.696 1.922.16.134.347.267.507.374.668-5.179 1.335-10.357 1.976-15.536.053-.48-.748-.48-.828.027"/><path fill="#161616" d="M273.18 159.656c.934 5.872 2.455 12.092.881 17.991-.134.508.64.721.774.214 1.601-6.033.08-12.386-.881-18.419-.08-.507-.854-.293-.774.214"/><path fill="#3D3D3D" d="M254.145 125.969a102.5 102.5 0 0 1 6.913 16.176c4.031 12.279 5.099 23.304 5.179 31.552l-8.168.48c.881 6.327 1.788 12.68 2.669 19.006a27.2 27.2 0 0 0-7.688-2.99c-1.094-.24-5.125-1.041-9.423-.32-9.022 1.522-14.467 8.916-15.695 10.678 1.228.507 2.802.987 4.698 1.094 5.819.347 10.063-3.016 11.318-4.084 3.977 2.002 7.447 2.963 9.903 3.443 4.298.881 9.316 1.896 12.092-.774.214-.213.694-.72 1.735-3.31 1.629-4.111 2.483-7.954 3.604-14.921.24-1.549.587-3.631.934-6.113l2.029 2.028c.32-1.201.721-2.989.934-5.178.561-5.686-.534-10.17-1.575-13.827-4.191-14.789-6.7-23.704-15.082-30.164a37 37 0 0 0-4.377-2.776" opacity=".32"/><path fill="#3D3D3D" d="M268.269 144.254a94.3 94.3 0 0 1 1.895 21.435c-.133 4.965-.64 8.595-1.174 12.252-1.575 11.025-2.376 16.524-5.419 19.086-5.766 4.858-16.043 1.175-18.499.24 2.323 1.549 10.678 6.807 18.846 3.898.854-.321 1.788-.721 2.696-1.308a28 28 0 0 0 3.07-7.421c.48-1.949.614-3.364.801-5.019.293-2.669.8-6.566 1.655-11.451.774.667 1.574 1.335 2.349 2.002.267-1.361.614-3.444.694-6.006.24-6.193-1.122-10.891-2.696-16.257a91 91 0 0 0-4.218-11.451" opacity=".29"/><path fill="#fff" d="M194.891 74.185a90 90 0 0 0 1.815 11.585c.694 3.07 1.121 5.019 2.028 7.448 1.362 3.657 3.951 10.651 10.705 15.215 1.628 1.121 4.324 2.616 8.114 3.497.614.053 1.228.134 1.842.187.214 1.121.481 2.776.748 4.778.64 5.152.32 6.727 1.655 8.115 1.628 1.682 4.217 1.521 4.778 1.468 4.458-.294 6.7-4.725 6.807-4.965a26 26 0 0 1-2.029-4.778c-1.281-4.138-1.308-7.821-1.094-10.33 2.055-2.963 4.324-5.232 6.62-6.994.881-.668 1.628-1.575 2.936-2.029 1.868-.64 2.829 0 4.217-.427 2.296-.72 3.284-3.684 3.711-4.912 1.628-4.858-.374-9.663-1.655-12.519-1.148-2.616-4.138-9.102-11.425-14.174-7.501-5.232-22.503-11.051-32.433-3.497-1.708 1.308-5.605 4.805-7.34 12.332"/><path fill="#5222D0" d="M196.01 85.184c-1.709-.294-6.033-1.308-8.836-5.019-4.271-5.632-1.975-13.507.4-17.671 3.738-6.54 10.544-8.809 19.086-11.665 5.072-1.682 9.904-3.283 16.47-3.017 3.631.16 15.936.695 23.304 9.85 4.378 5.42 4.858 11.238 5.819 22.717.454 5.258.107 8.114-.801 10.837-.667 1.976-2.829 8.302-9.049 10.838-3.257 1.335-6.273 1.068-7.928.801a985 985 0 0 1 4.511-6.62c.854.053 3.898.106 6.22-2.002 3.176-2.91 3.737-8.702 1.415-10.25-1.709-1.148-5.099-.027-8.035 2.615-.267-1.681-.694-3.523-1.415-5.418-3.363-9.05-10.677-14.015-14.254-16.07-1.415 1.815-5.9 7.127-13.854 9.236a25.84 25.84 0 0 1-13.854-.214z"/><path fill="#161616" d="M194.676 74.88c1.094 8.249 2.242 16.817 6.273 24.238 3.31 6.086 8.648 11.292 15.508 13.027.508.133.721-.641.214-.775-6.78-1.735-12.012-6.967-15.215-13.026-3.817-7.207-4.912-15.482-5.98-23.464-.08-.507-.881-.507-.8 0"/><path fill="#161616" d="M216.459 112.249c4.832 0 9.903-2.589 13.694-5.365a31.8 31.8 0 0 0 9.182-10.571c.241-.454-.453-.854-.694-.4-2.162 4.057-5.178 7.58-8.889 10.277-3.71 2.722-8.622 5.258-13.293 5.258-.534 0-.534.801 0 .801"/><path fill="#161616" d="M230.123 106.244c-.534 5.392.507 10.784 2.963 15.615.24.454.934.054.694-.4-2.403-4.725-3.364-9.957-2.856-15.215.053-.508-.748-.508-.801 0"/><path fill="#161616" d="M218.513 112.117a85 85 0 0 1 2.136 9.263c.347 2.082.48 4.431 2.803 5.205 3.47 1.175 8.595-.907 9.93-4.351.187-.48-.588-.694-.774-.213-.748 1.948-2.616 3.016-4.538 3.576-1.602.454-4.031.935-5.392-.373-.801-.774-.908-2.002-1.068-3.043a145 145 0 0 0-.587-3.284 89 89 0 0 0-1.709-6.993c-.16-.481-.934-.267-.801.213"/><path fill="#161616" d="M219.66 115.427c4.751-.614 7.874-4.244 10.17-8.141.267-.454-.427-.855-.694-.401-2.109 3.63-5.045 7.181-9.476 7.741-.507.08-.507.881 0 .801"/><path fill="#161616" d="M219.474 112.705a14.9 14.9 0 0 0 9.53-4.965c.347-.374-.214-.961-.561-.561-2.322 2.643-5.472 4.325-8.969 4.725-.481.053-.507.854 0 .801"/><path fill="#161616" d="M219.607 112.117c2.99-.427 5.686-1.655 7.981-3.603.401-.348-.186-.908-.56-.561-2.189 1.868-4.778 3.016-7.634 3.417-.508.053-.294.827.213.747"/><path fill="#161616" d="M219.448 112.785c.133.641.106 1.922.907 2.135.774.214 1.949-.694 2.563-1.067 2.109-1.282 3.87-3.017 5.258-5.045.294-.427-.4-.828-.694-.401a15.9 15.9 0 0 1-3.603 3.844c-.668.507-1.362.934-2.082 1.335-.294.16-.961.614-1.255.427-.187-.107-.267-1.255-.294-1.442-.133-.507-.907-.293-.8.214"/><path fill="#161616" d="M219.822 113.533a33.2 33.2 0 0 0 6.487-3.524c.427-.294.027-.988-.401-.694a31.4 31.4 0 0 1-6.299 3.444c-.481.186-.267.961.213.774"/><path fill="#161616" d="M220.223 114.333c2.562-.908 4.805-2.322 6.673-4.298.347-.373-.213-.934-.561-.56-1.788 1.842-3.897 3.23-6.326 4.084-.48.187-.267.961.214.774"/><path fill="#161616" d="M220.647 113.906c1.895-.828 3.63-1.949 5.125-3.391.373-.347-.187-.907-.561-.56a17 17 0 0 1-4.965 3.257c-.48.213-.08.907.401.694M198.838 95.167c-4.351-1.549-5.792-7.234-5.365-11.345.454-4.511 4.511-9.423 9.476-7.314 2.376 1.014 3.257 3.63 3.897 5.953.668 2.455.961 5.178.321 7.687-.561 2.216-1.922 4.325-4.058 5.286-2.135.96-4.671.427-6.113-1.415-.32-.4-.881.16-.56.56 2.429 3.124 6.993 2.51 9.449-.24 3.123-3.497 2.803-8.809 1.468-13-.613-1.948-1.414-3.977-3.203-5.098-1.548-.988-3.523-1.228-5.258-.774-4.058 1.094-6.167 5.392-6.247 9.316-.08 4.297 1.602 9.61 6.033 11.158.427.16.641-.614.16-.774"/><path fill="#161616" d="M208.075 87.186c2.616-1.575 5.792-1.736 8.515-.374.454.24.854-.454.4-.694-2.989-1.495-6.459-1.362-9.342.374-.401.266 0 .96.427.694"/><path fill="#161616" d="M220.837 92.872c-3.016-2.91-4.271-7.42-3.096-11.478 1.227-4.218 5.445-7.848 9.983-6.353 5.018 1.655 5.285 8.835 3.977 13.053-.774 2.483-2.322 4.965-4.885 5.873-2.562.907-4.778-.454-6.833-1.896-.427-.293-.828.4-.401.694 1.682 1.202 3.497 2.403 5.633 2.323 2.029-.08 3.87-1.201 5.125-2.723 2.829-3.417 3.39-8.622 2.216-12.786-1.068-3.79-4.218-6.246-8.249-5.58-3.844.615-6.673 4.085-7.527 7.715-.988 4.191.347 8.73 3.443 11.719.427.373.988-.214.614-.56M201.269 84.09c-.267 1.682.027 3.31.934 4.752.187.293.614.24.721-.107.641-1.842-.267-3.657-1.175-5.232-.186-.347-.747-.187-.747.214.027 1.414.32 2.802.854 4.11.187.48.961.267.774-.213-.507-1.255-.801-2.536-.827-3.897-.24.08-.507.133-.748.213.828 1.415 1.682 2.963 1.095 4.618.24-.027.48-.053.721-.107a5.8 5.8 0 0 1-.855-4.137c.107-.507-.667-.72-.747-.214"/><path fill="#161616" d="M224.893 83.342c0-.347-.027-.427-.187-.72-.187-.347-.747-.187-.747.213.026 1.655.16 3.444 1.441 4.618.267.24.641.054.694-.293.214-1.976-.373-3.818-1.601-5.366-.267-.32-.748.027-.668.4.321 1.308.721 2.59 1.202 3.818.186.48.96.267.774-.214a24.3 24.3 0 0 1-1.202-3.817c-.213.134-.453.267-.667.4 1.095 1.388 1.548 3.043 1.361 4.805.241-.107.454-.187.694-.293-1.147-1.041-1.201-2.616-1.227-4.058-.241.08-.508.134-.748.214l.08.32c0 .48.801.48.801-.027M210.745 88.6c-.534 1.602-.988 3.23-1.281 4.886-.16.88-.721 2.535-.321 3.416.801 1.789 4.351.694 5.579.107.454-.213.054-.907-.4-.694-.988.48-2.055.72-3.15.64-.641-.053-1.148-.16-1.281-.88-.08-.4.187-1.442.267-1.895.32-1.842.801-3.63 1.388-5.393.133-.453-.641-.667-.801-.186M214.775 104.004c2.002-.267 3.737-1.548 4.618-3.39.214-.454-.48-.881-.694-.401-.801 1.682-2.295 2.777-4.137 3.017-.507.08-.267.854.213.774M199.586 81.792a1.477 1.477 0 0 1 2.082-.187c.4.347.961-.24.56-.56-.934-.801-2.375-.748-3.203.187-.347.373.214.934.561.56M222.49 80.298a2.26 2.26 0 0 1 2.91-.027c.4.32.961-.24.56-.56-1.174-1.015-2.883-.988-4.057.026-.374.347.213.908.587.56M233.008 83.983c2.883-1.015 5.846-1.629 8.915-1.789.507-.027.507-.828 0-.8-3.123.16-6.166.773-9.129 1.814-.48.187-.294.961.214.775"/><path fill="#3D3D3D" d="M236.984 50.723c1.602 2.055 7.768 10.49 6.62 22.075-.64 6.46-3.31 11.212-4.991 13.72a19.4 19.4 0 0 1 2.402-1.6c1.628-.909 2.67-1.469 4.004-1.389.401.027 1.362.107 2.056.667 2.028 1.709 1.334 7.768-2.269 10.598-1.976 1.548-4.298 1.708-5.473 1.681-1.521 2.163-3.069 4.325-4.591 6.514 1.015.16 2.563.293 4.351.026.774-.106 3.871-.667 6.807-3.016 2.883-2.322 4.058-5.152 4.832-7.074 2.135-5.338 1.708-10.037.961-18.498-.321-3.764-.508-5.686-1.255-8.222-.801-2.75-2.055-6.807-5.632-10.437-2.563-2.67-5.446-4.165-7.822-5.045" opacity=".4"/><path fill="#3D3D3D" d="M211.199 73.544a65 65 0 0 0 8.542-9.21 66 66 0 0 0 4.511-6.727c-.453 2.403-.907 4.805-1.334 7.208a23.3 23.3 0 0 1-5.472 5.579 23.5 23.5 0 0 1-6.247 3.15" opacity=".48"/><path fill="#3D3D3D" d="M230.179 70.502c2.029 6.753 2.189 12.413 2.002 16.15-.133 2.776-.881 17.324-8.542 22.342-.747.481-2.642 1.602-2.562 1.762.106.187 3.657-1.388 5.605-2.456 3.07-1.655 7.795-4.992 12.173-12.039.72.08 4.244.32 6.78-2.108 3.07-2.91 3.603-8.623 1.174-10.304-1.735-1.202-5.045-.187-7.954 2.215a33 33 0 0 0-1.175-3.87c-2.002-5.286-5.018-9.13-7.501-11.692" opacity=".27"/><path fill="#3D3D3D" d="M223.744 110.542a1833 1833 0 0 1 2.082 6.433c.961 2.936 1.895 5.899 2.83 8.836a5.9 5.9 0 0 0 2.989-1.655 6.5 6.5 0 0 0 1.655-2.99 26.6 26.6 0 0 1-2.696-9.129 26 26 0 0 1 0-5.392 564 564 0 0 1-6.86 3.897" opacity=".36"/><path fill="#3D3D3D" d="M210.424 89.535c-1.335 2.856-2.669 5.686-4.004 8.542 2.189-.053 4.351-.08 6.54-.133-1.281-.4-2.589-.801-3.871-1.202.427-2.402.881-4.804 1.335-7.207" opacity=".43"/></svg>