<svg xmlns="http://www.w3.org/2000/svg" width="417" height="284" fill="none"><path fill="#E8E8E8" d="M17.218 213.603c.792 2.346-.058 4.693-.41 7.01-.294 1.965-.06 3.696 1.026 5.397.587.91 1.408 1.848 1.643 2.934.293 1.349-.704 2.288-1.144 3.461s-.147 2.845 1.32 3.051c-.059-.235-.118-.499-.206-.734-.674.734-.88 1.819-.264 2.669.47.646 1.467.704 1.731 1.555s-.176 1.936-.323 2.757c-.557 3.432 1.526 6.424 3.99 8.566 2.874 2.522 6.042 4.575 8.624 7.421a39.2 39.2 0 0 1 6.6 10.002c.234.499.997.059.762-.44-2.816-6.072-7.07-11.234-12.408-15.282-2.962-2.229-6.658-4.869-6.805-8.976-.03-1.32.616-2.64.44-3.96-.059-.411-.176-.821-.47-1.144-.645-.763-2.551-1.232-1.29-2.581.205-.205.147-.675-.205-.733-1.995-.294-.176-2.816.146-3.608.264-.587.411-1.174.352-1.819-.146-1.672-1.496-2.933-2.229-4.371-1.877-3.637 1.203-7.685-.088-11.469-.117-.469-.968-.234-.792.294"/><path fill="#E8E8E8" d="M17.834 214.453C38.044 223.4 43 247.13 46.52 266.666c.088.557.939.322.851-.235-2.904-16.221-6.277-33.703-18.626-45.642-3.05-2.962-6.57-5.397-10.472-7.098-.499-.235-.968.528-.44.762"/><path fill="#E8E8E8" d="M19.3 216.505c10.795 13.699 18.48 29.744 22.41 46.727.118.558.968.323.851-.234-3.96-17.16-11.733-33.293-22.615-47.138-.382-.44-.998.205-.646.645"/><path fill="#E8E8E8" d="M21.675 231.2a29.22 29.22 0 0 1 14.402 14.373c.235.528.998.058.763-.44a29.85 29.85 0 0 0-14.696-14.696c-.557-.235-.997.528-.47.763M43.589 247.276c-1.936-8.36 4.693-15.106 8.8-21.56a51 51 0 0 0 4.927-10.002c.616-1.701 1.056-3.461 1.584-5.192.5-1.643 1.174-3.491 2.963-3.989-.176-.059-.322-.147-.498-.206.674 1.32 1.026 2.758.88 4.254-.088.938-.792 1.965-.704 2.845.058.528.528 1.349.703 1.877q.309 1.013.44 2.024.177 1.233.176 2.464c0 .616-.41 2.288-.205 2.757-.235-.498-.88-.117-.792.352.821 4.987 1.995 10.062 2.288 15.077.293 5.046-1.73 9.328-4.282 13.552-4.518 7.48-9.328 15.459-8.419 24.581.059.557.939.557.88 0-.997-10.002 4.986-18.04 9.592-26.311 2.17-3.902 3.432-7.891 3.08-12.379-.382-4.928-1.496-9.856-2.288-14.754l-.792.352.088.176c.059.146.234.205.381.205 1.085.029 1.203-1.203 1.29-2.024a16 16 0 0 0-.469-6.013c-.205-.733-.704-1.555-.616-2.317.088-.704.47-1.438.558-2.2.205-1.731-.176-3.403-.968-4.928a.435.435 0 0 0-.499-.206c-3.021.88-3.49 4.459-4.253 7.04a49.7 49.7 0 0 1-5.75 12.555c-4.282 6.717-10.911 13.551-8.887 22.234.088.528.939.293.792-.264"/><path fill="#E8E8E8" d="M59.899 213.689c-.499 8.859-4.078 17.043-6.982 25.285-2.933 8.36-4.78 16.984-5.426 25.813-.03.557.85.557.88 0 .675-9.122 2.698-17.981 5.75-26.575 2.844-8.008 6.159-15.957 6.658-24.523.029-.557-.851-.557-.88 0"/><path fill="#E8E8E8" d="M47.462 233.84c.41 4.019 1.496 7.891 3.285 11.528.264.499.997.059.763-.44-1.702-3.491-2.787-7.216-3.168-11.058-.059-.587-.939-.587-.88-.03M54.355 238.036a25.6 25.6 0 0 0 7.685-7.157c.323-.469-.44-.909-.763-.44-1.965 2.787-4.458 5.074-7.392 6.834-.469.294-.029 1.056.47.763M38.69 265.345a30.7 30.7 0 0 1 3.49 11.176c.059.557.939.557.88 0a32.5 32.5 0 0 0-3.608-11.616c-.264-.499-1.026-.059-.762.44M46.052 264.786a60 60 0 0 1 1.203 10.97c0 .558.88.558.88 0a60 60 0 0 0-1.232-11.205c-.118-.557-.968-.323-.85.235M340.728 239.973c-.352 1.173-.909 2.435-1.085 3.667-.088.498-.118.967.205 1.378.411.499 1.115.557 1.701.645q1.98.352 3.96.616c4.752.646 9.563.91 14.344.998 4.957.088 9.915-.059 14.901-.235 1.291-.059 2.757.088 3.989-.147.352-.058.734-.058.968-.381.528-.675-.205-1.261-.88-.909-.146.088-.264.322-.205.498.029.03.029.088.059.118.205.528 1.056.293.85-.235-.029-.029-.029-.088-.058-.117-.059.176-.147.322-.206.498l-.528-.352c-.293 0-.557.03-.85.03-.47.029-.939.029-1.438.058-.85.03-1.73.059-2.581.088-1.731.059-3.432.118-5.162.147-3.638.088-7.246.117-10.883 0-3.52-.088-7.04-.323-10.53-.733a91 91 0 0 1-5.544-.792c-1.203-.206-1.35-.734-1.027-1.877.264-.91.557-1.848.821-2.758.176-.528-.674-.762-.821-.205"/><path fill="#E8E8E8" d="M341.551 240.441c.47-1.438 3.696-1.086 4.84-1.115 1.613-.059 3.256-.117 4.869-.147 3.432-.058 6.864-.058 10.326.059 3.343.088 6.687.264 10.002.528 1.584.117 3.315.088 4.84.44 1.584.381 1.584 1.144 1.819 2.405l.527 2.728c.118.558.968.323.851-.234-.205-1.086-.44-2.2-.645-3.286-.118-.645-.206-1.378-.704-1.877-.939-.939-2.963-.704-4.165-.821a208 208 0 0 0-12.877-.763 202 202 0 0 0-12.614.029c-1.848.059-3.754.03-5.602.264-1.056.147-2.024.499-2.376 1.584-.117.528.733.734.909.206M342.4 245.311a211 211 0 0 1 2.757 21.442q.044.396.44.44a191 191 0 0 0 25.901.616c.557-.029.557-.909 0-.88-8.653.382-17.306.176-25.901-.616l.44.44a208 208 0 0 0-2.787-21.677c-.117-.557-.968-.322-.85.235"/><path fill="#E8E8E8" d="M376.282 247.071a244 244 0 0 1-4.341 19.917c-.147.557.704.792.85.234a256 256 0 0 0 4.342-19.917c.088-.557-.763-.792-.851-.234M322.631 192.54a88.4 88.4 0 0 1 4.254 16.133c.029.146.176.264.293.293.938.264 1.877.528 2.786.792-.088-.176-.205-.352-.293-.528-.528 2.405-.763 5.016 1.496 6.541.733.499 1.496.792 1.672 1.76.117.704.059 1.408.205 2.112a10.8 10.8 0 0 0 1.79 4.165c1.965 2.728 5.045 3.902 7.802 5.632 3.051 1.936 5.427 4.723 7.011 7.949.234.499.997.059.762-.44-1.29-2.64-3.109-5.016-5.397-6.864-2.522-2.053-5.778-3.109-8.154-5.309-1.262-1.144-2.171-2.669-2.699-4.282a9.3 9.3 0 0 1-.44-2.523c-.029-.469.059-.851-.147-1.261-.498-1.115-1.936-1.438-2.698-2.318-1.144-1.32-.704-3.373-.382-4.927.059-.235-.058-.47-.293-.528-.587-.176-1.76-.264-2.229-.616-.587-.44-.558-1.614-.675-2.318a87.4 87.4 0 0 0-3.813-13.669c-.176-.557-1.027-.322-.851.206"/><path fill="#E8E8E8" d="M323.569 192.568c10.09 2.962 18.743 9.856 23.906 19.007.264.499 1.027.059.763-.44-5.251-9.357-14.11-16.397-24.435-19.418-.557-.176-.792.675-.234.851"/><path fill="#E8E8E8" d="M346.422 210.316a68.7 68.7 0 0 1 10.706 26.781c.088.558.939.323.851-.234a69.34 69.34 0 0 0-10.795-26.987c-.322-.469-1.085-.029-.762.44M325.504 195.033c11.293 11.44 20.68 24.61 27.866 38.983.264.499 1.027.059.763-.44-7.187-14.432-16.661-27.661-27.983-39.159-.44-.381-1.056.235-.646.616"/><path fill="#E8E8E8" d="M327.587 205.301a69.6 69.6 0 0 1 19.36 17.336c.352.44 1.115 0 .763-.44a69.9 69.9 0 0 0-19.683-17.658c-.469-.294-.909.469-.44.762M335.038 197.555c1.906 4.136 3.109 8.536 3.637 13.083.059.557.939.557.88 0a44.4 44.4 0 0 0-3.755-13.523c-.264-.528-.997-.088-.762.44M355.514 225.481c-.822-19.535 17.746-32.031 26.194-47.724-.264-.088-.557-.147-.821-.235 0 2.464-.03 4.928-.03 7.392 0 1.144 0 2.288-.029 3.403 0 1.173.44 5.162-1.907 4.429-.352-.117-.704.323-.498.645 1.232 1.878 1.525 4.195.733 6.336-.381 1.027-.792 1.408-.909 2.523-.118 1.232-.235 2.493-.352 3.725-.235 2.493-.499 4.957-.734 7.45-.234 2.347-.205 4.928-.88 7.187-.645 2.229-2.493 3.491-4.429 4.576-1.701.997-3.403 1.965-4.957 3.168-2.933 2.317-5.192 5.573-5.104 9.416 0 .557.88.557.88 0-.117-5.104 3.989-8.536 8.008-10.912 1.613-.968 3.373-1.789 4.722-3.139 1.32-1.32 1.819-2.933 2.054-4.752.645-5.104.997-10.237 1.496-15.341.117-1.202.322-2.112.821-3.197a9 9 0 0 0 .645-2.317 7.75 7.75 0 0 0-1.261-5.192c-.176.205-.323.44-.499.645 2.875.939 2.992-2.904 2.992-4.693.03-3.784.03-7.568.059-11.381 0-.44-.616-.616-.821-.235-8.536 15.84-27.163 28.394-26.312 48.165.059.616.939.616.939.058"/><path fill="#E8E8E8" d="M379.215 185.677c-4.459 7.509-8.917 15.019-12.789 22.85a140 140 0 0 0-5.104 11.558c-1.496 3.93-2.669 8.007-2.435 12.231.03.558.91.558.88 0-.264-4.341 1.027-8.506 2.582-12.525 1.554-4.018 3.344-7.978 5.28-11.821 3.754-7.48 8.037-14.696 12.29-21.882.352-.469-.411-.909-.704-.411M361.996 207.412a25.5 25.5 0 0 0-.411 9.299c.088.557.939.323.851-.235a24.2 24.2 0 0 1 .41-8.829c.118-.557-.733-.792-.85-.235"/><path fill="#E8E8E8" d="M370.651 192.364a19.2 19.2 0 0 0 .176 7.538c.117.557.968.323.85-.235a17.9 17.9 0 0 1-.176-7.069c.088-.557-.733-.792-.85-.234M378.451 213.25a96 96 0 0 0 12.261-18.332c-.264-.03-.528-.059-.792-.118 1.584 5.485 1.262 11.147.059 16.661-.587 2.669-1.349 5.309-2.17 7.92-.382 1.203-.792 2.405-1.203 3.637-.44 1.32-.851 3.198-2.464 3.491-.205.029-.323.235-.323.411-.058 1.496-.146 3.109-.821 4.487-.851 1.76-2.552 2.23-4.312 2.728-2.64.734-5.339 1.496-7.186 3.638-.382.41.264 1.056.616.616 1.29-1.496 2.991-2.259 4.839-2.846 1.555-.498 3.315-.704 4.752-1.525 2.523-1.408 2.846-4.517 2.963-7.098-.117.146-.205.293-.323.41 2.288-.381 2.816-3.314 3.432-5.133 1.056-3.109 2.053-6.248 2.787-9.445 1.408-5.984 1.906-12.232.176-18.216-.088-.352-.616-.44-.792-.117a92.9 92.9 0 0 1-12.115 18.157c-.381.499.235 1.114.616.674"/><path fill="#E8E8E8" d="M388.19 203.95c-2.259 7.186-6.043 13.874-11.059 19.477-4.077 4.517-10.325 8.448-10.999 15.048-.059.557.821.557.88 0 .352-3.608 2.698-6.395 5.162-8.859 2.435-2.435 4.957-4.722 7.128-7.392a53.8 53.8 0 0 0 9.709-18.039c.206-.528-.645-.763-.821-.235M288.898 57.787c-1.789 14.842-7.245 29.098-15.781 41.388-.323.47.44.909.763.44 8.624-12.408 14.079-26.84 15.898-41.828.059-.587-.821-.558-.88 0"/><path fill="#E8E8E8" d="M289.045 58.02a161 161 0 0 0 38.866.205c.557-.059.557-.939 0-.88a161 161 0 0 1-38.866-.206c-.557-.058-.557.822 0 .88"/><path fill="#E8E8E8" d="M327.941 58.753c3.314 15.487 1.261 31.855-5.72 46.081-.264.499.498.939.762.44 7.099-14.431 9.182-31.004 5.808-46.756-.117-.557-.968-.323-.85.235"/><path fill="#E8E8E8" d="M273.675 99.966c15.517 5.75 32.295 5.486 48.604 5.163.557 0 .557-.88 0-.88-16.221.323-32.911.587-48.37-5.133-.528-.206-.762.645-.234.85M330.345 76.704a82.8 82.8 0 0 1 23.143-5.69l-.44-.44c.235 11.322 4.84 22.292 12.731 30.417.381.411 1.026-.205.616-.616-7.744-7.949-12.232-18.684-12.467-29.802 0-.234-.205-.469-.44-.44-8.037.792-15.898 2.699-23.378 5.72-.528.235-.293 1.086.235.85"/><path fill="#E8E8E8" d="M314.301 105.745c1.173 4.018 2.434 8.037 3.93 11.938 1.203 3.139 2.758 6.189 5.368 8.389.44.352 1.056-.264.616-.616-2.728-2.317-4.253-5.544-5.456-8.858-1.32-3.637-2.493-7.333-3.608-11.059-.176-.557-.997-.322-.85.206"/><path fill="#E8E8E8" d="M324.564 126.131c13.259-9.181 27.368-17.101 42.064-23.73.528-.235.058-.998-.44-.763a262.5 262.5 0 0 0-42.064 23.73c-.469.323-.029 1.086.44.763M291.686 61.834a452 452 0 0 0 32.676 2.875c.558.029.558-.851 0-.88a450 450 0 0 1-32.676-2.875c-.558-.059-.558.821 0 .88M291.451 66.174c1.496.91 3.52.763 5.192.88l7.215.528c.558.03.558-.85 0-.88l-6.071-.44c-1.819-.146-4.312.118-5.896-.85-.47-.294-.91.469-.44.762M289.924 70.547c5.456.381 10.912.762 16.338 1.144 5.221.352 10.648 1.173 15.869.645.558-.059.558-.939 0-.88-5.221.528-10.648-.264-15.869-.645-5.456-.382-10.912-.763-16.338-1.144-.557-.03-.557.85 0 .88M288.957 77.938c4.752 1.584 9.768 1.672 14.755 1.613 5.485-.03 10.941-.088 16.426-.147.557 0 .557-.88 0-.88-5.309.03-10.589.089-15.898.118-5.075.03-10.179.03-15.048-1.584-.557-.147-.792.704-.235.88M282.914 91.225c0 .938-.088 1.936 0 2.904.059.469.264.938.821.968.675.029 1.203-.734 1.614-1.144.674-.704 1.29-1.438 1.906-2.171.352-.44-.264-1.056-.616-.616a25 25 0 0 1-2.376 2.64 3 3 0 0 1-.293.264c-.176.176-.235.147-.176-.117-.088-.206 0-.616 0-.822v-1.906c0-.558-.88-.558-.88 0M290.012 84.479a105.2 105.2 0 0 0 28.746 2.112c.557-.03.557-.91 0-.88a104.5 104.5 0 0 1-28.511-2.083c-.558-.117-.792.734-.235.85M324.773 115.455a164 164 0 0 0 33.644-16.837c.469-.323.03-1.085-.44-.763-10.472 6.864-21.677 12.496-33.439 16.749-.528.206-.293 1.056.235.851M322.045 109.968c8.799-2.552 17.394-5.661 25.812-9.269.528-.235.059-.968-.44-.763-8.33 3.608-16.895 6.659-25.607 9.181-.528.176-.323 1.027.235.851M325.857 102.928c5.016-2.082 10.032-4.194 15.048-6.277 4.4-1.848 8.917-3.52 12.818-6.336.44-.322.029-1.085-.44-.762-3.989 2.874-8.653 4.605-13.141 6.482l-14.52 6.072c-.498.205-.264 1.056.235.821M329.935 93.95c2.17-.91 4.37-1.79 6.541-2.699.528-.205.293-1.056-.235-.85-2.17.91-4.37 1.79-6.541 2.699-.528.205-.293 1.056.235.85M331.137 82.573c2.904.088 5.837-1.32 8.507-2.376a103 103 0 0 0 8.184-3.696c.498-.264.058-1.027-.44-.763a98 98 0 0 1-7.979 3.608c-2.552 1.027-5.456 2.435-8.272 2.347-.586-.03-.586.85 0 .88M294.707 104.923c-3.314 10.237-8.858 19.653-16.162 27.573-.264.293-.088.733.323.762 13.551.44 26.106 6.131 38.162 11.88.498.235.967-.528.44-.763-12.203-5.808-24.875-11.527-38.602-11.997.117.264.205.499.322.763a75.5 75.5 0 0 0 16.397-27.954c.147-.558-.704-.792-.88-.264"/><path fill="#E8E8E8" d="M318.028 144.845a323 323 0 0 1 12.819-22.557c.293-.469-.47-.938-.763-.44a317 317 0 0 0-12.818 22.557c-.264.499.498.968.762.44M316.737 134.694c.557 0 .557-.88 0-.88-.587 0-.587.88 0 .88M286.317 128.391c4.576-.323 8.448 2.434 12.642 3.813 2.288.733 4.664 1.115 6.952 1.877 2.318.734 4.459 1.848 6.483 3.227.469.323.909-.44.44-.763-1.848-1.261-3.843-2.317-5.955-3.05-2.493-.88-5.162-1.291-7.685-2.112-4.283-1.408-8.184-4.195-12.877-3.843-.587 0-.587.88 0 .851M290.951 124.636a73.4 73.4 0 0 1 19.507 8.125c.498.293.938-.47.44-.763a72.7 72.7 0 0 0-19.712-8.213c-.557-.117-.792.704-.235.851M293.182 119.502c3.051.646 5.867 1.878 8.448 3.638.469.322.909-.44.44-.763a24.7 24.7 0 0 0-8.653-3.725c-.558-.118-.792.733-.235.85M294.999 114.806a334 334 0 0 1 14.725 5.896c.528.235.968-.528.44-.763-4.928-2.112-9.914-4.136-14.93-5.984-.557-.176-.763.675-.235.851M45.527 69.432c-.47 6.98-.587 14.02-2.816 20.738a44.06 44.06 0 0 1-10.15 16.69c-.38.411.235 1.027.616.616a45 45 0 0 0 10.237-16.631c2.377-6.894 2.494-14.198 2.992-21.413.03-.558-.85-.558-.88 0"/><path fill="#E8E8E8" d="M46.14 69.694c11.5-.147 23.027-.118 34.525.117 2.934.059 5.867.147 8.77.235 1.497.058 3.785-.382 4.577 1.202.557 1.115.528 2.904.704 4.136.762 5.397.909 10.883.498 16.31-.469 6.16-1.701 12.231-3.608 18.098-.176.528.675.762.851.234 3.579-11 4.723-22.733 3.197-34.202a70 70 0 0 0-.557-3.578c-.147-.851-.235-1.936-.997-2.494-.734-.557-1.76-.469-2.61-.498-1.673-.059-3.315-.118-4.987-.147a822 822 0 0 0-19.008-.323c-7.128-.058-14.256-.029-21.354.06-.558 0-.558.88 0 .85M32.764 107.942c14.901 4.166 30.653 4.606 45.788 1.35.558-.118.323-.968-.234-.851a94.05 94.05 0 0 1-45.32-1.349c-.557-.147-.791.674-.234.85"/><path fill="#E8E8E8" d="M92.458 71.807a86.45 86.45 0 0 1-10.296 36.607c-.264.499.499.939.763.44a87.65 87.65 0 0 0 10.413-37.047c.03-.558-.85-.558-.88 0"/><path fill="#E8E8E8" d="M92.457 74.24c.821 3.902.47 7.833-.205 11.705a206 206 0 0 1-2.024 10.12c-1.496 6.599-3.52 13.111-7.392 18.714-.323.469.44.909.762.44 4.019-5.808 6.072-12.584 7.598-19.419 1.554-6.98 3.637-14.637 2.112-21.794-.118-.557-.968-.323-.851.235"/><path fill="#E8E8E8" d="M93.104 77.057a84 84 0 0 1-6.336 39.042c-.205.528.645.762.85.234a84.9 84.9 0 0 0 6.366-39.276c-.03-.558-.91-.558-.88 0M38.368 115.219a127.5 127.5 0 0 0 44.38-.235c.557-.088.323-.939-.235-.851a126.2 126.2 0 0 1-43.91.235c-.558-.088-.793.763-.236.851M40.303 110.233a9.6 9.6 0 0 1-2.61 2.816c-.47.323-.03 1.085.44.763 1.173-.851 2.17-1.878 2.904-3.11.322-.498-.44-.938-.734-.469M42.357 116.656a12 12 0 0 1-1.35 2.083c-.351.44.264 1.056.616.616.587-.704 1.086-1.438 1.467-2.259.264-.498-.47-.968-.733-.44"/><path fill="#E8E8E8" d="M41.508 119.941a123.8 123.8 0 0 0 44.175-2.786c.557-.147.323-.998-.235-.851-14.343 3.549-29.244 4.459-43.94 2.728-.558-.029-.558.851 0 .909M48.692 81.222c12.672-1.73 25.46-.91 38.162-.03.557.03.557-.85 0-.88-12.79-.88-25.637-1.7-38.397.06-.557.058-.322.909.235.85M45.053 94.364q17.82.265 35.552 1.672c.557.059.557-.821 0-.88a513 513 0 0 0-35.552-1.672c-.586 0-.586.88 0 .88M41.508 101.17c13.14.616 26.282 1.261 39.423 1.877.557.029.557-.851 0-.88-13.141-.616-26.282-1.261-39.423-1.877-.558-.03-.558.85 0 .88"/><path fill="#E8E8E8" d="M52.357 89.2c-2.493 5.925-4.87 11.88-7.07 17.923-.205.528.646.762.851.234 2.2-5.954 4.518-11.85 6.981-17.687.206-.528-.557-.998-.762-.47M62.304 90.227c-2.904 5.867-5.309 11.909-7.392 18.069-.175.528.675.763.851.235 2.053-6.101 4.43-12.085 7.304-17.864.264-.499-.499-.939-.763-.44M73.45 90.931a62.3 62.3 0 0 0-7.392 17.512c-.147.557.704.792.85.234a60.8 60.8 0 0 1 7.304-17.306c.294-.47-.469-.91-.762-.44M82.25 91.342a120 120 0 0 0-7.04 16.602c-.177.528.674.763.85.235a118 118 0 0 1 6.952-16.368c.235-.528-.499-.968-.763-.47M43.824 96.504a10.5 10.5 0 0 1 3.344 2.405c.382.41.998-.206.616-.616a10.9 10.9 0 0 0-3.52-2.552c-.528-.205-.968.528-.44.763"/><path fill="#E8E8E8" d="M47.814 95.01a18.7 18.7 0 0 0-4.898 4.194c-.352.44.264 1.056.616.616 1.349-1.643 2.904-2.992 4.722-4.048.499-.293.059-1.056-.44-.763M59.574 104.217a16.9 16.9 0 0 1 4.282 3.608c.352.44.998-.205.616-.616a17.2 17.2 0 0 0-4.458-3.754c-.47-.294-.91.469-.44.762"/><path fill="#E8E8E8" d="M64.562 102.988a37.7 37.7 0 0 0-5.192 4.723c-.381.41.235 1.056.616.616a35.5 35.5 0 0 1 5.016-4.605c.44-.294 0-1.056-.44-.734M51.391 95.185c1.526 1.408 3.05 2.787 4.576 4.195.41.38 1.027-.235.616-.616-1.525-1.408-3.05-2.787-4.576-4.195-.41-.41-1.026.205-.616.616"/><path fill="#E8E8E8" d="M56.407 94.482c-2.141 1.232-4.019 2.816-5.544 4.752-.352.44.264 1.056.616.616a18.8 18.8 0 0 1 5.368-4.605c.498-.294.03-1.056-.44-.763M62.478 101.051c-2.112-1.144-2.406-3.99-.382-5.456 1.526-1.085 4.635-1.995 5.808 0 1.027 1.79-.205 3.96-1.672 5.045-2.288 1.672-3.901-.176-4.957-2.082-.264-.5-1.027-.06-.763.44 1.35 2.434 3.52 4.341 6.219 2.375 1.995-1.437 3.373-4.488 1.672-6.658-1.76-2.23-5.779-1.056-7.48.704-1.907 1.995-1.203 5.074 1.115 6.336.498.322.938-.44.44-.704M50.041 71.749c-.557 2.024-.733 4.077-.44 6.189.059.557.968.557.88 0-.264-2.024-.146-3.99.41-5.955.148-.528-.703-.762-.85-.234"/><path fill="#E8E8E8" d="M50.598 72.274a193.5 193.5 0 0 1 33.234-.85l-.44-.44c.146 1.73.117 3.431-.176 5.133-.088.557.762.792.85.234.294-1.789.382-3.549.206-5.368-.03-.234-.176-.41-.44-.44a193.5 193.5 0 0 0-33.234.851c-.558.059-.558.939 0 .88"/><path fill="#E8E8E8" d="m51.45 77.645 31.679-.704c.557 0 .557-.88 0-.88l-31.68.703c-.557.03-.557.91 0 .88"/><path fill="#161616" d="M228.385 250.943h49.426c1.701 0 1.701-2.64 0-2.64h-49.426c-1.701 0-1.701 2.64 0 2.64M283.794 250.943h10.618c1.701 0 1.701-2.64 0-2.64h-10.618c-1.702 0-1.702 2.64 0 2.64M305.061 249.093h6.453c1.702 0 1.702-2.64 0-2.64h-6.453c-1.701 0-1.701 2.64 0 2.64M284.262 273.117h59.135c1.701 0 1.701-2.64 0-2.64h-59.135c-1.701 0-1.701 2.64 0 2.64M347.094 273.117h14.784c1.701 0 1.701-2.64 0-2.64h-14.784c-1.701 0-1.701 2.64 0 2.64M371.12 272.679h21.706c1.701 0 1.701-2.64 0-2.64H371.12c-1.702 0-1.702 2.64 0 2.64M401.594 271.271h4.606c1.701 0 1.701-2.64 0-2.64h-4.606c-1.701 0-1.701 2.64 0 2.64M.44 278.747c23.76-.587 47.519-1.027 71.279-1.291 6.805-.088 13.64-.146 20.445-.205.557 0 .557-.88 0-.88-23.76.176-47.52.528-71.28 1.027-6.804.146-13.639.293-20.444.469-.587.029-.587.909 0 .88M64.59 283.647c18.01-.762 36.05-.645 54.031.352.558.03.558-.85 0-.88a554 554 0 0 0-54.03-.352c-.587.03-.587.91 0 .88"/><path fill="#E8E8E8" d="M349.353 247.012a31.3 31.3 0 0 1-4.488 7.48c-.352.44.264 1.056.616.616a32 32 0 0 0 4.722-7.861c.206-.528-.645-.763-.85-.235M354.897 246.366a42.3 42.3 0 0 1-9.767 13.581c-.411.381.205.997.616.616 4.194-3.872 7.538-8.536 9.914-13.757.235-.499-.528-.939-.763-.44M360.647 246.66c-3.667 7.45-8.917 13.962-15.459 19.095-.44.352.176.968.616.616a56.2 56.2 0 0 0 15.576-19.301c.264-.469-.499-.909-.733-.41M366.013 246.895a86.6 86.6 0 0 1-14.813 19.682c-.41.411.235 1.027.616.616a86.6 86.6 0 0 0 14.931-19.858c.322-.499-.44-.939-.734-.44M370.794 246.688c-3.814 7.392-8.536 14.256-14.139 20.416-.381.41.235 1.056.616.616 5.632-6.219 10.443-13.112 14.285-20.592.264-.499-.498-.939-.762-.44M374.666 246.718c-3.491 7.45-8.037 14.373-13.523 20.503-.381.411.235 1.056.616.616a85.3 85.3 0 0 0 13.669-20.709c.264-.469-.498-.938-.762-.41M375.135 252.407a79.4 79.4 0 0 1-9.973 15.253c-.352.44.264 1.056.616.616a80 80 0 0 0 10.12-15.429c.264-.499-.499-.939-.763-.44M118.826.44v14.93c0 .558.88.558.88 0V.44c0-.587-.88-.587-.88 0"/><path fill="#E8E8E8" d="M102.811 16.192h44.058c.557 0 .557-.88 0-.88h-44.058c-.587 0-.587.88 0 .88M133.787 17.277v13.787c0 .557.88.557.88 0V17.277c0-.557-.88-.557-.88 0M110.848 32.677h42.913c.558 0 .558-.88 0-.88h-42.913c-.558 0-.558.88 0 .88"/><path fill="#E8E8E8" d="M110.025 33v10.354c0 .557.88.557.88 0V32.999c0-.557-.88-.586-.88 0M322.864 155.142h26.634c.557 0 .557-.88 0-.88h-26.634c-.587 0-.587.88 0 .88"/><path fill="#E8E8E8" d="M336.945 155.494v10.501c0 .558.88.558.88 0v-10.501c0-.557-.88-.557-.88 0"/><path fill="#E8E8E8" d="M320.842 166.435h30.682c.557 0 .557-.88 0-.88h-30.682c-.558 0-.558.88 0 .88"/><path fill="#E8E8E8" d="M328.879 166.405v8.888c0 .557.88.557.88 0v-8.888c0-.587-.88-.587-.88 0M348.236 166.785v8.888c0 .557.88.557.88 0v-8.888c0-.557-.88-.557-.88 0M61.774 251.294h39.951c.558 0 .558-.88 0-.88H61.774c-.587 0-.587.88 0 .88M.44 251.851h25.168c.557 0 .557-.88 0-.88H.44c-.587 0-.587.88 0 .88M53.385 182.216h39.952c.557 0 .557-.88 0-.88H53.385c-.586 0-.586.88 0 .88"/><path fill="#E8E8E8" d="M75.709 182.566v9.182c0 .557.88.557.88 0v-9.182c0-.557-.88-.557-.88 0"/><path fill="#E8E8E8" d="M68.169 192.187h31.15c.558 0 .558-.88 0-.88H68.17c-.587 0-.587.88 0 .88"/><path fill="#E8E8E8" d="M91.695 192.539v9.973c0 .558.88.558.88 0v-9.973c0-.557-.88-.557-.88 0M307.204 254.435h33.85c.557 0 .557-.88 0-.88h-33.85c-.587 0-.587.88 0 .88M379.654 251.235h35.962c.558 0 .558-.88 0-.88h-35.962c-.557 0-.557.88 0 .88M264.436 167.784v16.925c0 .557.88.557.88 0v-16.925c0-.587-.88-.587-.88 0"/><path fill="#E8E8E8" d="M265.402 176.142h15.869c.558 0 .558-.88 0-.88h-15.869c-.557 0-.557.88 0 .88"/><path fill="#E8E8E8" d="M280.305 169.895v15.869c0 .557.88.557.88 0v-15.869c0-.587-.88-.587-.88 0M270.184 187.259h24.845c.557 0 .557-.88 0-.88h-24.845c-.587 0-.587.88 0 .88M287.197 188.403v12.173c0 .557.88.557.88 0v-12.173c0-.587-.88-.587-.88 0M220.26 22.762v27.543c0 .557.88.557.88 0V22.762c0-.558-.88-.558-.88 0"/><path fill="#E8E8E8" d="M221.168 22.702h43.266c.557 0 .557-.88 0-.88h-43.266c-.557 0-.557.88 0 .88"/><path fill="#E8E8E8" d="M264.053 22.615v27.25c0 .558.88.558.88 0v-27.25c0-.557-.88-.557-.88 0"/><path fill="#E8E8E8" d="M221.08 51.038h43.765c.557 0 .557-.88 0-.88H221.08c-.557 0-.557.88 0 .88M239.885 21.794c-.146-.792-.176-1.584-.029-2.376.147-.704.499-2.112 1.32-1.232.411.44.44 1.408.557 1.965.147.734.294 1.496.44 2.23.118.557.968.322.851-.235-.264-1.29-.381-2.728-.88-3.96-.264-.645-.763-1.408-1.555-1.378-.88.029-1.232.967-1.437 1.7-.352 1.145-.352 2.318-.117 3.462.088.616.938.381.85-.176M222.812 25.93v21.384c0 .557.88.557.88 0V25.93c0-.586-.88-.586-.88 0"/><path fill="#E8E8E8" d="M223.486 25.87h37.986c.558 0 .558-.88 0-.88h-37.986c-.557 0-.557.88 0 .88"/><path fill="#E8E8E8" d="M261.529 25.195v22.792c0 .557.88.557.88 0V25.195c0-.557-.88-.557-.88 0"/><path fill="#E8E8E8" d="M223.957 47.958h37.751c.558 0 .558-.88 0-.88h-37.751c-.557 0-.557.88 0 .88M223.455 40.303c5.75-1.555 11.499-2.904 17.395-1.232 4.869 1.408 9.327 4.018 14.373 4.87.557.087.792-.764.234-.852-5.368-.909-10.061-3.813-15.311-5.103-5.72-1.408-11.381-.03-16.896 1.466-.587.147-.352.998.205.85"/><path fill="#E8E8E8" d="M243.637 40.246c5.426-.616 10.824-2.757 16.309-1.613.557.117.792-.733.234-.85-5.602-1.174-11.029.938-16.543 1.554-.558.088-.558.997 0 .91M244.577 33.997c-.675-.645-.733-1.789-.029-2.434.762-.733 2.141-.528 2.728.322.616.851.469 2.142-.323 2.816-.968.822-2.259.176-2.933-.674-.323-.44-1.115 0-.763.44.939 1.261 2.669 2.082 4.077 1.056 1.32-.968 1.526-2.992.528-4.254-.88-1.114-2.698-1.349-3.813-.44-1.173.94-1.203 2.816-.117 3.843.44.323 1.056-.293.645-.675"/><path fill="#161616" stroke="#161616" stroke-width="3" d="M279.513 229.705c.938-1.936 2.493-4.312 5.016-5.016 3.872-1.085 6.629 2.787 12.407 5.603 10.443 5.103 19.536 1.29 20.387 4.135.674 2.259-4.752 5.926-8.272 7.686-7.069 3.52-20.416 6.365-26.576-1.174-.909-1.114-3.432-4.605-2.962-11.234Z"/><path fill="#161616" stroke="#161616" stroke-width="3" d="M271.534 233.517c-1.262-1.203-1.819-2.728-2.054-3.842 2.2-7.363 6.776-12.966 12.115-13.582 3.432-.381 6.805 1.32 9.445 2.67 4.312 2.17 4.4 3.608 8.565 6.189 7.011 4.371 11.997 3.579 12.408 5.896.381 2.17-3.549 5.162-7.392 6.512-7.714 2.698-10.149-2.904-22.146-2.376-4.253.205-8.213 1.114-10.941-1.467Z"/><path fill="#5222D0" d="M218.616 185.646a541 541 0 0 1 2.435 16.808c3.579 27.338 2.141 31.327 6.424 37.018 9.885 13.141 31.914 10.912 33.645 10.706 12.554-1.437 21.06-8.037 24.463-11-1.936-3.373-3.872-6.717-5.808-10.09-9.68.088-19.359.205-29.069.293 2.083-7.509 4.518-20.122 2.435-35.463a88.9 88.9 0 0 0-8.272-27.221 148 148 0 0 0-27.221 4.576 152 152 0 0 0-13.463 4.283c-.206 5.544-.47 13.434-.616 22.938-.499 35.962 1.554 43.354 6.717 47.108 2.522 1.819 6.922 1.966 15.605 2.142 15.106.322 27.895-3.638 42.826-8.272a421 421 0 0 0 7.773-2.523c-.851-6.717-1.731-13.405-2.581-20.122-5.955 1.613-12.173 3.139-18.627 4.605a458 458 0 0 1-18.039 3.667"/><path fill="#281472" d="M215.419 190.281c3.05 1.144 3.578 4.986 3.872 7.802.41 3.784.645 7.568.88 11.381.469 7.422.968 14.872 2.816 22.088.146.557.997.323.85-.235-2.112-8.242-2.434-16.749-2.992-25.167-.234-3.608-.322-7.333-1.085-10.883-.528-2.464-1.613-4.869-4.107-5.808-.528-.205-.762.646-.234.822M229.353 241.028c2.258 1.965 4.458 4.253 6.981 5.925 2.434 1.613 5.368 2.2 8.213 2.728.557.117.792-.734.235-.851-2.758-.528-5.603-1.056-8.008-2.64-2.435-1.613-4.576-3.842-6.805-5.778-.411-.382-1.056.264-.616.616M251.204 226.359c3.197.059 6.306.646 9.298 1.731.528.205.763-.645.235-.851a29.5 29.5 0 0 0-9.533-1.76c-.587-.029-.587.851 0 .88"/><path fill="#474747" d="M203.979 195.649c.176-2.728 2.053-5.163 4.576-6.277 2.639-1.144 5.925-.382 7.949 1.232 3.52 2.757 3.226 7.949 3.373 14.226.264 11.469.587 25.226 7.333 34.407 1.555 2.112 4.371 5.251 9.475 7.95-2.64 1.261-7.363 3.08-13.317 2.757-2.582-.147-9.534-.587-14.52-5.661-2.435-2.464-4.547-6.219-5.192-24.317a262 262 0 0 1 .323-24.317" opacity=".58"/><path fill="#474747" d="m251.968 222.401 21.911-5.631c.44 4.047.851 8.125 1.291 12.173-3.315-.91-7.069-1.76-11.146-2.435a106 106 0 0 0-12.936-1.291z" opacity=".59"/><path fill="#fff" stroke="#161616" stroke-width="3" d="M206.004 102.901c-.088-2.053.146-4.312 1.496-5.075 4.84-2.698 22.527 14.696 31.21 33.968 3.402 7.568 7.568 20.21 6.658 37.546-13.434 2.464-26.839 4.957-40.273 7.421a86.3 86.3 0 0 0-12.115-15.84c-5.954-6.16-8.213-6.629-10.765-11.117-5.456-9.621-2.523-20.562-1.789-23.319.968-3.579 3.08-11.264 10.413-17.219 5.896-4.81 12.232-6.013 15.165-6.365Z"/><path fill="#828181" d="M205.506 107.596c3.49 2.405 15.664 11.351 20.591 28.452 5.368 18.715-1.76 33.997-3.519 37.488 7.685-1.291 15.399-2.552 23.084-3.843.47-7.45.294-20.592-5.514-35.463-7.275-18.597-19.477-29.714-25.52-34.554-3.05 2.64-6.072 5.28-9.122 7.92" opacity=".36"/><path fill="#828181" d="M236.304 127.775a96 96 0 0 1 1.32 12.115c.411 9.005.734 15.429-2.434 21.999-1.232 2.582-3.96 7.158-9.885 11.323 6.717-1.232 13.405-2.435 20.122-3.667a81.8 81.8 0 0 0-2.435-24.463c-1.848-7.011-4.341-12.848-6.688-17.307" opacity=".4"/><path fill="#fff" d="M149.008 100.468a129 129 0 0 0 5.397 7.334c3.667 4.664 5.075 5.866 7.04 6.277 1.672.352 3.256.058 4.194-.147 2.611-.528 3.667-1.584 5.398-2.405 2.288-1.056 3.197-.528 10.618-.44 5.368.059 4.781-.235 9.592-.147 4.224.088 7.714.352 10.178.587-.704-.557-1.408-1.085-2.082-1.643-.968-.264-3.784-1.144-5.984-3.901-1.819-2.288-2.259-4.635-2.405-5.691.616-.176 1.701-.616 2.405-1.642 1.467-2.17-.059-5.133-.587-6.13-.645-1.233-1.818-3.462-3.432-3.286-1.202.117-2.346 1.525-2.698 3.432-2.758.88-6.923 1.701-11.235.293-8.125-2.669-9.797-11.117-14.226-11.234-2.875-.03-6.952 3.314-12.173 18.743"/><path fill="#161616" d="M148.216 99.118a37.6 37.6 0 0 0 10.267 13.728c.44.352 1.056-.264.616-.616-4.4-3.696-7.832-8.301-10.149-13.552-.206-.498-.968-.058-.734.44M162.296 105.453c.264 1.496.587 2.963.968 4.43.352 1.261.616 2.786 1.262 3.93.909 1.613 3.813-.381 4.751-1.114.44-.352-.176-.968-.616-.616-.645.498-1.936 1.496-2.816 1.378-.967-.117-1.202-2.024-1.437-2.757a49 49 0 0 1-1.261-5.456c-.117-.587-.968-.352-.851.205M158.279 105.629c-1.115-.939-2.552-2.142-2.024-3.784-.235.058-.499.117-.733.205a10.7 10.7 0 0 1 2.581 3.931c.088-.176.205-.352.293-.528a7 7 0 0 0-.557-.411c-.147-.557-.997-.323-.851.235.206.792.851 1.144 1.643 1.026.235-.029.381-.352.293-.528a11.7 11.7 0 0 0-2.816-4.312c-.234-.234-.645-.117-.733.206-.616 1.965.851 3.49 2.259 4.634.44.293 1.085-.322.645-.674"/><path fill="#161616" d="m155.523 102.374 2.112 3.256c.293.469 1.056.029.763-.44l-2.112-3.256c-.294-.498-1.056-.058-.763.44M168.78 101.139c-.528-.616-1.085-1.32-1.349-2.112a2.1 2.1 0 0 1-.118-.733c.059-.381.147-.41.323-.117.293.117.557.674.733.938.411.616.792 1.291.998 1.966.117.381.264.44-.147.264-.381-.176-.733-.587-.997-.88-.382-.44-.998.205-.616.616.469.528 1.994 2.082 2.61.88.557-1.086-.821-2.992-1.437-3.784-.528-.675-1.789-2.024-2.288-.528s.763 3.05 1.643 4.077c.381.469.997-.147.645-.587"/><path fill="#161616" d="m166.841 98.324 2.024 3.256c.294.469 1.056.029.763-.44a31 31 0 0 1-1.643-3.05l-.704.528a5.96 5.96 0 0 1 1.496 2.288c.206.528 1.056.293.851-.235a7 7 0 0 0-1.731-2.67c-.381-.351-.909.089-.704.529.499 1.055 1.027 2.082 1.643 3.05.264-.146.499-.293.763-.44l-2.024-3.256c-.264-.47-1.027-.03-.734.44M190.338 102.988c.91 2.406.822 4.928-.352 7.216-.264.499.499.939.763.44 1.261-2.493 1.437-5.28.44-7.89-.205-.499-1.056-.294-.851.234"/><path fill="#EC615B" d="M144.697 81.517c-.469.645-4.723 6.6-2.464 14.08 2.229 7.392 8.888 10.032 9.65 10.325-.322-1.819-.85-6.307 1.32-11.293 2.582-6.013 7.334-8.83 8.859-9.65.968 1.407 4.635 6.394 11.616 8.36 6.248 1.73 11.41 0 13.111-.646.323-.528 1.555-2.347 3.11-2.288 2.229.088 4.429 4.136 3.109 6.893-.821 1.73-2.757 2.317-3.285 2.464.322 1.261.997 3.168 2.464 5.075 2.464 3.256 5.69 4.517 7.538 5.25 1.819.704 16.691 6.365 25.549-2.962 4.781-5.016 7.069-13.61 3.931-19.507-2.552-4.752-7.04-4.78-19.155-10.149-14.519-6.453-12.525-8.418-21.119-11.146-4.488-1.438-21.002-6.688-33.909 2.288-5.896 4.077-8.888 9.591-10.325 12.906"/><path fill="#fff" stroke="#161616" stroke-width="3" d="M138.305 131.324c-.118-1.702-.176-6.6 3.021-11.088 4.899-6.864 13.346-7.011 14.784-7.04 2.552-.059 5.925.381 13.727 4.664 5.075 2.787 12.027 7.157 19.448 13.992 1.877.117 4.987.528 8.184 2.376 3.402 1.936 9.709 7.039 8.36 12.525-.763 3.109-3.902 6.13-6.894 5.984-4.81-.235-7.919-8.507-8.917-8.008-.792.381 1.614 5.309.558 5.984-.968.616-4.782-2.347-6.542-6.366-1.437-3.226-1.202-6.277-.909-8.007-7.04-3.315-18.655-7.48-33.029-6.747-4.399.264-8.33.909-11.791 1.731Z"/><path fill="#828181" d="M138.363 130.737c1.056-5.691 3.55-8.301 4.987-9.445 9.005-7.275 26.077 1.496 31.151 4.077 5.984 3.051 10.472 6.776 12.643 8.683 4.341 3.842 3.256 4.077 9.181 9.709 4.077 3.872 6.981 6.072 6.394 7.656-.498 1.29-2.962 1.407-3.197 1.407-5.72.206-9.65-8.653-9.826-9.063 1.408 5.133 1.144 6.688.498 7.01-1.232.646-4.869-2.757-6.394-6.776-1.203-3.168-.851-6.13-.499-7.802a76.2 76.2 0 0 0-16.456-5.221c-11.762-2.288-21.794-1.408-28.482-.235" opacity=".34"/><path fill="#fff" stroke="#161616" stroke-width="3" d="M114.19 133.729c-.938 5.015-2.112 15.605 2.67 27.162 8.975 21.735 31.239 28.13 34.231 28.922.088 3.432.205 6.893.293 10.325-5.456 2.581-13.522 7.098-21.559 14.754-5.955 5.691-16.339 15.84-20.357 32.472-2.464 10.178-1.731 19.359-.294 26.282l106.273 1.76c1.144-6.688 2.405-20.005-3.256-34.818-10.12-26.488-34.319-36.784-38.954-38.661-.088-4.634-.205-9.24-.293-13.874 4.546-.998 15.077-3.931 23.906-13.288 14.725-15.576 12.496-35.962 12.114-38.954-31.62-.704-63.212-1.378-94.774-2.082Z"/><path fill="#161616" d="M119.851 166.315c2.904 1.584 6.014 2.787 9.328 3.256 2.405.323 4.693.118 7.099-.146 3.05-.352 6.072-.616 9.093-1.144 3.08-.528 6.013-1.438 9.064-2.112.821-.176 1.584-.264 2.405-.088 1.613.322 2.552 1.32 3.784 2.258 1.701 1.291 3.901 1.203 5.661.147.939-.587 1.789-1.32 2.728-1.877 1.379-.822 2.904-1.232 4.517-1.35 1.731-.117 3.491 0 5.192.323 2.024.381 3.813 1.203 5.749 1.819 3.814 1.232 4.987-2.846 7.95-4.224 3.549-1.672 8.447-1.496 12.173-.704.557.117.792-.734.234-.851-3.226-.704-6.394-.675-9.65-.117-1.379.234-2.699.557-3.901 1.29-1.379.851-2.171 2.142-3.344 3.198-1.702 1.525-3.667.352-5.456-.323a22.5 22.5 0 0 0-5.046-1.173c-2.874-.352-5.925-.235-8.535 1.173-2.142 1.173-3.99 3.52-6.688 2.523-1.174-.44-1.907-1.526-2.963-2.142-.85-.528-1.877-.85-2.874-.938-1.907-.147-3.872.674-5.72 1.144-3.491.88-7.07 1.466-10.677 1.848-2.816.293-5.72.821-8.566.733-3.93-.117-7.685-1.437-11.087-3.315-.528-.264-.968.499-.47.792M151.534 196.618c.469 1.115.938 2.288 1.73 3.227.499.616 1.262 1.085 1.584 1.877.323.821.323 1.907.44 2.787.382 3.021.792 6.042 2.054 8.858.234.528.997.059.762-.44-1.378-3.021-1.642-6.306-2.082-9.562-.147-1.056-.206-2.142-.968-2.963-1.174-1.291-1.966-2.346-2.67-4.018-.205-.528-1.056-.294-.85.234M170.716 199.169c-1.29-.997-2.287.851-2.757 1.848a13.3 13.3 0 0 0-1.056 2.904c-.264 1.144-.205 2.464-.733 3.52-.499 1.086-1.32 1.995-1.789 3.109-.44.998-.763 2.054-1.056 3.11-.675 2.64-1.056 5.368-1.526 8.037-.088.557.763.792.851.235.704-4.019 1.056-8.507 3.08-12.115.469-.821 1.085-1.525 1.408-2.405.235-.616.264-1.261.352-1.877.088-.646 1.731-6.424 2.611-5.75.41.352 1.055-.264.615-.616M161.298 233.724c-.264-.47-.528-1.027-.41-1.555.176-.821 1.085-.939 1.378-.147.352.939-.205 2.024-.85 2.64.176-.029.352-.058.528-.058a91 91 0 0 0-1.027-.763c-.469-.352-.88.44-.44.763.352.264.704.528 1.027.762.146.118.41.059.528-.058 1.056-1.027 2.024-3.784.176-4.606-.734-.322-1.555.059-1.966.734-.528.88-.176 1.936.294 2.757.264.469 1.026.029.762-.469M158.982 243.814c-.205-.41-.528-.968-.44-1.466.059-.294.44-.704.734-.44.293.234.322.938.234 1.261-.088.293-.586.792-.85.411-.323-.44-1.086 0-.763.44.469.674 1.437.733 2.053.146.675-.645.616-1.936.118-2.669-.499-.733-1.467-.616-1.995 0-.763.821-.293 1.965.147 2.816.264.44 1.026 0 .762-.499M163.234 247.302c-.382-.293 0-1.261.528-.968.234.118.381.47.322.734-.088.381-.586.322-.792.117-.41-.411-1.026.235-.616.616.616.587 1.76.587 2.171-.235.323-.674.029-1.525-.557-1.936-.646-.44-1.467-.176-1.848.499-.382.675-.264 1.496.381 1.936.411.323.851-.44.411-.763M134.4 274.143l7.303-5.896c1.174-.938 2.288-1.936 3.55-2.757 1.261-.821 2.64-1.202 4.048-1.73 4.399-1.702 8.271-9.006 13.317-4.43 1.642 1.467 2.992 2.758 5.133 3.462 2.434.792 4.84 1.261 7.157 2.405 4.459 2.2 8.096 5.749 10.531 10.061.264.499 1.026.059.762-.44a25.45 25.45 0 0 0-7.626-8.477 24.4 24.4 0 0 0-4.928-2.699c-1.995-.821-4.078-1.144-6.101-1.877-3.638-1.32-5.515-5.955-9.944-4.605-1.79.557-3.227 1.76-4.606 2.992-.821.733-1.642 1.466-2.581 2.053-1.202.763-2.581 1.027-3.872 1.584-2.053.88-3.754 2.434-5.485 3.813l-7.304 5.896c-.41.381.206.997.646.645"/><path fill="#161616" d="M172.417 194.651c-.323 2.376-.675 4.722-.998 7.098-.293 2.142-.322 4.664-1.29 6.659.205-.059.41-.117.616-.147-.822-.557-.264-3.314-.264-4.136l.088-4.282c0-.558-.88-.558-.88 0-.059 2.082-.088 4.165-.147 6.277-.029 1.056-.235 2.229.733 2.904.176.117.499.059.616-.147.939-1.936 1.027-4.194 1.32-6.306.352-2.552.734-5.104 1.086-7.656.029-.587-.822-.822-.88-.264M151.12 190.928c-.469 2.493-.117 4.899.998 7.157.264.499.997.059.762-.44-.997-2.053-1.32-4.253-.909-6.482.088-.558-.763-.792-.851-.235M134.988 178.49c5.338 3.901 11.938 5.397 17.511 8.829.47.293.939-.469.44-.762-5.602-3.432-12.202-4.928-17.511-8.83-.47-.352-.91.411-.44.763M152.089 183.036c2.639 1.613 4.487 4.077 5.279 7.098.147.558.998.323.851-.234-.821-3.227-2.816-5.896-5.661-7.627-.499-.293-.939.469-.469.763M167.312 194.123c1.408-3.872 3.256-7.774 6.688-10.237.469-.323.029-1.086-.44-.763-3.637 2.64-5.603 6.629-7.099 10.765-.176.557.675.763.851.235M140.855 272.089c2.992-3.286 6.835-5.544 11.147-6.6.557-.118.322-.968-.235-.851-4.459 1.056-8.448 3.432-11.528 6.805-.381.47.235 1.086.616.646M147.603 269.332l6.336-2.816c.528-.235.058-.997-.44-.763l-6.336 2.816c-.499.235-.059.998.44.763M165.112 258.39c2.581 2.376 6.747 1.555 9.122 4.136.382.411.998-.205.616-.616-2.434-2.64-6.541-1.789-9.122-4.136-.411-.41-1.027.235-.616.616"/><path fill="#161616" d="M109.204 276.753h106.625c3.402 0 3.402-5.28 0-5.28H109.204c-3.402 0-3.402 5.28 0 5.28M113.37 135.547h96.065c3.403 0 3.403-5.279 0-5.279H113.37c-3.402 0-3.402 5.279 0 5.279M106.212 130.268h-6.16c-3.403 0-3.403 5.279 0 5.279h6.16c3.402 0 3.402-5.279 0-5.279M88.525 134.96H90.9c1.378 0 2.698-1.203 2.64-2.64-.06-1.438-1.174-2.64-2.64-2.64h-2.376c-1.379 0-2.699 1.202-2.64 2.64.058 1.408 1.144 2.64 2.64 2.64"/><path fill="#161616" d="M221.958 276.372h12.525c3.403 0 3.403-5.28 0-5.28h-12.525c-3.402 0-3.402 5.28 0 5.28M243.46 276.96h2.2c1.379 0 2.699-1.203 2.64-2.64s-1.173-2.64-2.64-2.64h-2.2c-1.378 0-2.698 1.202-2.64 2.64.059 1.437 1.144 2.64 2.64 2.64M151.091 190.016c-.206 2.024-.382 4.077.029 6.072.44 2.112 1.76 3.607 2.728 5.485 1.115 2.112 1.437 4.664 1.965 6.952l1.672 7.303c.264 1.115 1.936.646 1.701-.469-.528-2.346-1.085-4.693-1.613-7.04-.499-2.17-.851-4.458-1.672-6.512-.733-1.848-2.229-3.343-2.845-5.25-.675-2.112-.411-4.4-.205-6.541.117-1.115-1.643-1.115-1.76 0"/><path fill="#161616" d="M147.102 189.136c1.613.763 3.256.997 5.016.704 1.115-.176.645-1.877-.469-1.701a6.08 6.08 0 0 1-3.667-.528c-1.026-.499-1.906 1.026-.88 1.525M168.836 199.254c-1.408.998-2.112 2.435-2.435 4.078-.234 1.114-.293 2.258-.616 3.373-.322 1.115-.85 2.141-1.378 3.197-1.965 3.96-3.931 8.155-3.373 12.672.146 1.115 1.906 1.115 1.76 0-.528-4.253 1.29-8.096 3.138-11.792.792-1.584 1.525-3.138 1.819-4.869.322-1.789.352-3.989 1.965-5.133.939-.675.059-2.2-.88-1.526M151.707 238.563c1.144 0 1.144-1.76 0-1.76-1.115 0-1.115 1.76 0 1.76M148.54 253.082c1.144 0 1.144-1.76 0-1.76s-1.144 1.76 0 1.76M157.603 219.437c.088.587.176 1.203.264 1.79.058.469.674.733 1.085.616.499-.147.675-.616.616-1.086-.088-.586-.176-1.202-.264-1.789-.059-.469-.675-.733-1.085-.616-.499.147-.675.616-.616 1.085M162.178 226.948v.205c0 .469.41.909.88.88.469-.029.88-.381.88-.88v-.205c0-.47-.411-.91-.88-.88-.47.029-.88.381-.88.88M186.379 167.959c2.816-1.056 5.045-3.11 7.744-4.371 3.314-1.525 6.805.323 10.09-.938 1.056-.411.587-2.112-.469-1.702-1.79.675-3.608.294-5.486.176-1.554-.117-3.021.088-4.458.675-2.816 1.144-5.075 3.373-7.92 4.458-.997.411-.557 2.112.499 1.702M191.746 219.906c-2.67 1.144-.411 3.96.821 5.192a53.6 53.6 0 0 1 6.747 8.271c3.842 5.779 6.511 12.261 7.949 19.037.117.558.968.323.85-.234a56.8 56.8 0 0 0-6.277-16.397 52 52 0 0 0-4.81-7.011 59 59 0 0 0-2.846-3.256c-.88-.909-4.4-3.813-1.994-4.84.528-.234.058-.997-.44-.762M195.003 222.166c8.888 7.392 12.496 18.685 15.752 29.362.176.528 1.026.323.85-.234-3.314-10.824-6.981-22.264-15.986-29.773-.44-.352-1.056.264-.616.645M207.644 255.342c.558.792 1.232 1.73 2.288 1.818.822.059 1.702-.41 1.819-1.29.088-.558-.763-.792-.851-.235s-.674.763-1.173.587c-.587-.206-.997-.822-1.32-1.32-.323-.47-1.085-.03-.763.44M209.375 267.719c1.32.586 2.963.176 3.667-1.144.675-1.262.147-2.992-1.085-3.696-1.262-.704-2.992-.206-3.726 1.026-.733 1.291-.205 2.934.968 3.726.47.322.91-.44.44-.763-.792-.528-1.144-1.672-.645-2.523.469-.821 1.672-1.173 2.523-.704.85.44 1.202 1.643.762 2.494-.44.88-1.613 1.202-2.464.821-.498-.235-.968.528-.44.763M119.528 140.035c.293 13.581 5.955 26.752 15.634 36.255.411.411 1.027-.234.616-.616-9.533-9.357-15.106-22.292-15.37-35.639-.029-.557-.909-.557-.88 0"/><path fill="#161616" d="M120.47 139.652c-.762-.762-1.848-.733-2.669-.058-1.085.909-.968 2.552-.851 3.842.294 3.843 1.056 7.627 2.2 11.293a53.7 53.7 0 0 0 11.205 19.683c.382.41.998-.206.616-.616a51.7 51.7 0 0 1-9.68-15.635c-1.085-2.698-1.906-5.514-2.522-8.36a51 51 0 0 1-.763-4.663c-.088-.734-.176-1.438-.205-2.171-.029-.323-.059-.645-.029-.939.029-.704.792-3.05 2.082-1.73.411.381 1.027-.264.616-.646"/><path fill="#474747" d="M209.581 136.016c.029.939-25.255 2.464-75.825 4.635-.88 3.989-1.467 9.445 0 15.487 4.693 19.507 25.871 27.016 27.983 27.72.264 7.509.558 15.047.822 22.557a51.5 51.5 0 0 0-8.478 4.106c-2.082 1.262-7.039 4.488-11.645 9.739-2.61 2.992-10.999 12.613-11.674 27.191-.411 8.653 2.083 15.634 4.077 19.829 23.818 1.349 47.666 2.728 71.484 4.077-32.442.264-64.855.558-97.297.822-1.026-6.542-1.994-19.067 3.256-33.146.968-2.552 9.005-23.144 30.448-34.789a65 65 0 0 1 8.418-3.813l-.264-10.883a51 51 0 0 1-12.232-4.898c-2.845-1.584-21.735-12.555-25.284-33.968-.558-3.402-1.027-8.77.264-15.487 63.945-.499 95.918-.235 95.947.821" opacity=".25"/><path fill="#474747" d="M166.93 135.283c-15.223 2.141-30.447 4.283-45.671 6.395.411 5.074 1.995 15.546 9.181 26.165 8.888 13.111 20.944 18.509 25.608 20.327.264 5.573.557 11.147.821 16.72-9.944 1.936-16.485 5.984-20.063 8.624-2.376 1.76-23.848 17.482-21.443 40.098.411 3.901 1.819 10.589 7.216 17.981-4.634.058-9.24.117-13.874.146-.939-7.186-1.79-21.999 5.896-37.282 5.866-11.616 14.255-18.743 19.125-22.791a84.8 84.8 0 0 1 17.365-11.147c.146-3.608.322-7.216.469-10.824-5.837-1.232-17.482-4.605-26.458-14.989-.646-.733-2.875-3.373-5.104-7.333-6.512-11.557-6.952-23.642-6.336-31.532 17.805-.206 35.551-.382 53.268-.558" opacity=".3"/><path fill="#fff" stroke="#161616" stroke-width="3" d="M150.421 122.698c-9.181 6.688-16.25 14.931-15.576 15.752.323.411 2.112-.117 8.742-4.37-1.144.674-3.843 2.405-5.251 5.778-.411.997-1.76 3.784-.528 5.603 1.32 1.906 4.811 1.73 7.069.968 4.371-1.467 6.453-6.014 6.688-5.838.352.235-4.517 7.187-3.813 7.744.733.616 8.36-5.866 14.197-14.959a57 57 0 0 0 3.842-7.011 134 134 0 0 1 18.891 1.76c13.141 2.141 18.157 4.957 27.103 3.491 5.485-.88 14.373-3.696 14.696-7.862.411-5.162-12.437-9.914-15.224-10.941-21.178-7.832-41.036-.586-44.263.646-8.037 3.08-13.581 7.069-16.573 9.239Z"/><path fill="#161616" d="M137.074 144.991c.147.293.235.352.499.528.147.117.411.058.528-.059 2.904-3.461 5.426-7.48 9.562-9.621.499-.264.059-1.027-.44-.763-4.224 2.171-6.775 6.219-9.738 9.768.176-.029.352-.059.528-.059-.059-.088-.117-.146-.176-.234-.264-.499-1.027-.059-.763.44M139.832 147.251c1.79.411 3.432-2.024 4.488-3.168 1.731-1.877 3.374-3.755 5.632-5.045.499-.294.059-1.027-.44-.763-1.701.968-3.08 2.259-4.4 3.667-.674.733-1.32 1.466-2.024 2.2-.645.704-1.994 2.493-3.021 2.258-.557-.117-.792.734-.235.851"/><path fill="#828181" d="M137.192 141.734c7.04-4.957 8.741-6.101 8.77-6.043.059.059-2.757 1.76-5.192 5.016a22 22 0 0 0-2.522 4.43c.088.176.352.645.88.938.674.382 1.29.294 1.496.264.176-.088.44-.234.733-.44 1.027-.674 1.643-1.466 1.877-1.73.118-.147 1.966-2.464 2.816-3.374.763-.821 2.054-1.877 4.166-2.64-1.731 2.64-3.491 5.31-5.222 7.95 1.79-.88 2.963-1.878 3.696-2.64.734-.734.968-1.174 2.288-2.816 1.232-1.526 2.142-2.494 2.494-2.904 3.079-3.52 7.685-11.909 10.618-14.725 6.277-6.072 16.397-1.115 36.373-.968 10.09.088 18.45-1.174 24.199-2.318.499.352 1.437 1.144 1.789 2.435 0 0 .44 1.613-.674 3.637-1.232 2.288-7.392 6.395-20.504 6.043-10.706-.294-13.962-3.227-28.306-4.84a130 130 0 0 0-11.293-.733c-2.376 5.631-5.104 9.767-7.245 12.554-4.723 6.189-10.061 10.501-10.853 9.914-.059-.029-.206-.176-.294-.44-.205-.586.235-1.261.47-1.613.44-.704.997-1.642 1.701-2.992a9 9 0 0 1-2.347 2.054c-3.021 1.847-7.949 2.434-9.621.029-.234-.293-.997-1.525-.293-4.048" opacity=".33"/><path fill="#828181" d="M169.781 126.247c.03-.264 6.747-.088 14.168.294 19.272.997 24.317 2.405 31.767-.294 4.694-1.701 8.038-4.194 9.856-5.72.558 1.086 1.144 2.699.704 4.312-1.085 3.931-7.392 5.221-11.469 6.043-2.259.469-6.101 1.026-12.173.498-5.397-.44-7.539-1.32-13.258-2.522-11.44-2.376-19.624-2.347-19.595-2.611" opacity=".51"/></svg>